<?xml version="1.0" encoding="utf-8"?>
<!-- Generator: Adobe Illustrator 25.2.1, SVG Export Plug-In . SVG Version: 6.00 Build 0)  -->
<svg version="1.1" xmlns="http://www.w3.org/2000/svg" xmlns:xlink="http://www.w3.org/1999/xlink" x="0px" y="0px"
	 viewBox="0 0 595.3 595.3" style="enable-background:new 0 0 595.3 595.3;" xml:space="preserve">
<style type="text/css">
	.st0{display:none;}
	.st1{display:inline;fill:none;stroke:#222221;stroke-width:7;stroke-miterlimit:10;}
	.st2{display:inline;fill-rule:evenodd;clip-rule:evenodd;}
	.st3{display:inline;}
	
		.st4{fill-rule:evenodd;clip-rule:evenodd;fill:none;stroke:#000000;stroke-width:7;stroke-linecap:round;stroke-linejoin:round;stroke-miterlimit:10;}
	.st5{fill-rule:evenodd;clip-rule:evenodd;}
	.st6{fill:#5A287F;}
	.st7{fill:#5A287F;stroke:#5A287F;stroke-miterlimit:10;}
	.st8{fill:#5A287F;stroke:#5A287F;stroke-width:2;stroke-miterlimit:10;}
	.st9{fill:#FFFFFF;}
	.st10{fill:#FFFFFF;stroke:#FFFFFF;stroke-width:12;stroke-miterlimit:10;}
	.st11{fill:#FFFFFF;stroke:#FFFFFF;stroke-width:11;stroke-miterlimit:10;}
	.st12{fill:none;stroke:#5A287F;stroke-width:4;stroke-miterlimit:10;}
	.st13{fill:none;stroke:#5A287F;stroke-width:4;stroke-linecap:round;stroke-miterlimit:10;}
	.st14{fill:none;stroke:#5A287F;stroke-width:6;stroke-linejoin:round;stroke-miterlimit:10;}
	.st15{fill:none;stroke:#5A287F;stroke-width:4;stroke-linecap:round;stroke-linejoin:round;stroke-miterlimit:10;}
	.st16{fill:none;stroke:#FFFFFF;stroke-width:3;stroke-linecap:round;stroke-miterlimit:10;}
	.st17{fill:none;stroke:#FFFFFF;stroke-width:3;stroke-linecap:round;stroke-linejoin:round;stroke-miterlimit:10;}
	.st18{fill:none;stroke:#FFFFFF;stroke-width:2;stroke-linecap:round;stroke-linejoin:round;stroke-miterlimit:10;}
	.st19{fill:none;stroke:#FFFFFF;stroke-linecap:round;stroke-linejoin:round;stroke-miterlimit:10;}
	.st20{fill:none;stroke:#5A287F;stroke-width:5;stroke-miterlimit:10;}
	.st21{fill:none;stroke:#FFFFFF;stroke-width:4;stroke-linecap:round;stroke-linejoin:round;stroke-miterlimit:10;}
	.st22{fill:none;stroke:#5A287F;stroke-width:7;stroke-miterlimit:10;}
	.st23{fill:none;stroke:#FFFFFF;stroke-width:4;stroke-linecap:round;stroke-miterlimit:10;}
	.st24{fill:#5A287F;stroke:#5A287F;stroke-width:3;stroke-miterlimit:10;}
	.st25{fill:#5A287F;stroke:#5A287F;stroke-width:0.75;stroke-miterlimit:10;}
	.st26{fill:none;stroke:#FFFFFF;stroke-width:5;stroke-linecap:round;stroke-linejoin:round;stroke-miterlimit:10;}
	.st27{fill:none;stroke:#5A287F;stroke-width:3;stroke-linecap:round;stroke-linejoin:round;stroke-miterlimit:10;}
	.st28{fill:#FFFFFF;stroke:#FFFFFF;stroke-width:10;stroke-miterlimit:10;}
	.st29{fill:#5A287F;stroke:#FFFFFF;stroke-width:2;stroke-miterlimit:10;}
	.st30{fill:#5A287F;stroke:#FFFFFF;stroke-miterlimit:10;}
	.st31{fill:#FFFFFF;stroke:#5A287F;stroke-width:5;stroke-miterlimit:10;}
	.st32{fill:none;stroke:#5A287F;stroke-width:5;stroke-linecap:round;stroke-linejoin:round;stroke-miterlimit:10;}
	.st33{fill:none;stroke:#5A287F;stroke-width:6;stroke-linecap:round;stroke-linejoin:round;stroke-miterlimit:10;}
	.st34{fill:#FFFFFF;stroke:#5A287F;stroke-width:5;stroke-linecap:round;stroke-linejoin:round;stroke-miterlimit:10;}
	.st35{fill:#5A287F;stroke:#5A287F;stroke-width:3;stroke-linecap:round;stroke-linejoin:round;stroke-miterlimit:10;}
	.st36{fill:#FFFFFF;stroke:#5A287F;stroke-width:6;stroke-miterlimit:10;}
	.st37{fill:#FFFFFF;stroke:#5A287F;stroke-width:6;stroke-linecap:round;stroke-linejoin:round;stroke-miterlimit:10;}
	.st38{fill:#FFFFFF;stroke:#5A287F;stroke-width:4;stroke-linecap:round;stroke-linejoin:round;stroke-miterlimit:10;}
	.st39{fill:none;stroke:#5A287F;stroke-width:7;stroke-linecap:round;stroke-linejoin:round;stroke-miterlimit:10;}
	.st40{fill:#5A287F;stroke:#FFFFFF;stroke-width:3;stroke-miterlimit:10;}
	.st41{fill:#5A287F;stroke:#5A287F;stroke-width:4;stroke-linecap:round;stroke-linejoin:round;stroke-miterlimit:10;}
	.st42{fill:none;}
</style>
<g id="Layer_3" class="st0">
</g>
<g id="icone_sport" class="st0">
</g>
<g id="base_immagini">
</g>
<g id="ICONE_CAUSE">
	<g>
		<g>
			<path class="st6" d="M297.6,195C241,195,195,241,195,297.6s46,102.6,102.6,102.6s102.6-46,102.6-102.6S354.2,195,297.6,195z
				 M200.8,297.6c0-20.3,6.3-39.1,17-54.7l5.6,5.5c0.6,0.6,0.9,1.3,1,2.1l1,12.4c0.1,0.7,0.3,1.4,0.8,1.9l25.3,28.9
				c0.3,0.3,0.6,0.6,1,0.8l22.3,11.4c0.1,0,0.1,0.1,0.2,0.1l6.5,2.9c0.7,0.3,1.3,0.9,1.6,1.6l2,4.1c0.3,0.6,0.8,1.1,1.3,1.4
				l-2.3,8.6c-0.2,0.9-0.1,1.9,0.3,2.8l5.4,10.9c0.3,0.7,0.9,1.3,1.5,1.6l4.5,2.7c1.4,0.8,2.1,2.4,1.9,4l-5.9,40.7
				c-0.1,0.8,0,1.6,0.4,2.4l2.5,4.8C242.5,392.8,200.8,350,200.8,297.6z M393.4,312.4c-6.8,44.7-44.3,79.4-90.2,82l-1.5-2
				c-0.9-1.3-1-2.9-0.3-4.3l6.6-11.7c0.4-0.7,0.9-1.2,1.6-1.6l4.9-2.6c0.4-0.2,0.8-0.5,1.1-0.9l12.3-13.8c0.5-0.6,1.2-1,1.9-1.2
				l6-1.7c1.2-0.3,2.1-1.2,2.6-2.3l8.6-20.9c0.9-2.1-0.2-4.5-2.4-5.3l-18.5-6.5c-0.9-0.3-1.7-1-2.2-1.8l-1.5-2.8
				c-0.3-0.6-0.9-1.2-1.5-1.5l-13.6-8c-0.6-0.4-1.3-0.6-2-0.6h-11.8c-1.4,0-2.8,0.8-3.5,2l-0.9,1.6c-0.2-0.1-0.4-0.1-0.7-0.1
				c-0.9-0.1-1.7-0.5-2.3-1.2l-9.9-12.5c-0.8-1-2.1-1.5-3.3-1.2l-2.7,0.6c-0.9,0.2-1.8,0-2.5-0.4l-4.1-2.7c-1.2-0.8-1.7-2.2-1.4-3.5
				l1-4.5c0.3-1.5,1.7-2.6,3.2-2.6h15.2c1.1,0,2.2-0.6,2.8-1.5l10.1-16c0.4-0.6,0.9-1.1,1.6-1.3l9-3.5c0.6-0.2,1.1-0.6,1.5-1.2
				l8.2-11.5c0.9-1.2,0.8-2.9-0.2-4.1l-8.9-10.2c-0.4-0.4-0.9-0.8-1.4-1l-12.1-4.1c-1.9-0.6-3.9,0.5-4.3,2.4l-2.2,9.3
				c-0.5,2-2.7,3.1-4.6,2.2l-10.4-4.9c-0.6-0.3-1.1-0.7-1.4-1.3l-2.1-3.5c-0.9-1.4-0.6-3.3,0.7-4.3l13.4-10.8c0.9-0.7,1.3-1.8,1.2-3
				l-0.4-3.6l3.8-0.6c0.8-0.1,1.7,0.1,2.3,0.6l3.5,2.6c0.8,0.6,1.2,1.5,1.2,2.5v1.6c0,1.1,0.6,2.1,1.5,2.7l6.7,4.2
				c1.8,1.2,4.3,0.1,4.7-2l0.9-4c0.2-1-0.1-2-0.7-2.8l-11.2-12.6c0.9,0,1.8,0,2.7,0c4,0,7.9,0.2,11.8,0.7l7.2,4.4
				c0.7,0.5,1.3,1.2,1.6,2c0.8,2.4,2.4,7.3,2.6,8c0.2,0.8,5,8.4,6.6,10.7c0.3,0.5,0.7,0.9,1.2,1.2c1.9,1.1,4.3,0.4,5.3-1.5l3.6-7.4
				c0.4-0.7,0.9-1.3,1.7-1.7l6.9-3.5c17,9.8,30.8,24.7,39.3,42.5C385.2,256.2,396.4,273,393.4,312.4z"/>
		</g>
		<g>
			<path class="st28" d="M261,362.5c0,16.3-13.2,29.5-29.5,29.5c-16.3,0-29.5-13.2-29.5-29.5c0-11.4,6.5-21.7,16.7-26.6v-86.2
				c0-7,5.7-12.7,12.7-12.7c7,0,12.7,5.7,12.7,12.7V336C254.4,340.8,261,351.1,261,362.5z"/>
			<path class="st6" d="M216,311.8C216,311.8,216,311.8,216,311.8C215.9,311.8,215.9,311.8,216,311.8
				C215.9,311.8,216,311.8,216,311.8z"/>
			<path class="st6" d="M216,311.8C216,311.8,216,311.8,216,311.8C215.9,311.8,215.9,311.8,216,311.8
				C215.9,311.8,216,311.8,216,311.8z"/>
			<path class="st6" d="M244.2,336v-86.2c0-7-5.7-12.7-12.7-12.7s-12.7,5.7-12.7,12.7V336c-10.2,4.9-16.7,15.2-16.7,26.6
				c0,16.3,13.2,29.5,29.5,29.5s29.5-13.2,29.5-29.5C261,351.1,254.4,340.8,244.2,336z M231.5,388.5c-14.3,0-26-11.7-26-26
				c0-10.3,6.1-19.6,15.5-23.8c0,0,0,0,0,0c0,0,0.1,0,0.1-0.1c0,0,0,0,0,0c0,0,0,0,0.1,0c0,0,0,0,0.1,0c0,0,0.1,0,0.1,0c0,0,0,0,0,0
				c0.1,0,0.1-0.1,0.2-0.2l0,0c0.1-0.1,0.1-0.1,0.2-0.2c0,0,0,0,0,0c0.1-0.1,0.1-0.1,0.2-0.2c0-0.1,0.1-0.1,0.1-0.2
				c0-0.1,0.1-0.1,0.1-0.2c0,0,0,0,0,0c0-0.1,0-0.2,0-0.2c0-0.1,0-0.2,0-0.2v-87.3c0-5.1,4.1-9.2,9.2-9.2s9.2,4.1,9.2,9.2v87.3
				c0,0.1,0,0.2,0,0.2c0,0.2,0.1,0.3,0.1,0.5c0,0.1,0.1,0.2,0.1,0.2c0,0.1,0.1,0.1,0.2,0.2c0.1,0.1,0.2,0.2,0.4,0.3
				c0.1,0,0.1,0.1,0.2,0.1c0,0,0,0,0,0c9.5,4,15.6,13.4,15.6,23.8C257.5,376.9,245.8,388.5,231.5,388.5z"/>
			<path class="st6" d="M231.9,360.5c-0.1-0.1-0.3-0.2-0.4-0.3C231.6,360.3,231.7,360.4,231.9,360.5z"/>
			<line class="st27" x1="240.9" y1="257.6" x2="229.2" y2="257.6"/>
			<line class="st27" x1="240.9" y1="267.3" x2="234.4" y2="267.3"/>
			<line class="st27" x1="240.9" y1="277" x2="229.2" y2="277"/>
			<line class="st27" x1="240.9" y1="286.7" x2="234.4" y2="286.7"/>
			<line class="st27" x1="240.9" y1="296.4" x2="229.2" y2="296.4"/>
			<line class="st27" x1="240.9" y1="306.2" x2="234.4" y2="306.2"/>
			<line class="st27" x1="240.9" y1="315.9" x2="229.2" y2="315.9"/>
			<line class="st27" x1="240.9" y1="325.6" x2="234.4" y2="325.6"/>
			<circle class="st6" cx="231.5" cy="363" r="19"/>
			<path class="st17" d="M234.8,350c4.2,1.1,7.6,4.2,9.2,8.2"/>
		</g>
		<path class="st13" d="M379,318.7c-3.2,11.7-8.8,22.3-16.3,31.4"/>
		<path class="st13" d="M355.3,234.9c14.7,13.8,24.5,32.8,26.3,54.1"/>
		<circle class="st22" cx="297.6" cy="297.6" r="146.2"/>
	</g>
</g>
</svg>
