<?xml version="1.0" encoding="utf-8"?>
<!-- Generator: Adobe Illustrator 25.2.1, SVG Export Plug-In . SVG Version: 6.00 Build 0)  -->
<svg version="1.1" xmlns="http://www.w3.org/2000/svg" xmlns:xlink="http://www.w3.org/1999/xlink" x="0px" y="0px"
	 viewBox="0 0 595.3 595.3" style="enable-background:new 0 0 595.3 595.3;" xml:space="preserve">
<style type="text/css">
	.st0{display:none;}
	.st1{display:inline;fill:none;stroke:#222221;stroke-width:7;stroke-miterlimit:10;}
	.st2{display:inline;fill-rule:evenodd;clip-rule:evenodd;}
	.st3{display:inline;}
	
		.st4{fill-rule:evenodd;clip-rule:evenodd;fill:none;stroke:#000000;stroke-width:7;stroke-linecap:round;stroke-linejoin:round;stroke-miterlimit:10;}
	.st5{fill-rule:evenodd;clip-rule:evenodd;}
	.st6{fill:#5A287F;}
	.st7{fill:#5A287F;stroke:#5A287F;stroke-miterlimit:10;}
	.st8{fill:#5A287F;stroke:#5A287F;stroke-width:2;stroke-miterlimit:10;}
	.st9{fill:#FFFFFF;}
	.st10{fill:#FFFFFF;stroke:#FFFFFF;stroke-width:12;stroke-miterlimit:10;}
	.st11{fill:#FFFFFF;stroke:#FFFFFF;stroke-width:11;stroke-miterlimit:10;}
	.st12{fill:none;stroke:#5A287F;stroke-width:4;stroke-miterlimit:10;}
	.st13{fill:none;stroke:#5A287F;stroke-width:4;stroke-linecap:round;stroke-miterlimit:10;}
	.st14{fill:none;stroke:#5A287F;stroke-width:6;stroke-linejoin:round;stroke-miterlimit:10;}
	.st15{fill:none;stroke:#5A287F;stroke-width:4;stroke-linecap:round;stroke-linejoin:round;stroke-miterlimit:10;}
	.st16{fill:none;stroke:#FFFFFF;stroke-width:3;stroke-linecap:round;stroke-miterlimit:10;}
	.st17{fill:none;stroke:#FFFFFF;stroke-width:3;stroke-linecap:round;stroke-linejoin:round;stroke-miterlimit:10;}
	.st18{fill:none;stroke:#FFFFFF;stroke-width:2;stroke-linecap:round;stroke-linejoin:round;stroke-miterlimit:10;}
	.st19{fill:none;stroke:#FFFFFF;stroke-linecap:round;stroke-linejoin:round;stroke-miterlimit:10;}
	.st20{fill:none;stroke:#5A287F;stroke-width:5;stroke-miterlimit:10;}
	.st21{fill:none;stroke:#FFFFFF;stroke-width:4;stroke-linecap:round;stroke-linejoin:round;stroke-miterlimit:10;}
	.st22{fill:none;stroke:#5A287F;stroke-width:7;stroke-miterlimit:10;}
	.st23{fill:none;stroke:#FFFFFF;stroke-width:4;stroke-linecap:round;stroke-miterlimit:10;}
	.st24{fill:#5A287F;stroke:#5A287F;stroke-width:3;stroke-miterlimit:10;}
	.st25{fill:#5A287F;stroke:#5A287F;stroke-width:0.75;stroke-miterlimit:10;}
	.st26{fill:none;stroke:#FFFFFF;stroke-width:5;stroke-linecap:round;stroke-linejoin:round;stroke-miterlimit:10;}
	.st27{fill:none;stroke:#5A287F;stroke-width:3;stroke-linecap:round;stroke-linejoin:round;stroke-miterlimit:10;}
	.st28{fill:#FFFFFF;stroke:#FFFFFF;stroke-width:10;stroke-miterlimit:10;}
	.st29{fill:#5A287F;stroke:#FFFFFF;stroke-width:2;stroke-miterlimit:10;}
	.st30{fill:#5A287F;stroke:#FFFFFF;stroke-miterlimit:10;}
	.st31{fill:#FFFFFF;stroke:#5A287F;stroke-width:5;stroke-miterlimit:10;}
	.st32{fill:none;stroke:#5A287F;stroke-width:5;stroke-linecap:round;stroke-linejoin:round;stroke-miterlimit:10;}
	.st33{fill:none;stroke:#5A287F;stroke-width:6;stroke-linecap:round;stroke-linejoin:round;stroke-miterlimit:10;}
	.st34{fill:#FFFFFF;stroke:#5A287F;stroke-width:5;stroke-linecap:round;stroke-linejoin:round;stroke-miterlimit:10;}
	.st35{fill:#5A287F;stroke:#5A287F;stroke-width:3;stroke-linecap:round;stroke-linejoin:round;stroke-miterlimit:10;}
	.st36{fill:#FFFFFF;stroke:#5A287F;stroke-width:6;stroke-miterlimit:10;}
	.st37{fill:#FFFFFF;stroke:#5A287F;stroke-width:6;stroke-linecap:round;stroke-linejoin:round;stroke-miterlimit:10;}
	.st38{fill:#FFFFFF;stroke:#5A287F;stroke-width:4;stroke-linecap:round;stroke-linejoin:round;stroke-miterlimit:10;}
	.st39{fill:none;stroke:#5A287F;stroke-width:7;stroke-linecap:round;stroke-linejoin:round;stroke-miterlimit:10;}
	.st40{fill:#5A287F;stroke:#FFFFFF;stroke-width:3;stroke-miterlimit:10;}
	.st41{fill:#5A287F;stroke:#5A287F;stroke-width:4;stroke-linecap:round;stroke-linejoin:round;stroke-miterlimit:10;}
	.st42{fill:none;}
</style>
<g id="Layer_3" class="st0">
</g>
<g id="icone_sport" class="st0">
</g>
<g id="base_immagini">
</g>
<g id="ICONE_CAUSE">
	<g>
		<path class="st6" d="M297.6,147.2c-82.9,0-150.4,67.5-150.4,150.4c0,82.9,67.5,150.4,150.4,150.4c82.9,0,150.4-67.5,150.4-150.4
			C448,214.7,380.6,147.2,297.6,147.2z M297.6,154.2c69.5,0,127.6,49.7,140.7,115.4c-45.5-18-71-24.2-141.8-0.1
			c-4.4,1.5-8.6,3-12.6,4.4c-38.9,13.7-62.5,22-127.5-1.6C168.5,205.3,227.2,154.2,297.6,154.2z M297.6,441.1
			c-35.5,0-67.9-12.9-93-34.3c10.1,3.3,20.2,4.7,30.4,4.7c19.9,0,40-5.2,61.4-11.6c36.4-10.9,69.2-18.4,102.4-0.6
			C372.9,425,337.1,441.1,297.6,441.1z M403.7,394.1c-0.2-0.3-0.5-0.5-0.9-0.7c-35.7-19.5-70.2-11.7-108.4-0.3
			c-36.6,10.9-69.7,18.5-103,0.3c-0.2-0.1-0.4-0.2-0.7-0.3c-12.5-14.1-22.4-30.6-28.7-48.7c47.8-24,91.7-27.1,134.3-9.6
			c17.1,7.1,36.6,10.7,57.1,10.7c5.6,0,11.3-0.3,17.1-0.8c22.9-2.2,46.2-8.7,67.7-18.8C433,351.8,420.8,375.3,403.7,394.1z
			 M369.9,337.7c-25.6,2.4-50.1-0.8-70.9-9.4c-43.6-18-90.4-14.9-139.1,9.3c-3.7-12.7-5.7-26.1-5.7-40c0-6.2,0.4-12.3,1.2-18.3
			c30.1,10.8,51.5,15,69.7,15c22,0,39.2-6.1,61.2-13.8c4-1.4,8.1-2.9,12.5-4.3c70.7-24.1,93.3-17.4,140.9,1.5
			c0.9,6.5,1.4,13.2,1.4,19.9c0,6.7-0.5,13.3-1.4,19.8C417.7,328.4,393.6,335.4,369.9,337.7z"/>
		<path class="st7" d="M398.8,399.2c-26,25.9-61.7,41.9-101.2,41.9c-35.5,0-67.9-12.9-93-34.3c10.1,3.3,20.2,4.7,30.4,4.7
			c19.9,0,40-5.2,61.4-11.6C332.8,389,365.6,381.4,398.8,399.2z"/>
		<path class="st8" d="M441,297.6c0,6.7-0.5,13.3-1.4,19.8c-22,11-46.1,18-69.8,20.3c-25.6,2.4-50.1-0.8-70.9-9.4
			c-43.6-18-90.4-14.9-139.1,9.3c-3.7-12.7-5.7-26.1-5.7-40c0-6.2,0.4-12.3,1.2-18.3c30.1,10.8,51.5,15,69.7,15
			c22,0,39.2-6.1,61.2-13.8c4-1.4,8.1-2.9,12.5-4.3c70.7-24.1,93.3-17.4,140.9,1.5C440.6,284.2,441,290.9,441,297.6z"/>
		<path class="st9" d="M301.4,330.3c0.3-0.9,0.5-1.8,0.8-2.8c3.1-10.4,6.1-20.9,9.2-31.3c0.6-1.9,1.6-2.6,3.1-2.1
			c1.1,0.4,1.7,1.3,1.5,2.5c-0.1,0.4-0.2,0.8-0.3,1.2c-3.3,11.2-6.6,22.4-9.9,33.5c3.8,0.9,7.6,1.8,11.5,2.5
			c12.4,2.2,25.2,3,37.9,3.3c3.3-11.1,6.5-22.1,9.8-33.2c0.3-0.9,0.4-1.8,0.5-2.7c0.2-2.1-0.6-4-1.4-6c-0.4-0.9-0.9-1.3-1.8-1.6
			c-3.9-1.1-7.9-2.3-11.8-3.5c-10.9-3.2-21.8-6.4-32.7-9.6c-0.4-0.1-0.9-0.2-1.1-0.1c-3,1.6-5.4,3.7-6.4,7.2
			c-4.1,14-8.2,27.9-12.3,41.8C299,329.7,300.2,330,301.4,330.3z"/>
		<path class="st9" d="M357.5,207c3.8,1.1,7.6,2.2,11.3,3.3c-0.1,0.3-0.2,0.6-0.3,1c-0.6,2.1-0.6,4,0.5,6c3.5,6.4,6,13.3,7.6,20.5
			c1.6,6.7,2.2,13.6,1.2,20.4c-0.5,3.3-1.5,6.5-2.4,9.7c-0.8,2.8-1.9,5.4-3.4,7.9c-1.2,1.9-3,3.1-5.1,3.9c-0.3,0.1-0.6,0-1-0.1
			c-14.6-4.3-29.1-8.6-43.7-12.9c-0.4-0.1-0.7-0.4-1-0.7c-2.2-2.9-2.3-6.2-1.6-9.5c0.8-3.7,1.7-7.3,2.9-10.9c1.5-4.4,4-8.4,6.8-12.2
			c5.5-7.2,12.3-13,19.8-18c1.3-0.9,2.7-1.7,4.1-2.4c2.2-1,3.3-2.8,3.9-5C357.4,207.5,357.5,207.3,357.5,207z M330.4,242.4
			c0,0.5-0.1,0.9,0,1.3c0.2,1,0.8,1.6,1.9,1.8c1,0.2,1.9-0.3,2.5-1.3c2.9-5.1,6.5-9.7,10.6-13.8c2.4-2.5,5-4.8,7.6-7.1
			c0.9-0.8,1.2-1.9,0.8-2.8c-0.5-1-1.4-1.6-2.5-1.4c-0.6,0.2-1.2,0.6-1.7,1c-5.8,5-11.2,10.5-15.6,16.8
			C332.7,238.7,331.6,240.6,330.4,242.4z M326.1,254c-0.4,2.3-0.7,5-0.3,7.8c0.2,1.4,1.3,2.3,2.6,2.1c1.3-0.2,2.1-1.2,1.9-2.7
			c-0.3-2.3-0.2-4.6,0.4-6.9c0.1-0.5,0.1-1.1-0.1-1.6c-0.4-1-1.4-1.5-2.4-1.4C327.2,251.5,326.5,252.2,326.1,254z"/>
		<path class="st9" d="M343,277.4c7.2,2.1,14.4,4.3,21.6,6.3c1.4,0.4,2,1.3,2.3,2.4c0.1,0.4-0.1,1.1-0.4,1.4
			c-0.8,0.6-1.7,1.2-2.6,1.6c-0.3,0.1-0.7-0.1-1-0.2c-11.9-3.5-23.8-7-35.7-10.5c-2.3-0.7-4.7-1.4-7-2.1c-0.6-0.2-1.2-0.4-1.4-1.1
			c-0.1-0.3-0.3-0.5-0.4-0.8c-1.1-2.1-1-2.4,1-3.5c0.4-0.2,1-0.3,1.4-0.2C328.1,273,335.6,275.2,343,277.4
			C343,277.4,343,277.4,343,277.4z"/>
		<path class="st6" d="M296.1,348.3c-3,10.2-6,20.4-9,30.5c-0.1,0.4-0.2,0.8-0.2,1.2c0,1,0.5,1.7,1.4,2.1c0.9,0.4,1.8,0.3,2.4-0.5
			c0.4-0.5,0.6-1,0.8-1.6c3-10.1,6-20.2,8.9-30.3C299,349.2,297.5,348.8,296.1,348.3z"/>
		<path class="st10" d="M381.2,265.4c-1,3-2.1,6-3.4,9c-1.2,2.8-3.1,5-5.8,6.6c-0.2,0.1-0.5,0.3-0.7,0.5c1.4,5.4,1.2,6.1-2.9,9.4
			c0.5,1.1,0.9,2.2,1.4,3.3c1.1,3,1.2,6.1,0.3,9.1c-3.2,10.8-6.3,21.6-9.5,32.4c0,0,0,7.6-6.7,6.4c-6.7-1.1-70.4-6.4-60-15.1
			c4-13.8,8.1-27.5,12.1-41.3c1.2-4.3,3.6-7.7,7.4-10c0.3-0.2,0.7-0.4,1.1-0.7c-0.7-1.7-1.3-3.4-0.8-5.3c0.5-1.9,1.8-3.1,3.4-4
			c-0.5-1.5-1.1-2.9-1.5-4.3c-0.6-2.4-0.4-4.9,0.1-7.3c1-4.6,2-9.2,3.9-13.6c1.9-4.4,4.4-8.5,7.3-12.3c4.7-6.1,10.3-11.2,16.5-15.6
			c2.5-1.8,5.2-3.5,7.9-5c1.4-0.8,2-1.8,2.1-3.2c0-0.1,0-0.1-0.1-0.2c-2.4-1.3-2.9-2.2-2.5-4.8c0.6-4.2,1.6-8.2,3.4-12.1
			c2.1-4.2,4.9-5.6,9.6-4.4c4.5,1.2,9,2.5,13.5,3.9c3.8,1.2,5.5,4.3,5,8.7c-0.5,4.5-2.1,8.7-4,12.8c-0.7,1.5-2.1,2.1-4.5,1.9
			c-0.6,1.2-0.8,2.4-0.1,3.8c5.1,9.7,8.5,20,9.4,31C384,251.9,383.4,258.8,381.2,265.4z"/>
		<g>
			<path class="st6" d="M382.8,246.4c-1-11-4.3-21.3-9.4-31c-0.8-1.4-0.6-2.5,0.1-3.8c2.3,0.2,3.8-0.4,4.5-1.9
				c1.9-4.1,3.5-8.3,4-12.8c0.5-4.4-1.2-7.5-5-8.7c-4.5-1.4-8.9-2.7-13.5-3.9c-4.6-1.2-7.5,0.2-9.6,4.4c-1.9,3.8-2.8,7.9-3.4,12.1
				c-0.4,2.7,0.1,3.5,2.5,4.8c0,0,0,0.1,0.1,0.2c-0.1,1.4-0.7,2.4-2.1,3.2c-2.7,1.5-5.4,3.2-7.9,5c-6.2,4.4-11.8,9.5-16.5,15.6
				c-3,3.8-5.4,7.9-7.3,12.3c-1.9,4.4-2.9,9-3.9,13.6c-0.5,2.4-0.7,4.9-0.1,7.3c0.3,1.5,0.9,2.8,1.5,4.3c-1.6,0.9-2.9,2.1-3.4,4
				c-0.5,1.9,0.2,3.6,0.8,5.3c-0.4,0.3-0.8,0.5-1.1,0.7c-3.9,2.3-6.2,5.7-7.4,10c-4,13.8-8.7,29.5-12.7,43.3
				c1.5,0.3,2.2,1.4,3.7,1.8c4.1-13.9,9.6-30.7,13.7-44.6c1-3.5,3.4-5.5,6.4-7.2c0.3-0.2,0.8,0,1.1,0.1c10.9,3.2,21.8,6.4,32.7,9.6
				c3.9,1.2,7.9,2.3,11.8,3.5c0.9,0.3,1.4,0.7,1.8,1.6c0.8,1.9,1.6,3.8,1.4,5.9c-0.1,0.9-0.2,1.9-0.5,2.7
				c-3.2,11.1-8.4,27-11.7,38.1c1.6,0,3.4,0.2,5,0.2c3.2-10.8,8.1-26.6,11.3-37.4c0.9-3.1,0.8-6.1-0.3-9.1c-0.4-1.1-0.9-2.2-1.3-3.3
				c4.1-3.2,4.3-4,2.9-9.4c0.2-0.2,0.5-0.3,0.7-0.5c2.7-1.6,4.6-3.8,5.8-6.6c1.3-2.9,2.4-5.9,3.4-9
				C382.9,260.3,383.4,253.4,382.8,246.4z M358.3,190.1c0.7-1.5,1.5-1.8,3.1-1.5c1.6,0.3,3.2,0.8,4.8,1.2c3,0.8,6,1.7,8.9,2.6
				c1.9,0.6,2.5,1.5,2.3,3.5c-0.4,3.8-1.7,7.4-3.2,11c-6.4-1.9-12.8-3.8-19.2-5.6C355.7,197.4,356.5,193.6,358.3,190.1z
				 M366.5,287.5c-0.8,0.7-1.7,1.2-2.6,1.6c-0.3,0.1-0.7-0.1-1-0.2c-11.9-3.5-23.8-7-35.7-10.5c-2.3-0.7-4.7-1.4-7-2.1
				c-0.6-0.2-1.2-0.4-1.4-1.1c-0.1-0.3-0.3-0.5-0.4-0.8c-1.1-2.1-1-2.4,1-3.5c0.4-0.2,1-0.3,1.4-0.2c7.5,2.2,14.9,4.4,22.4,6.6
				c0,0,0,0,0,0c7.2,2.1,14.4,4.3,21.6,6.3c1.4,0.4,2,1.3,2.3,2.4C367.1,286.6,366.8,287.3,366.5,287.5z M377.9,258.1
				c-0.5,3.3-1.5,6.5-2.4,9.7c-0.8,2.8-1.9,5.4-3.4,7.9c-1.2,1.9-3,3-5.1,3.9c-0.3,0.1-0.6,0-0.9-0.1c-14.6-4.3-29.1-8.6-43.7-12.9
				c-0.4-0.1-0.7-0.4-1-0.7c-2.2-2.9-2.3-6.2-1.6-9.5c0.8-3.7,1.7-7.3,2.9-10.9c1.5-4.5,4-8.4,6.8-12.2c5.5-7.2,12.3-13,19.8-18
				c1.3-0.9,2.7-1.7,4.2-2.4c2.2-1,3.3-2.8,3.9-5c0.1-0.2,0.1-0.5,0.2-0.8c3.8,1.1,7.6,2.2,11.3,3.3c-0.1,0.3-0.2,0.6-0.3,1
				c-0.6,2-0.6,4,0.5,6c3.5,6.4,6,13.3,7.6,20.5C378.3,244.4,379,251.3,377.9,258.1z"/>
			<path class="st6" d="M377.4,196c-0.4,3.8-1.7,7.4-3.2,11c-6.4-1.9-12.8-3.8-19.2-5.6c0.7-3.9,1.5-7.7,3.3-11.2
				c0.7-1.5,1.5-1.8,3.1-1.5c1.6,0.3,3.2,0.8,4.8,1.2c3,0.8,6,1.7,8.9,2.6C377.1,193,377.6,194,377.4,196z"/>
			<path class="st6" d="M304.6,334.8c3.3-11.2,7.9-25.8,11.2-37c0.1-0.4,0.2-0.8,0.3-1.2c0.2-1.1-0.4-2.1-1.5-2.5
				c-1.5-0.5-2.6,0.2-3.1,2.1c-3.1,10.4-6.2,20.9-9.2,31.3c-0.3,0.9-1.8,5.1-2,6.1C301.6,333.9,303.1,334.4,304.6,334.8z"/>
			<path class="st6" d="M330.4,242.4c1.2-1.8,2.3-3.7,3.5-5.5c4.4-6.3,9.8-11.7,15.6-16.8c0.5-0.4,1.1-0.8,1.7-1
				c1.1-0.3,2,0.3,2.5,1.4c0.4,0.9,0.1,2-0.8,2.8c-2.5,2.4-5.1,4.7-7.6,7.1c-4.1,4.1-7.7,8.7-10.6,13.8c-0.6,1-1.5,1.5-2.5,1.3
				c-1-0.2-1.7-0.8-1.9-1.8C330.4,243.3,330.4,242.9,330.4,242.4z"/>
			<path class="st6" d="M326.1,254c0.4-1.8,1.1-2.5,2.1-2.7c1-0.1,2,0.4,2.4,1.4c0.2,0.5,0.2,1.1,0.1,1.6c-0.5,2.3-0.7,4.6-0.4,6.9
				c0.2,1.4-0.6,2.5-1.9,2.7c-1.3,0.2-2.4-0.7-2.6-2.1C325.3,259.1,325.6,256.3,326.1,254z"/>
			<path class="st9" d="M375.9,203.5c-0.9,1.6-1.7,2.2-2.8,2c-1-0.1-1.9-0.9-2-1.9c0-0.5,0.1-1.1,0.3-1.6c1.1-2.1,1.9-4.2,2.2-6.6
				c0.2-1.4,1.2-2.2,2.6-2.1c1.3,0.2,2.1,1.3,2,2.7C377.9,198.9,376.9,201.5,375.9,203.5z"/>
		</g>
		<g>
			<path class="st11" d="M366.1,374.7l-14.3,34.8c-0.2,0.6-0.8,1-1.4,1.2c-0.6,0.2-1.3,0-1.8-0.4c-13.5-10.7-26.1-21-29.5-23.8
				c-4.6,1.5-22.9,7-46,6.3c-1.3,0.8-1.7,3.3-2.1,5.7c-0.5,3-1,6.2-3.5,7.6c-1.6,0.9-3.6,0.8-6-0.2c-0.1-0.1-0.3-0.1-0.4-0.2
				c-10.2-4.4-38.1-25.3-39.3-26.2c-0.1-0.1-0.2-0.1-0.2-0.2c-16.7-9.5-28.4-23.2-35.7-33.8c-9.6-14-13.7-25.6-13.9-26.1l2.2-0.8
				l-0.8-1.5c0.5-0.2,11.5-5.9,28-9.6c11.5-2.5,27.3-4.3,44.2-1.3c0,0,0,0,0.1,0c1.5,0.1,36.2,2.9,46.8,6.4c1.8,0.6,4.4,1.7,5.2,4
				c0.8,2.5-0.8,4.8-2.4,7.1c-1.5,2.1-2.5,3.6-2.2,4.9c20.1,15.8,30.7,33.8,33.1,38.2c4.2,0.7,20.9,3.2,38.3,4.8
				c0.6,0.1,1.2,0.4,1.6,1C366.3,373.4,366.3,374.1,366.1,374.7z"/>
			<line class="st12" x1="206.7" y1="316.9" x2="214.5" y2="335"/>
			<line class="st12" x1="201.7" y1="329.6" x2="219.6" y2="321.9"/>
			<path class="st13" d="M226,365.4c26-15,18.5-46.7,18.5-46.7"/>
			<path class="st14" d="M174.6,319c0,0,44.2-23,87.5-5.9s62.9,55.8,62.9,55.8s19.2,3.1,39.5,5l-14.3,34.8
				c-16-12.6-30.3-24.5-30.3-24.5s-42.7,15.9-85.9-1.2s-59.8-64.1-59.8-64.1 M291.6,330.1c-2.8-6,11-11.9,0.5-15.4
				c-10.4-3.4-46.3-6.3-46.3-6.3C277.5,316.5,291.6,330.1,291.6,330.1z M223.4,377.9c0,0,28.8,21.6,38.9,25.9
				c10.1,4.3,4.6-10.5,10.6-13.1C247.3,390.7,223.4,377.9,223.4,377.9z"/>
			<line class="st15" x1="332.8" y1="377.8" x2="354.4" y2="380.2"/>
			<line class="st15" x1="330.6" y1="383.5" x2="347.7" y2="397.2"/>
			<path class="st15" d="M258.4,358.4l17.1,13.6c0,0,14.7-8.8,8.9-22.6l-21.5-2.4"/>
		</g>
	</g>
</g>
</svg>
