<?xml version="1.0" encoding="utf-8"?>
<!-- Generator: Adobe Illustrator 25.2.1, SVG Export Plug-In . SVG Version: 6.00 Build 0)  -->
<svg version="1.1" xmlns="http://www.w3.org/2000/svg" xmlns:xlink="http://www.w3.org/1999/xlink" x="0px" y="0px"
	 viewBox="0 0 595.3 595.3" style="enable-background:new 0 0 595.3 595.3;" xml:space="preserve">
<style type="text/css">
	.st0{display:none;}
	.st1{display:inline;fill:none;stroke:#222221;stroke-width:7;stroke-miterlimit:10;}
	.st2{display:inline;fill-rule:evenodd;clip-rule:evenodd;}
	.st3{display:inline;}
	
		.st4{fill-rule:evenodd;clip-rule:evenodd;fill:none;stroke:#000000;stroke-width:7;stroke-linecap:round;stroke-linejoin:round;stroke-miterlimit:10;}
	.st5{fill-rule:evenodd;clip-rule:evenodd;}
	.st6{fill:#5A287F;}
	.st7{fill:#5A287F;stroke:#5A287F;stroke-miterlimit:10;}
	.st8{fill:#5A287F;stroke:#5A287F;stroke-width:2;stroke-miterlimit:10;}
	.st9{fill:#FFFFFF;}
	.st10{fill:#FFFFFF;stroke:#FFFFFF;stroke-width:12;stroke-miterlimit:10;}
	.st11{fill:#FFFFFF;stroke:#FFFFFF;stroke-width:11;stroke-miterlimit:10;}
	.st12{fill:none;stroke:#5A287F;stroke-width:4;stroke-miterlimit:10;}
	.st13{fill:none;stroke:#5A287F;stroke-width:4;stroke-linecap:round;stroke-miterlimit:10;}
	.st14{fill:none;stroke:#5A287F;stroke-width:6;stroke-linejoin:round;stroke-miterlimit:10;}
	.st15{fill:none;stroke:#5A287F;stroke-width:4;stroke-linecap:round;stroke-linejoin:round;stroke-miterlimit:10;}
	.st16{fill:none;stroke:#FFFFFF;stroke-width:3;stroke-linecap:round;stroke-miterlimit:10;}
	.st17{fill:none;stroke:#FFFFFF;stroke-width:3;stroke-linecap:round;stroke-linejoin:round;stroke-miterlimit:10;}
	.st18{fill:none;stroke:#FFFFFF;stroke-width:2;stroke-linecap:round;stroke-linejoin:round;stroke-miterlimit:10;}
	.st19{fill:none;stroke:#FFFFFF;stroke-linecap:round;stroke-linejoin:round;stroke-miterlimit:10;}
	.st20{fill:none;stroke:#5A287F;stroke-width:5;stroke-miterlimit:10;}
	.st21{fill:none;stroke:#FFFFFF;stroke-width:4;stroke-linecap:round;stroke-linejoin:round;stroke-miterlimit:10;}
	.st22{fill:none;stroke:#5A287F;stroke-width:7;stroke-miterlimit:10;}
	.st23{fill:none;stroke:#FFFFFF;stroke-width:4;stroke-linecap:round;stroke-miterlimit:10;}
	.st24{fill:#5A287F;stroke:#5A287F;stroke-width:3;stroke-miterlimit:10;}
	.st25{fill:#5A287F;stroke:#5A287F;stroke-width:0.75;stroke-miterlimit:10;}
	.st26{fill:none;stroke:#FFFFFF;stroke-width:5;stroke-linecap:round;stroke-linejoin:round;stroke-miterlimit:10;}
	.st27{fill:none;stroke:#5A287F;stroke-width:3;stroke-linecap:round;stroke-linejoin:round;stroke-miterlimit:10;}
	.st28{fill:#FFFFFF;stroke:#FFFFFF;stroke-width:10;stroke-miterlimit:10;}
	.st29{fill:#5A287F;stroke:#FFFFFF;stroke-width:2;stroke-miterlimit:10;}
	.st30{fill:#5A287F;stroke:#FFFFFF;stroke-miterlimit:10;}
	.st31{fill:#FFFFFF;stroke:#5A287F;stroke-width:5;stroke-miterlimit:10;}
	.st32{fill:none;stroke:#5A287F;stroke-width:5;stroke-linecap:round;stroke-linejoin:round;stroke-miterlimit:10;}
	.st33{fill:none;stroke:#5A287F;stroke-width:6;stroke-linecap:round;stroke-linejoin:round;stroke-miterlimit:10;}
	.st34{fill:#FFFFFF;stroke:#5A287F;stroke-width:5;stroke-linecap:round;stroke-linejoin:round;stroke-miterlimit:10;}
	.st35{fill:#5A287F;stroke:#5A287F;stroke-width:3;stroke-linecap:round;stroke-linejoin:round;stroke-miterlimit:10;}
	.st36{fill:#FFFFFF;stroke:#5A287F;stroke-width:6;stroke-miterlimit:10;}
	.st37{fill:#FFFFFF;stroke:#5A287F;stroke-width:6;stroke-linecap:round;stroke-linejoin:round;stroke-miterlimit:10;}
	.st38{fill:#FFFFFF;stroke:#5A287F;stroke-width:4;stroke-linecap:round;stroke-linejoin:round;stroke-miterlimit:10;}
	.st39{fill:none;stroke:#5A287F;stroke-width:7;stroke-linecap:round;stroke-linejoin:round;stroke-miterlimit:10;}
	.st40{fill:#5A287F;stroke:#FFFFFF;stroke-width:3;stroke-miterlimit:10;}
	.st41{fill:#5A287F;stroke:#5A287F;stroke-width:4;stroke-linecap:round;stroke-linejoin:round;stroke-miterlimit:10;}
	.st42{fill:none;}
</style>
<g id="Layer_3" class="st0">
</g>
<g id="icone_sport" class="st0">
</g>
<g id="base_immagini">
</g>
<g id="ICONE_CAUSE">
	<g>
		<circle class="st22" cx="297.6" cy="297.6" r="146.2"/>
		<path class="st22" d="M420.2,312.1c-4.1,24.8-27.5,41.6-52.3,37.6c-4.1-0.7-8-1.9-11.6-3.5c-3.6,21.2-23.7,35.6-45,32.1
			c-11.5-1.9-20.9-8.5-26.7-17.6c-6.3,8.6-17.1,13.5-28.4,11.6c-12-2-21-10.9-23.7-22c-5.3,0.9-10.9,1-16.5,0.1
			c-27.1-4.4-45.4-30-40.9-57c4.4-27,30-45.4,57-40.9c1.1,0.2,2.2,0.4,3.3,0.7c9.4-24.7,35.1-40.2,62.2-35.8
			c13.1,2.1,24.3,8.6,32.6,17.7c5.9-3.9,13.2-5.6,20.6-4.4c14.3,2.3,24.4,14.7,24.4,28.7c2.4,0,4.9,0.2,7.4,0.6
			C407.5,263.9,424.3,287.3,420.2,312.1z"/>
		<g>
			<path class="st6" d="M244.8,296.3c0-11.6,8.5-20.1,20.6-20.1c9.9,0,17.5,5.8,19.8,14.3h-6.4c-2.1-5.3-7-8.8-13.4-8.8
				c-8.6,0-14.5,6.2-14.5,14.6c0,8.4,5.9,14.6,14.5,14.6c6.5,0,11.4-3.5,13.4-8.8h6.4c-2.4,8.5-10,14.3-19.8,14.3
				C253.3,316.4,244.8,307.9,244.8,296.3z"/>
			<path class="st6" d="M289.3,296.3c0-11.6,8.5-20.1,20.6-20.1c12.1,0,20.6,8.5,20.6,20.1c0,11.6-8.5,20.1-20.6,20.1
				C297.8,316.4,289.3,307.9,289.3,296.3z M324.4,296.3c0-8.4-5.9-14.6-14.5-14.6s-14.5,6.2-14.5,14.6c0,8.4,5.9,14.6,14.5,14.6
				S324.4,304.7,324.4,296.3z"/>
			<path class="st6" d="M334.8,318.2l8.6-8.4c1.8-1.7,2.8-3.3,2.8-5.1c0-2.3-1.3-3.9-3.6-3.9c-2.3,0-3.7,1.5-3.7,4v0.6h-4.1V305
				c0-4.9,3-8.1,7.8-8.1s7.9,3.3,7.9,7.9c0,3.1-1.5,5.3-4.1,7.6l-5.9,5.6h9.7v3.8h-15.4V318.2z"/>
		</g>
		<path class="st15" d="M198.7,274.6c6.3-5.9,14.8-9.6,24.1-9.6"/>
		<path class="st15" d="M209.6,335.1c-12.8-5.2-21.9-17.8-21.9-32.5c0-3.4,0.5-6.7,1.4-9.8"/>
		<path class="st15" d="M249.9,250.1c7.8-13.7,22.5-23,39.4-23c1,0,2,0,3,0.1"/>
		<path class="st15" d="M261.3,362c-9.7,0-17.6-7.9-17.6-17.6"/>
		<path class="st15" d="M334.8,243.1c3.3-2.6,7.5-4.1,12-4.1c5.4,0,10.3,2.2,13.8,5.7"/>
		<path class="st15" d="M326.6,368.4c-2.5,0.8-5.1,1.2-7.8,1.2c-11,0-20.4-6.7-24.5-16.2"/>
		<path class="st15" d="M399.8,330.8c-6.1,5.4-14.1,8.7-22.8,8.7c-6.1,0-11.8-1.6-16.8-4.4"/>
	</g>
</g>
</svg>
