<?xml version="1.0" encoding="utf-8"?>
<!-- Generator: Adobe Illustrator 25.2.1, SVG Export Plug-In . SVG Version: 6.00 Build 0)  -->
<svg version="1.1" xmlns="http://www.w3.org/2000/svg" xmlns:xlink="http://www.w3.org/1999/xlink" x="0px" y="0px"
	 viewBox="0 0 595.3 595.3" style="enable-background:new 0 0 595.3 595.3;" xml:space="preserve">
<style type="text/css">
	.st0{display:none;}
	.st1{display:inline;fill:none;stroke:#222221;stroke-width:7;stroke-miterlimit:10;}
	.st2{display:inline;fill-rule:evenodd;clip-rule:evenodd;}
	.st3{display:inline;}
	
		.st4{fill-rule:evenodd;clip-rule:evenodd;fill:none;stroke:#000000;stroke-width:7;stroke-linecap:round;stroke-linejoin:round;stroke-miterlimit:10;}
	.st5{fill-rule:evenodd;clip-rule:evenodd;}
	.st6{fill:#5A287F;}
	.st7{fill:#5A287F;stroke:#5A287F;stroke-miterlimit:10;}
	.st8{fill:#5A287F;stroke:#5A287F;stroke-width:2;stroke-miterlimit:10;}
	.st9{fill:#FFFFFF;}
	.st10{fill:#FFFFFF;stroke:#FFFFFF;stroke-width:12;stroke-miterlimit:10;}
	.st11{fill:#FFFFFF;stroke:#FFFFFF;stroke-width:11;stroke-miterlimit:10;}
	.st12{fill:none;stroke:#5A287F;stroke-width:4;stroke-miterlimit:10;}
	.st13{fill:none;stroke:#5A287F;stroke-width:4;stroke-linecap:round;stroke-miterlimit:10;}
	.st14{fill:none;stroke:#5A287F;stroke-width:6;stroke-linejoin:round;stroke-miterlimit:10;}
	.st15{fill:none;stroke:#5A287F;stroke-width:4;stroke-linecap:round;stroke-linejoin:round;stroke-miterlimit:10;}
	.st16{fill:none;stroke:#FFFFFF;stroke-width:3;stroke-linecap:round;stroke-miterlimit:10;}
	.st17{fill:none;stroke:#FFFFFF;stroke-width:3;stroke-linecap:round;stroke-linejoin:round;stroke-miterlimit:10;}
	.st18{fill:none;stroke:#FFFFFF;stroke-width:2;stroke-linecap:round;stroke-linejoin:round;stroke-miterlimit:10;}
	.st19{fill:none;stroke:#FFFFFF;stroke-linecap:round;stroke-linejoin:round;stroke-miterlimit:10;}
	.st20{fill:none;stroke:#5A287F;stroke-width:5;stroke-miterlimit:10;}
	.st21{fill:none;stroke:#FFFFFF;stroke-width:4;stroke-linecap:round;stroke-linejoin:round;stroke-miterlimit:10;}
	.st22{fill:none;stroke:#5A287F;stroke-width:7;stroke-miterlimit:10;}
	.st23{fill:none;stroke:#FFFFFF;stroke-width:4;stroke-linecap:round;stroke-miterlimit:10;}
	.st24{fill:#5A287F;stroke:#5A287F;stroke-width:3;stroke-miterlimit:10;}
	.st25{fill:#5A287F;stroke:#5A287F;stroke-width:0.75;stroke-miterlimit:10;}
	.st26{fill:none;stroke:#FFFFFF;stroke-width:5;stroke-linecap:round;stroke-linejoin:round;stroke-miterlimit:10;}
	.st27{fill:none;stroke:#5A287F;stroke-width:3;stroke-linecap:round;stroke-linejoin:round;stroke-miterlimit:10;}
	.st28{fill:#FFFFFF;stroke:#FFFFFF;stroke-width:10;stroke-miterlimit:10;}
	.st29{fill:#5A287F;stroke:#FFFFFF;stroke-width:2;stroke-miterlimit:10;}
	.st30{fill:#5A287F;stroke:#FFFFFF;stroke-miterlimit:10;}
	.st31{fill:#FFFFFF;stroke:#5A287F;stroke-width:5;stroke-miterlimit:10;}
	.st32{fill:none;stroke:#5A287F;stroke-width:5;stroke-linecap:round;stroke-linejoin:round;stroke-miterlimit:10;}
	.st33{fill:none;stroke:#5A287F;stroke-width:6;stroke-linecap:round;stroke-linejoin:round;stroke-miterlimit:10;}
	.st34{fill:#FFFFFF;stroke:#5A287F;stroke-width:5;stroke-linecap:round;stroke-linejoin:round;stroke-miterlimit:10;}
	.st35{fill:#5A287F;stroke:#5A287F;stroke-width:3;stroke-linecap:round;stroke-linejoin:round;stroke-miterlimit:10;}
	.st36{fill:#FFFFFF;stroke:#5A287F;stroke-width:6;stroke-miterlimit:10;}
	.st37{fill:#FFFFFF;stroke:#5A287F;stroke-width:6;stroke-linecap:round;stroke-linejoin:round;stroke-miterlimit:10;}
	.st38{fill:#FFFFFF;stroke:#5A287F;stroke-width:4;stroke-linecap:round;stroke-linejoin:round;stroke-miterlimit:10;}
	.st39{fill:none;stroke:#5A287F;stroke-width:7;stroke-linecap:round;stroke-linejoin:round;stroke-miterlimit:10;}
	.st40{fill:#5A287F;stroke:#FFFFFF;stroke-width:3;stroke-miterlimit:10;}
	.st41{fill:#5A287F;stroke:#5A287F;stroke-width:4;stroke-linecap:round;stroke-linejoin:round;stroke-miterlimit:10;}
	.st42{fill:none;}
</style>
<g id="Layer_3" class="st0">
</g>
<g id="icone_sport" class="st0">
</g>
<g id="base_immagini">
</g>
<g id="ICONE_CAUSE">
	<g>
		<g>
			<path class="st6" d="M296.8,200.1c-0.6,0.1-1.3,0.2-1.9,0.4c-22.9,9.2-47,18.2-88.2,19.5c-3.9,0.1-6.9,3.3-6.9,7.2
				c0,8,0,52.8,0,60.2c0,40.7,12.4,69.7,30.9,89.8c18.4,20.1,42.4,31,65,37.4c1.3,0.4,2.6,0.4,3.9,0c22.6-6.4,46.6-17.3,65-37.4
				c18.4-20.1,30.9-49.1,30.9-89.8c0-7.3,0-52.2,0-60.2c0-3.9-3.1-7-6.9-7.2c-41.2-1.3-65.3-10.4-88.2-19.5
				C299.2,200.1,298,199.9,296.8,200.1z M297.6,207.3c22.9,9.1,50,18.1,90.4,20.4c0,14.4,0,50.9,0,58c0,40.9-12,67.8-29.3,86.7
				c-16.8,18.2-39,28.8-61.1,35.3c-22.1-6.5-44.3-17-61.1-35.3c-17.3-18.8-29.3-45.8-29.3-86.7c0-7.1,0-43.6,0-58
				C247.7,225.5,274.7,216.4,297.6,207.3L297.6,207.3z"/>
			<path class="st15" d="M301.1,395.4c0,0,14-2.9,28.6-12"/>
			<path class="st15" d="M376.7,240.6c0,0,1.5,36.2-0.5,48.7"/>
			<g id="Layer_1-2_2_">
				<path class="st6" d="M262.8,256.6c-13.7,10-19.7,23.3-16.7,40.1c1.9,10.2,7.6,18.2,16.3,24.1c0.3-1-0.2-1.6-0.4-2.2
					c-1.7-5-2-10.2-1.4-15.4c0.3-2.4,0.2-4.8,0.1-7.3c-0.9-14.7,4.9-26.4,16.3-35.5c0.6-0.5,1.2-0.9,1.8-1.4c0.7-0.6,0.8-1.2,0.2-2
					c-3.8-4.5-3.1-9.3,0.7-13.1c2.4-2.3,4.6-4.6,8-5.2c4.8-0.9,8.2,0.6,10.4,4.9c1.2,2.1,1.9,4.5,2.3,6.8c0.3,2-0.5,3.3-2.4,3.9
					c-2.9,0.9-5.6,2.5-7.8,4.7c-0.8,0.7-1.6,1.5-2.5,2c-1.2,0.6-2.5,1-3.8,0.4c-1.1-0.4-1.9-0.1-2.7,0.6c-2.7,2.3-4.4,5.3-5.6,8.6
					c-2.7,7.7-3.6,15.6-1.3,23.5c2.1,7.1,6.6,12.3,13.4,15.4c0.4,0.2,0.8,0.3,1.2,0.4c3,0.5,4.8,2.4,6.2,4.9
					c1.6,3.2,2.6,3.7,6.2,3.2c2.7-0.4,5.3-0.3,7.8,1c1.1,0.5,2.3,0.9,3.5,1.1c1.1,0.2,2-0.1,2.6-1.1c1.9-3.7,5.1-4.4,8.8-4.2
					c2.8,0.2,5.3-0.9,7.7-2.2c5.3-2.9,9.9-6.4,12.6-12c2.3-4.8,3.2-9.9,3.4-15.1c0-0.5,0-1,0.1-1.6c0.8,1.7,1.2,3.6,1.6,5.5
					c1.2,6.1,1.1,12.2,0.5,18.3c-0.9,8.9-2.1,17.7-4.5,26.4c-1.9,6.6-4.3,12.9-8.6,18.3c-3.1,3.9-6.8,6.9-11.9,7.7
					c-1.7,0.3-3.4,0.3-5.1,0.1c-2.8-0.4-4.5-2.3-5-5.3c-0.4-2.6,0-5.2,0.3-7.8c0.7-5.3,1.2-10.6-0.1-15.9c-0.1-0.2-0.1-0.5-0.2-0.7
					c-0.7-2.6-3.1-3.3-5.2-1.6c-1.5,1.3-2.3,3-2.7,4.8c-1.5,6.4-1.3,12.8,0.2,19.2c0.4,1.8,1.4,3.4,2.4,5c2.1,3.3,1.3,6.2-2.4,7.3
					c-8,2.5-15.5,1.3-22.1-3.9c-4.5-3.5-7.5-8.2-10.1-13.1c-2.6-4.9-4.8-9.9-6.9-15c-0.2-0.5-0.3-1.4-0.8-1.3
					c-0.7,0.1-0.4,1-0.5,1.5c-0.6,3.4,0.1,6.6,2,9.4c0.2,0.2,0.3,0.5,0.4,0.8c1.3,4.1,0.2,5.4-3.1,6.1c-6.6,1.5-12.7,0.9-17.5-4.5
					c-2.2-2.4-3.7-5.2-4.9-8.2c-2.6-6.8-3.7-13.9-3.9-21.1c-0.1-3.9-0.4-7.6-1.4-11.4c-1.3-4.5-1.3-9.3-1.1-14
					c0.4-15.1,10-28.4,24.1-33.7C261.9,256.9,262.4,256.8,262.8,256.6z"/>
				<path class="st6" d="M338.2,245.1c3.3,0.1,6.2,1.4,8.4,3.9c1.2,1.3,2.4,2.7,3.3,4.2c2.2,3.6,1.9,7.5-0.8,10.7
					c-1.7,1.9-3.7,3.4-5.9,4.6c-1.5,0.8-2.9,0.2-4.2-0.7c-1.1-0.8-1.9-1.8-2.8-2.8c-1.8-2.1-4-3.7-6.6-4.8c-2-0.9-2.7-2.2-2.1-4.3
					c0.8-3,2.2-5.7,4.2-8C333.4,245.8,335.6,245,338.2,245.1z"/>
				<path class="st6" d="M333.3,297.4c0,3.9-1.8,6.8-5.1,8.2c-2.1,0.9-3.9,0.5-5.6-1.1c-0.5-0.5-0.9-1-1.3-1.6
					c-1.9-3.1-3.3-6.5-4.3-10c-0.1-0.4-0.2-0.9-0.1-1.3c0.3-4.9,5.9-8.5,10.4-6.7c1.2,0.5,2.2,1.3,2.8,2.4
					C332,290.4,333,293.8,333.3,297.4z"/>
				<path class="st6" d="M284.2,293.9c0-1.4,0.3-2.8,0.8-4.1c1.2-3,3.1-5.7,5.5-7.9c3.5-3.3,9.3-1.7,10.8,2.9
					c0.3,0.9,0.5,1.8,0.7,2.8c0.3,1.3,0.1,2.6-0.7,3.7c-2,2.7-4,5.3-6.5,7.6c-3.9,3.5-8.3,2.3-10.1-2.7
					C284.3,295.6,284.2,294.7,284.2,293.9z"/>
				<path class="st6" d="M303.6,308.1c2.7,0.1,5.2,0.3,7.6,1c0.6,0.2,1.2,0.4,1.8,0.7c0.6,0.3,1.2,0.7,1,1.5
					c-0.1,0.8-0.8,1.4-1.5,1.4c-1.1,0.2-2.1,0.2-3.2,0.6c-1.2,0.4-2.3,1-3,2c-0.4,0.6-0.7,0.5-1-0.1c-1-1.9-2.7-2.7-4.6-3.3
					c-0.4-0.1-0.8-0.3-1.2-0.4c-0.7-0.3-1-1-1-1.7c0-0.7,0.6-1,1.2-1.2C300.9,308.1,302.4,308.1,303.6,308.1z"/>
				<path class="st6" d="M304.8,325.1c-1.9-0.2-3.8-1.1-5-2.9c-0.3-0.4-0.5-1-0.1-1.4c0.4-0.5,1-0.5,1.4-0.2
					c2.7,1.3,5.5,1.2,8.4,0.9c0.6-0.1,1.3-0.1,1.6,0.6c0.2,0.6-0.3,1-0.6,1.4C308.9,325,306.9,324.9,304.8,325.1z"/>
				<path class="st6" d="M344.4,364.8c-2.8-0.1-5.2,2.1-5.3,4.9s2.1,5.2,4.9,5.3c0.1,0,0.1,0,0.2,0c2.8,0,5.1-2.2,5.2-5.1
					C349.3,367.2,347.1,364.9,344.4,364.8L344.4,364.8z M346.5,372.1c-0.9,1-2.4,1.4-3.6,0.8c-1.7-0.8-2.4-2.8-1.6-4.4
					c0.5-1,1.3-1.7,2.4-1.9c1.6-0.2,3,0.5,3.6,1.9C347.9,369.9,347.6,371.2,346.5,372.1L346.5,372.1z"/>
				<path class="st6" d="M346.4,372.1L346.4,372.1L346.4,372.1L346.4,372.1z"/>
				<path class="st6" d="M346.5,372.1L346.5,372.1L346.5,372.1L346.5,372.1z"/>
				<path class="st6" d="M346.5,372.1L346.5,372.1L346.5,372.1L346.5,372.1z"/>
				<path class="st6" d="M345.3,369.6c0.7-0.7,0.4-1.6-0.6-1.7c-1.8-0.1-1.9-0.2-1.7,2.1c1-0.5,1.6-0.1,2.1,0.6
					C344.9,370.3,344.9,370,345.3,369.6z M344.3,369.5c-0.4,0-0.8,0.1-0.9-0.5c0-0.6,0.3-0.6,0.8-0.6s1,0,1,0.6
					C345.1,369.5,344.6,369.5,344.3,369.5L344.3,369.5z"/>
				<path class="st6" d="M345.2,370.9c0-0.1-0.1-0.1-0.1-0.2c-0.5-0.8-1.2-1.1-2.1-0.6c-0.2-2.3-0.1-2.2,1.7-2.1
					c1,0.1,1.3,0.9,0.6,1.7c-0.4,0.4-0.4,0.7-0.2,1.1C345.1,370.8,345.1,370.8,345.2,370.9c0.3,0.5,0.7,0.9,1.3,1.2
					c-0.3-0.5-0.5-0.9-0.9-1.4c-0.2-0.3-0.3-0.6,0.1-0.9c0.5-0.3,0.6-1,0.4-1.5c-0.3-0.6-0.8-0.7-1.4-0.7c-0.4,0-0.9,0-1.3,0
					c-0.6,0-0.9,0.2-0.9,0.8c0,1,0,1.9,0,2.8c0,0.3,0,0.8,0.5,0.8c0.5,0,0.4-0.4,0.4-0.7c0.1-0.4-0.2-0.9,0.3-1
					c0.5-0.1,0.8,0.4,1,0.7c0.4,0.7,0.9,1.2,1.7,1C345.9,371.8,345.5,371.4,345.2,370.9z"/>
				<path class="st6" d="M346.4,372.1c-0.6-0.3-1-0.7-1.3-1.2c0,0-0.1-0.1-0.1-0.1c0,0.1,0.1,0.1,0.1,0.2
					C345.5,371.4,345.9,371.8,346.4,372.1L346.4,372.1L346.4,372.1z"/>
				<path class="st6" d="M346.5,372.1L346.5,372.1L346.5,372.1L346.5,372.1L346.5,372.1z"/>
			</g>
		</g>
		<circle class="st22" cx="297.6" cy="297.6" r="146.2"/>
	</g>
</g>
</svg>
