<?xml version="1.0" encoding="utf-8"?>
<!-- Generator: Adobe Illustrator 25.2.1, SVG Export Plug-In . SVG Version: 6.00 Build 0)  -->
<svg version="1.1" xmlns="http://www.w3.org/2000/svg" xmlns:xlink="http://www.w3.org/1999/xlink" x="0px" y="0px"
	 viewBox="0 0 595.3 595.3" style="enable-background:new 0 0 595.3 595.3;" xml:space="preserve">
<style type="text/css">
	.st0{display:none;}
	.st1{display:inline;fill:none;stroke:#222221;stroke-width:7;stroke-miterlimit:10;}
	.st2{display:inline;fill-rule:evenodd;clip-rule:evenodd;}
	.st3{display:inline;}
	
		.st4{fill-rule:evenodd;clip-rule:evenodd;fill:none;stroke:#000000;stroke-width:7;stroke-linecap:round;stroke-linejoin:round;stroke-miterlimit:10;}
	.st5{fill-rule:evenodd;clip-rule:evenodd;}
	.st6{fill:#5A287F;}
	.st7{fill:#5A287F;stroke:#5A287F;stroke-miterlimit:10;}
	.st8{fill:#5A287F;stroke:#5A287F;stroke-width:2;stroke-miterlimit:10;}
	.st9{fill:#FFFFFF;}
	.st10{fill:#FFFFFF;stroke:#FFFFFF;stroke-width:12;stroke-miterlimit:10;}
	.st11{fill:#FFFFFF;stroke:#FFFFFF;stroke-width:11;stroke-miterlimit:10;}
	.st12{fill:none;stroke:#5A287F;stroke-width:4;stroke-miterlimit:10;}
	.st13{fill:none;stroke:#5A287F;stroke-width:4;stroke-linecap:round;stroke-miterlimit:10;}
	.st14{fill:none;stroke:#5A287F;stroke-width:6;stroke-linejoin:round;stroke-miterlimit:10;}
	.st15{fill:none;stroke:#5A287F;stroke-width:4;stroke-linecap:round;stroke-linejoin:round;stroke-miterlimit:10;}
	.st16{fill:none;stroke:#FFFFFF;stroke-width:3;stroke-linecap:round;stroke-miterlimit:10;}
	.st17{fill:none;stroke:#FFFFFF;stroke-width:3;stroke-linecap:round;stroke-linejoin:round;stroke-miterlimit:10;}
	.st18{fill:none;stroke:#FFFFFF;stroke-width:2;stroke-linecap:round;stroke-linejoin:round;stroke-miterlimit:10;}
	.st19{fill:none;stroke:#FFFFFF;stroke-linecap:round;stroke-linejoin:round;stroke-miterlimit:10;}
	.st20{fill:none;stroke:#5A287F;stroke-width:5;stroke-miterlimit:10;}
	.st21{fill:none;stroke:#FFFFFF;stroke-width:4;stroke-linecap:round;stroke-linejoin:round;stroke-miterlimit:10;}
	.st22{fill:none;stroke:#5A287F;stroke-width:7;stroke-miterlimit:10;}
	.st23{fill:none;stroke:#FFFFFF;stroke-width:4;stroke-linecap:round;stroke-miterlimit:10;}
	.st24{fill:#5A287F;stroke:#5A287F;stroke-width:3;stroke-miterlimit:10;}
	.st25{fill:#5A287F;stroke:#5A287F;stroke-width:0.75;stroke-miterlimit:10;}
	.st26{fill:none;stroke:#FFFFFF;stroke-width:5;stroke-linecap:round;stroke-linejoin:round;stroke-miterlimit:10;}
	.st27{fill:none;stroke:#5A287F;stroke-width:3;stroke-linecap:round;stroke-linejoin:round;stroke-miterlimit:10;}
	.st28{fill:#FFFFFF;stroke:#FFFFFF;stroke-width:10;stroke-miterlimit:10;}
	.st29{fill:#5A287F;stroke:#FFFFFF;stroke-width:2;stroke-miterlimit:10;}
	.st30{fill:#5A287F;stroke:#FFFFFF;stroke-miterlimit:10;}
	.st31{fill:#FFFFFF;stroke:#5A287F;stroke-width:5;stroke-miterlimit:10;}
	.st32{fill:none;stroke:#5A287F;stroke-width:5;stroke-linecap:round;stroke-linejoin:round;stroke-miterlimit:10;}
	.st33{fill:none;stroke:#5A287F;stroke-width:6;stroke-linecap:round;stroke-linejoin:round;stroke-miterlimit:10;}
	.st34{fill:#FFFFFF;stroke:#5A287F;stroke-width:5;stroke-linecap:round;stroke-linejoin:round;stroke-miterlimit:10;}
	.st35{fill:#5A287F;stroke:#5A287F;stroke-width:3;stroke-linecap:round;stroke-linejoin:round;stroke-miterlimit:10;}
	.st36{fill:#FFFFFF;stroke:#5A287F;stroke-width:6;stroke-miterlimit:10;}
	.st37{fill:#FFFFFF;stroke:#5A287F;stroke-width:6;stroke-linecap:round;stroke-linejoin:round;stroke-miterlimit:10;}
	.st38{fill:#FFFFFF;stroke:#5A287F;stroke-width:4;stroke-linecap:round;stroke-linejoin:round;stroke-miterlimit:10;}
	.st39{fill:none;stroke:#5A287F;stroke-width:7;stroke-linecap:round;stroke-linejoin:round;stroke-miterlimit:10;}
	.st40{fill:#5A287F;stroke:#FFFFFF;stroke-width:3;stroke-miterlimit:10;}
	.st41{fill:#5A287F;stroke:#5A287F;stroke-width:4;stroke-linecap:round;stroke-linejoin:round;stroke-miterlimit:10;}
	.st42{fill:none;}
</style>
<g id="Layer_3" class="st0">
</g>
<g id="icone_sport" class="st0">
</g>
<g id="base_immagini">
</g>
<g id="ICONE_CAUSE">
	<g>
		<circle class="st22" cx="297.6" cy="297.6" r="146.2"/>
		<circle class="st30" cx="230.2" cy="244" r="26.7"/>
		<path class="st6" d="M271.5,358.2c-3,7-8.8,9.2-10.4,9.7c-0.9,1.5-2.6,2.5-4.5,2.5h-53c-1.8,0-3.5-0.9-4.4-2.4
			c0,0-7.4-1.6-10.9-9.8c-3.4-7.8,9.6-54.6,10.8-58.9c0,0,0,0,0,0c3.3-14.1,15.9-24.6,31-24.6c16.4,0,29.8,12.4,31.6,28.3
			C264.9,315,274.4,351.4,271.5,358.2z"/>
		<path class="st21" d="M210.8,245c0-11.3,9.1-20.4,20.4-20.4"/>
		<path class="st40" d="M215.2,378L215.2,378c-6.1,0-11.1-5-11.1-11.1v-57.3c0-6.1,5-11.1,11.1-11.1h0c6.1,0,11.1,5,11.1,11.1v57.3
			C226.3,373,221.4,378,215.2,378z"/>
		<path class="st40" d="M243.3,378L243.3,378c-6.1,0-11.1-5-11.1-11.1v-57.3c0-6.1,5-11.1,11.1-11.1h0c6.1,0,11.1,5,11.1,11.1v57.3
			C254.4,373,249.4,378,243.3,378z"/>
		<path class="st21" d="M208.9,292.9c2.9-4.9,7.6-9.2,14.9-10.7"/>
		<polygon class="st15" points="290.1,370.3 308.6,332.1 396.7,332.1 378.2,370.3 		"/>
		<polyline class="st41" points="396.7,332.1 407.6,370.3 378.2,370.3 		"/>
		<g>
			<path class="st6" d="M316.6,341.9h2.8l-3.6,7.4h9.8l3.6-7.4h2.7l-8.5,17.6h-2.7l3.7-7.7h-9.8l-3.7,7.7h-2.8L316.6,341.9z"/>
			<path class="st6" d="M335.6,341.9h13l-1.2,2.5h-10.2l-2.3,4.9h8.7l-1.2,2.5h-8.7l-2.5,5.2h10.2l-1.2,2.5h-13L335.6,341.9z"/>
			<path class="st6" d="M351.6,341.9h2.7l-7.3,15.1h9.9l-1.2,2.5h-12.6L351.6,341.9z"/>
			<path class="st6" d="M366.7,341.9h7c3.9,0,5.1,1.9,4.2,5.1c-1.1,3.9-4.6,6.5-9.1,6.5h-5l-2.9,6h-2.8L366.7,341.9z M370,350.9
				c2.7,0,4.6-1.7,5.2-3.9c0.5-1.7-0.1-2.7-2.4-2.7h-4.5l-3.1,6.6H370z"/>
		</g>
		<line class="st17" x1="395.8" y1="341.9" x2="384.3" y2="366.8"/>
	</g>
</g>
</svg>
