<?xml version="1.0" encoding="utf-8"?>
<!-- Generator: Adobe Illustrator 25.2.1, SVG Export Plug-In . SVG Version: 6.00 Build 0)  -->
<svg version="1.1" xmlns="http://www.w3.org/2000/svg" xmlns:xlink="http://www.w3.org/1999/xlink" x="0px" y="0px"
	 viewBox="0 0 595.3 595.3" style="enable-background:new 0 0 595.3 595.3;" xml:space="preserve">
<style type="text/css">
	.st0{display:none;}
	.st1{display:inline;fill:none;stroke:#222221;stroke-width:7;stroke-miterlimit:10;}
	.st2{display:inline;fill-rule:evenodd;clip-rule:evenodd;}
	.st3{display:inline;}
	
		.st4{fill-rule:evenodd;clip-rule:evenodd;fill:none;stroke:#000000;stroke-width:7;stroke-linecap:round;stroke-linejoin:round;stroke-miterlimit:10;}
	.st5{fill-rule:evenodd;clip-rule:evenodd;}
	.st6{fill:#5A287F;}
	.st7{fill:#5A287F;stroke:#5A287F;stroke-miterlimit:10;}
	.st8{fill:#5A287F;stroke:#5A287F;stroke-width:2;stroke-miterlimit:10;}
	.st9{fill:#FFFFFF;}
	.st10{fill:#FFFFFF;stroke:#FFFFFF;stroke-width:12;stroke-miterlimit:10;}
	.st11{fill:#FFFFFF;stroke:#FFFFFF;stroke-width:11;stroke-miterlimit:10;}
	.st12{fill:none;stroke:#5A287F;stroke-width:4;stroke-miterlimit:10;}
	.st13{fill:none;stroke:#5A287F;stroke-width:4;stroke-linecap:round;stroke-miterlimit:10;}
	.st14{fill:none;stroke:#5A287F;stroke-width:6;stroke-linejoin:round;stroke-miterlimit:10;}
	.st15{fill:none;stroke:#5A287F;stroke-width:4;stroke-linecap:round;stroke-linejoin:round;stroke-miterlimit:10;}
	.st16{fill:none;stroke:#FFFFFF;stroke-width:3;stroke-linecap:round;stroke-miterlimit:10;}
	.st17{fill:none;stroke:#FFFFFF;stroke-width:3;stroke-linecap:round;stroke-linejoin:round;stroke-miterlimit:10;}
	.st18{fill:none;stroke:#FFFFFF;stroke-width:2;stroke-linecap:round;stroke-linejoin:round;stroke-miterlimit:10;}
	.st19{fill:none;stroke:#FFFFFF;stroke-linecap:round;stroke-linejoin:round;stroke-miterlimit:10;}
	.st20{fill:none;stroke:#5A287F;stroke-width:5;stroke-miterlimit:10;}
	.st21{fill:none;stroke:#FFFFFF;stroke-width:4;stroke-linecap:round;stroke-linejoin:round;stroke-miterlimit:10;}
	.st22{fill:none;stroke:#5A287F;stroke-width:7;stroke-miterlimit:10;}
	.st23{fill:none;stroke:#FFFFFF;stroke-width:4;stroke-linecap:round;stroke-miterlimit:10;}
	.st24{fill:#5A287F;stroke:#5A287F;stroke-width:3;stroke-miterlimit:10;}
	.st25{fill:#5A287F;stroke:#5A287F;stroke-width:0.75;stroke-miterlimit:10;}
	.st26{fill:none;stroke:#FFFFFF;stroke-width:5;stroke-linecap:round;stroke-linejoin:round;stroke-miterlimit:10;}
	.st27{fill:none;stroke:#5A287F;stroke-width:3;stroke-linecap:round;stroke-linejoin:round;stroke-miterlimit:10;}
	.st28{fill:#FFFFFF;stroke:#FFFFFF;stroke-width:10;stroke-miterlimit:10;}
	.st29{fill:#5A287F;stroke:#FFFFFF;stroke-width:2;stroke-miterlimit:10;}
	.st30{fill:#5A287F;stroke:#FFFFFF;stroke-miterlimit:10;}
	.st31{fill:#FFFFFF;stroke:#5A287F;stroke-width:5;stroke-miterlimit:10;}
	.st32{fill:none;stroke:#5A287F;stroke-width:5;stroke-linecap:round;stroke-linejoin:round;stroke-miterlimit:10;}
	.st33{fill:none;stroke:#5A287F;stroke-width:6;stroke-linecap:round;stroke-linejoin:round;stroke-miterlimit:10;}
	.st34{fill:#FFFFFF;stroke:#5A287F;stroke-width:5;stroke-linecap:round;stroke-linejoin:round;stroke-miterlimit:10;}
	.st35{fill:#5A287F;stroke:#5A287F;stroke-width:3;stroke-linecap:round;stroke-linejoin:round;stroke-miterlimit:10;}
	.st36{fill:#FFFFFF;stroke:#5A287F;stroke-width:6;stroke-miterlimit:10;}
	.st37{fill:#FFFFFF;stroke:#5A287F;stroke-width:6;stroke-linecap:round;stroke-linejoin:round;stroke-miterlimit:10;}
	.st38{fill:#FFFFFF;stroke:#5A287F;stroke-width:4;stroke-linecap:round;stroke-linejoin:round;stroke-miterlimit:10;}
	.st39{fill:none;stroke:#5A287F;stroke-width:7;stroke-linecap:round;stroke-linejoin:round;stroke-miterlimit:10;}
	.st40{fill:#5A287F;stroke:#FFFFFF;stroke-width:3;stroke-miterlimit:10;}
	.st41{fill:#5A287F;stroke:#5A287F;stroke-width:4;stroke-linecap:round;stroke-linejoin:round;stroke-miterlimit:10;}
	.st42{fill:none;}
</style>
<g id="Layer_3" class="st0">
</g>
<g id="icone_sport" class="st0">
</g>
<g id="base_immagini">
</g>
<g id="ICONE_CAUSE">
	<g>
		<g>
			<path class="st24" d="M415.3,339.5c-1.1-2.3-2.5-4.6-4.2-6.4c-4.2-4.6-8.8-8.9-13-13.5c-3.1-3.4-6.3-7-8.8-10.9
				c-3-4.5-3.9-9.9-4.8-15.2c-2.3-13-3.2-26.1-3.5-39.3c-0.1-3.7-1.1-6.9-3.8-9.2c-3-2.6-6.3-5-9.8-6.9c-6.6-3.6-13.8-5.7-21.1-7
				c-7.7-1.4-15.5-2.7-23.3-3.5c-7-0.7-14.1-0.8-21.2-0.7c-15.8,0.1-31.3,1.9-46.5,6.5c-6.9,2.1-13.6,4.8-19.4,9.4
				c-3.8,3-5.9,6.8-6.4,11.7c-1,8.8-2.2,17.5-3.4,26.8c-1.9-1.4-3.2-2.5-4.6-3.5c-1-0.7-1.3-1.3-1-2.7c2.3-10.2-3.9-19.1-14.2-20.5
				c-3.7-0.5-7.6-0.4-11.3-0.5c-5.3-0.1-10.6-0.5-15.7-2.1c-1.6-0.5-2.1,0-1.9,1.7c1,7.2,2.7,14.2,6.4,20.5
				c3.6,6.2,8.7,10.5,15.7,12c7.4,1.6,13.7-0.4,18.6-6.3c0.3-0.4,0.6-0.7,1.1-1.2c1.8,1.4,3.6,2.7,5.2,4.2c0.5,0.4,0.9,1.4,0.7,2.1
				c-0.6,3.2-1.4,6.5-2,9.7c-2.2,11.1-7.6,20.3-16.1,27.7c-2.9,2.5-5.7,5.1-8.4,7.9c-1.7,1.9-3.4,3.9-4.5,6.2c-1.9,4,0,7.1,4.4,7.5
				c2.3,0.2,4.6,0.2,6.8-0.1c6.1-1,12.2-2.2,18.3-3.2c7-1.2,14.1-2.6,21.2-3.3c6.5-0.6,8.8,1.4,11,7.5c0.4,1,0.7,2.1,0.9,3.1
				c0.7,3.3,1.3,6.7,2.2,10c1,3.7,1.8,7.5,3.4,11c2.3,5.2,6.7,6.7,12,4.4c1-0.4,2.2-0.9,3-1.6c4.6-3.5,9.2-7,13.6-10.7
				c5-4.2,9.8-8.7,14.8-12.9c1.4-1.1,3.2-2,5-2.3c3.2-0.6,6.5-0.5,9.7-0.8c10.6-1.1,21.2-2,31.5-4.8c3.7-1,7.1-1,10.6,0
				c6.9,2,13.7,4,20.6,6c7.1,2,14.2,3.9,21.6,3.2c2.7-0.3,5.4-1.1,7.9-2.3C415.9,345.7,416.8,342.8,415.3,339.5z M218.5,272.3
				c0,0.9-0.2,1.7-0.4,2.8c-0.1-0.1-0.2-0.1-0.3-0.2c-0.1,0.7-0.5,1.4-1.1,2.1c0.1,0.1,0.2,0.2,0.4,0.2c-3,4.2-6.8,6.6-11.7,7
				c-6.8,0.6-12.4-2-16.8-7.1c-5.5-6.4-7.5-14.2-8.9-22.5c2.3,0.4,4.3,0.9,6.3,1.1c5,0.3,10.1,0.5,15.1,0.7c1.9,0.1,3.8,0.2,5.7,0.5
				C214.4,258,219,264.2,218.5,272.3z M234,248.1c2.5-3.5,5.9-5.7,9.7-7.6c9.3-4.8,19.2-7.1,29.4-8.9c10.2-1.8,20.5-2.5,30.9-2.6
				c6.6-0.1,13.3,0.4,19.9,0.9c12.1,0.8,24,3.1,35.4,7.2c4.1,1.5,8.1,3.6,11.9,5.8c2,1.2,3.8,3,5.3,4.8c3,3.7,2.9,7.6,0,11.4
				c-2.5,3.2-5.8,5.4-9.4,7.2c-8.8,4.5-18.2,6.9-27.8,8.6c-11.3,2-22.7,2.8-35.1,2.9c-16-0.2-32.9-1.7-49.2-6.8
				c-5.9-1.8-11.6-4.1-16.5-7.9c-1.7-1.3-3.2-2.8-4.5-4.4C231.4,255.2,231.5,251.6,234,248.1z M411.1,345.4c-2.6,1-5.5,1.7-8.3,1.9
				c-6.3,0.3-12.4-1.3-18.4-3c-7.1-2-14.1-4.1-21.1-6.1c-4-1.1-7.9-0.9-12,0c-9.3,1.9-18.7,3.1-28.1,4.5c-4.2,0.6-8.4,0.7-12.6,1.1
				c-1.2,0.1-2.3,0.5-3.5,0.8c0,0,0,0,0,0c-0.1,0-0.2,0.1-0.3,0.1c-1,0.4-1.9,0.9-2.9,1.4l-0.2,0.2c-8.4,8.3-16.9,16.6-26.7,23.3
				c-1.4,0.9-2.9,1.7-4.5,2.2c-3.3,1.2-5.9,0.4-7.5-2.7c-1.4-2.6-2.3-5.4-3.1-8.2c-1.4-5.2-2.4-10.5-3.7-15.8c-0.3-1.4-1-2.7-1.6-4
				c-2-3.9-5.1-5.9-9.5-6c-7.1-0.1-14,1.5-20.9,2.8c-7.3,1.4-14.5,2.7-21.8,3.9c-2.1,0.3-4.3,0.1-6.5-0.1c-1.9-0.2-2.7-1.4-2-3.2
				c0.7-1.7,1.6-3.4,2.8-4.7c3-3.2,6.2-6.2,9.4-9.2c4.8-4.5,9.3-9.2,12.4-15.1c0-0.1,0.1-0.2,0.2-0.3c0.7-1.6,1.4-3.2,2.2-4.8
				c0.6-1.9,1.1-3.8,1.7-5.7c0.2-1.2,0.4-2.4,0.8-3.4c0.1-0.2,0.1-0.3,0.2-0.5c2.7-11.6,4.2-23.3,5.7-35c2.2,2,4.3,3.8,6.3,5.8
				c0.1,0.1,0.3,0.3,0.4,0.6c0.3,0.2,0.5,0.3,0.8,0.5c0.2,0.2,0.4,0.3,0.7,0.5c0-0.1,0-0.2,0.1-0.2c1.5,0.8,2.9,1.5,4.4,2.3
				c1.5,0.6,3.1,1.2,4.4,2c9.5,3.7,19.3,5.8,29.4,7.3v0.1c0.4,0,0.8,0.1,1.1,0.2v-0.2c1.8,0.2,3.4,0.4,4.9,0.5v0.3
				c0.6,0,1.2,0,2,0.1c9.8,0.2,19.4,0.5,29.2,0.7c0.5-0.1,1-0.1,1.4,0c0.2-0.3,0.5-0.5,1-0.5c1.4,0,2.9-0.1,4.7-0.2c0,0,0,0.1,0,0.1
				c0.3,0,0.5-0.1,0.8-0.1c0,0,0,0,0,0c5.5-0.7,10.5-1.3,15.6-2c0.1-0.1,0.2-0.2,0.4-0.2c0.9-0.6,2-0.7,3-0.4
				c1.9-0.4,3.7-0.8,5.7-1.2c0.6-0.2,1.3-0.4,1.9-0.4c0.3-0.3,0.7-0.4,1.4-0.5c1.3-0.1,2.5-0.6,4-1c0,0.1,0,0.1,0,0.2
				c0.5-0.2,1.1-0.4,1.7-0.5c0.3-0.3,0.7-0.5,1.3-0.7c6.2-2,12.1-4.5,17.2-8.6c1.4-1.1,2.6-2.4,4.1-3.8c0.1,1.3,0.1,2.4,0.2,3.5
				c0.8,8.9,1.4,17.9,2.7,26.7c0.7,5.2,2.1,10.4,3.7,15.4c1.7,5.3,5.4,9.4,9.2,13.4c4.9,5.2,10,10.2,14.9,15.5
				c1.4,1.5,2.6,3.3,3.5,5.2C414.4,342.5,413.8,344.4,411.1,345.4z"/>
			<path class="st25" d="M411.1,345.4c-2.6,1-5.5,1.7-8.3,1.9c-6.3,0.3-12.4-1.3-18.4-3c-7.1-2-14.1-4.1-21.1-6.1
				c-4-1.1-7.9-0.9-12,0c-9.3,1.9-18.7,3.1-28.1,4.5c-4.2,0.6-8.4,0.7-12.6,1.1c-1.2,0.1-2.3,0.5-3.5,0.8c0,0,0,0,0,0
				c-0.1,0-0.2,0.1-0.3,0.1c-1,0.4-1.9,0.9-2.9,1.4l-0.2,0.2c-8.4,8.3-16.9,16.6-26.7,23.3c-1.4,0.9-2.9,1.7-4.5,2.2
				c-3.3,1.2-5.9,0.4-7.5-2.7c-1.4-2.6-2.3-5.4-3.1-8.2c-1.4-5.2-2.4-10.5-3.7-15.8c-0.3-1.4-1-2.7-1.6-4c-2-3.9-5.1-5.9-9.5-6
				c-7.1-0.1-14,1.5-20.9,2.8c-7.3,1.4-14.5,2.7-21.8,3.9c-2.1,0.3-4.3,0.1-6.5-0.1c-1.9-0.2-2.7-1.4-2-3.2c0.7-1.7,1.6-3.4,2.8-4.7
				c3-3.2,6.2-6.2,9.4-9.2c4.8-4.5,9.3-9.2,12.4-15.1c0-0.1,0.1-0.2,0.2-0.3c0.7-1.6,1.4-3.2,2.2-4.8c0.6-1.9,1.1-3.8,1.7-5.7
				c0.2-1.2,0.4-2.4,0.8-3.4c0.1-0.2,0.1-0.3,0.2-0.5c2.7-11.6,4.2-23.3,5.7-35c2.2,2,4.3,3.8,6.3,5.8c0.1,0.1,0.3,0.3,0.4,0.6
				c0.3,0.2,0.5,0.3,0.8,0.5c0.2,0.2,0.4,0.3,0.7,0.5c0-0.1,0-0.2,0.1-0.2c1.5,0.8,2.9,1.5,4.4,2.3c1.5,0.6,3.1,1.2,4.4,2
				c9.5,3.7,19.3,5.8,29.4,7.3v0.1c0.4,0,0.8,0.1,1.1,0.2v-0.2c1.8,0.2,3.4,0.4,4.9,0.5v0.3c0.6,0,1.2,0,2,0.1
				c9.8,0.2,19.4,0.5,29.2,0.7c0.5-0.1,1-0.1,1.4,0c0.2-0.3,0.5-0.5,1-0.5c1.4,0,2.9-0.1,4.7-0.2c0,0,0,0.1,0,0.1
				c0.3,0,0.5-0.1,0.8-0.1c0,0,0,0,0,0c5.5-0.7,10.5-1.3,15.6-2c0.1-0.1,0.2-0.2,0.4-0.2c0.9-0.6,2-0.7,3-0.4
				c1.9-0.4,3.7-0.8,5.7-1.2c0.6-0.2,1.3-0.4,1.9-0.4c0.3-0.3,0.7-0.4,1.4-0.5c1.3-0.1,2.5-0.6,4-1c0,0.1,0,0.1,0,0.2
				c0.5-0.2,1.1-0.4,1.7-0.5c0.3-0.3,0.7-0.5,1.3-0.7c6.2-2,12.1-4.5,17.2-8.6c1.4-1.1,2.6-2.4,4.1-3.8c0.1,1.3,0.1,2.4,0.2,3.5
				c0.8,8.9,1.4,17.9,2.7,26.7c0.7,5.2,2.1,10.4,3.7,15.4c1.7,5.3,5.4,9.4,9.2,13.4c4.9,5.2,10,10.2,14.9,15.5
				c1.4,1.5,2.6,3.3,3.5,5.2C414.4,342.5,413.8,344.4,411.1,345.4z"/>
			<path class="st26" d="M230.6,317.7c-1.7,2.5-3.6,4.9-5.9,7"/>
			<path class="st26" d="M240.5,277.7c0,0,0.9,15.5-4.9,30.3"/>
			<path class="st26" d="M254.2,286c0,0,0.4,8.5-3,20.5"/>
			<path class="st26" d="M356.3,280.8c0,0,0,21.6,2.8,29.3c4.2,11.7,14.7,16,23.5,20.7"/>
			<path class="st26" d="M346.4,316.5c4,9.5,7.5,11,7.5,11"/>
			<path class="st26" d="M346,315.6c0.1,0.3,0.2,0.6,0.4,0.9"/>
			<path class="st26" d="M343.1,284.9c0,0-0.7,11,0.6,20.9"/>
			<path class="st26" d="M368.8,277.7c0,0,0.6,14.6,2.2,22.8c0.9,5,3.6,7.6,3.6,7.6"/>
			<path class="st26" d="M301.1,288.1c0,0,0.6,12.1,0,20.1c-0.6,8-1.6,15.3-3.2,19.4"/>
			<path class="st26" d="M287.5,319c0,0-1.9,16.9-10,25.6"/>
			<path class="st27" d="M277.6,241.2c8.2-1.2,17.7-1.9,27.8-1.9c30.2,0,54.7,6.1,54.7,13.7s-24.5,13.7-54.7,13.7
				c-30.2,0-54.7-6.1-54.7-13.7c0-3.9,6.5-7.4,17-9.9"/>
			<path class="st27" d="M314,259.2c-2.7,0.2-5.6,0.2-8.6,0.2c-17.3,0-31.4-2.9-31.4-6.5c0-3.6,14.1-6.5,31.4-6.5
				c17.3,0,31.4,2.9,31.4,6.5c0,1.4-2,2.6-5.5,3.7"/>
			<path class="st27" d="M212.5,273.7c0,0-9.1,9-16.9,2.5c-7.8-6.6-9.7-13.4-9.7-13.4"/>
		</g>
		<circle class="st22" cx="297.6" cy="297.6" r="146.2"/>
	</g>
</g>
</svg>
