<?xml version="1.0" encoding="utf-8"?>
<!-- Generator: Adobe Illustrator 25.2.1, SVG Export Plug-In . SVG Version: 6.00 Build 0)  -->
<svg version="1.1" xmlns="http://www.w3.org/2000/svg" xmlns:xlink="http://www.w3.org/1999/xlink" x="0px" y="0px"
	 viewBox="0 0 595.3 595.3" style="enable-background:new 0 0 595.3 595.3;" xml:space="preserve">
<style type="text/css">
	.st0{display:none;}
	.st1{display:inline;fill:none;stroke:#222221;stroke-width:7;stroke-miterlimit:10;}
	.st2{display:inline;fill-rule:evenodd;clip-rule:evenodd;}
	.st3{display:inline;}
	
		.st4{fill-rule:evenodd;clip-rule:evenodd;fill:none;stroke:#000000;stroke-width:7;stroke-linecap:round;stroke-linejoin:round;stroke-miterlimit:10;}
	.st5{fill-rule:evenodd;clip-rule:evenodd;}
	.st6{fill:#5A287F;}
	.st7{fill:#5A287F;stroke:#5A287F;stroke-miterlimit:10;}
	.st8{fill:#5A287F;stroke:#5A287F;stroke-width:2;stroke-miterlimit:10;}
	.st9{fill:#FFFFFF;}
	.st10{fill:#FFFFFF;stroke:#FFFFFF;stroke-width:12;stroke-miterlimit:10;}
	.st11{fill:#FFFFFF;stroke:#FFFFFF;stroke-width:11;stroke-miterlimit:10;}
	.st12{fill:none;stroke:#5A287F;stroke-width:4;stroke-miterlimit:10;}
	.st13{fill:none;stroke:#5A287F;stroke-width:4;stroke-linecap:round;stroke-miterlimit:10;}
	.st14{fill:none;stroke:#5A287F;stroke-width:6;stroke-linejoin:round;stroke-miterlimit:10;}
	.st15{fill:none;stroke:#5A287F;stroke-width:4;stroke-linecap:round;stroke-linejoin:round;stroke-miterlimit:10;}
	.st16{fill:none;stroke:#FFFFFF;stroke-width:3;stroke-linecap:round;stroke-miterlimit:10;}
	.st17{fill:none;stroke:#FFFFFF;stroke-width:3;stroke-linecap:round;stroke-linejoin:round;stroke-miterlimit:10;}
	.st18{fill:none;stroke:#FFFFFF;stroke-width:2;stroke-linecap:round;stroke-linejoin:round;stroke-miterlimit:10;}
	.st19{fill:none;stroke:#FFFFFF;stroke-linecap:round;stroke-linejoin:round;stroke-miterlimit:10;}
	.st20{fill:none;stroke:#5A287F;stroke-width:5;stroke-miterlimit:10;}
	.st21{fill:none;stroke:#FFFFFF;stroke-width:4;stroke-linecap:round;stroke-linejoin:round;stroke-miterlimit:10;}
	.st22{fill:none;stroke:#5A287F;stroke-width:7;stroke-miterlimit:10;}
	.st23{fill:none;stroke:#FFFFFF;stroke-width:4;stroke-linecap:round;stroke-miterlimit:10;}
	.st24{fill:#5A287F;stroke:#5A287F;stroke-width:3;stroke-miterlimit:10;}
	.st25{fill:#5A287F;stroke:#5A287F;stroke-width:0.75;stroke-miterlimit:10;}
	.st26{fill:none;stroke:#FFFFFF;stroke-width:5;stroke-linecap:round;stroke-linejoin:round;stroke-miterlimit:10;}
	.st27{fill:none;stroke:#5A287F;stroke-width:3;stroke-linecap:round;stroke-linejoin:round;stroke-miterlimit:10;}
	.st28{fill:#FFFFFF;stroke:#FFFFFF;stroke-width:10;stroke-miterlimit:10;}
	.st29{fill:#5A287F;stroke:#FFFFFF;stroke-width:2;stroke-miterlimit:10;}
	.st30{fill:#5A287F;stroke:#FFFFFF;stroke-miterlimit:10;}
	.st31{fill:#FFFFFF;stroke:#5A287F;stroke-width:5;stroke-miterlimit:10;}
	.st32{fill:none;stroke:#5A287F;stroke-width:5;stroke-linecap:round;stroke-linejoin:round;stroke-miterlimit:10;}
	.st33{fill:none;stroke:#5A287F;stroke-width:6;stroke-linecap:round;stroke-linejoin:round;stroke-miterlimit:10;}
	.st34{fill:#FFFFFF;stroke:#5A287F;stroke-width:5;stroke-linecap:round;stroke-linejoin:round;stroke-miterlimit:10;}
	.st35{fill:#5A287F;stroke:#5A287F;stroke-width:3;stroke-linecap:round;stroke-linejoin:round;stroke-miterlimit:10;}
	.st36{fill:#FFFFFF;stroke:#5A287F;stroke-width:6;stroke-miterlimit:10;}
	.st37{fill:#FFFFFF;stroke:#5A287F;stroke-width:6;stroke-linecap:round;stroke-linejoin:round;stroke-miterlimit:10;}
	.st38{fill:#FFFFFF;stroke:#5A287F;stroke-width:4;stroke-linecap:round;stroke-linejoin:round;stroke-miterlimit:10;}
	.st39{fill:none;stroke:#5A287F;stroke-width:7;stroke-linecap:round;stroke-linejoin:round;stroke-miterlimit:10;}
	.st40{fill:#5A287F;stroke:#FFFFFF;stroke-width:3;stroke-miterlimit:10;}
	.st41{fill:#5A287F;stroke:#5A287F;stroke-width:4;stroke-linecap:round;stroke-linejoin:round;stroke-miterlimit:10;}
	.st42{fill:none;}
</style>
<g id="Layer_3" class="st0">
</g>
<g id="icone_sport" class="st0">
</g>
<g id="base_immagini">
</g>
<g id="ICONE_CAUSE">
	<g>
		<g>
			<path class="st8" d="M395.7,222.7c0-0.1,0-0.3,0-0.4c0-0.1,0-0.2-0.1-0.4c0-0.1-0.1-0.2-0.1-0.3c-0.1-0.2-0.2-0.5-0.3-0.7
				c0-0.1-0.1-0.2-0.2-0.3c0-0.1-0.1-0.2-0.2-0.3c-0.2-0.4-0.5-0.7-0.8-1c-0.1-0.1-0.2-0.2-0.4-0.3c-0.5-0.3-1-0.6-1.5-0.8
				c-0.2,0-0.3-0.1-0.5-0.1c-0.1,0-0.2,0-0.3-0.1c-0.1,0-0.2,0-0.3,0c-0.1,0-0.2,0-0.3,0h-33.5c-2.7,0-5,2.2-5,5c0,2.7,2.2,5,5,5
				h21.5l-28,28c-10.1-8.9-23.3-14.3-37.7-14.3c-12,0-23.1,3.7-32.3,10.1c-9.2-6.3-20.3-10.1-32.3-10.1c-31.4,0-56.9,25.5-56.9,56.9
				c0,29.7,22.9,54.2,52,56.7v15.1H221c-2.7,0-5,2.2-5,5c0,2.7,2.2,5,5,5h22.6v19.8c0,2.7,2.2,5,5,5c2.7,0,5-2.2,5-5v-19.8h20.4
				c2.7,0,5-2.2,5-5c0-2.7-2.2-5-5-5h-20.4v-15.1c10.1-0.9,19.4-4.4,27.3-9.8c9.2,6.4,20.3,10.1,32.3,10.1
				c31.4,0,56.9-25.5,56.9-56.9c0-13.4-4.6-25.6-12.4-35.4l28.2-28.2v19.5c0,2.7,2.2,5,5,5c2.7,0,5-2.2,5-5v-31.5
				C395.7,223,395.7,222.8,395.7,222.7z M295.5,299.3c0,2.6-0.3,5.2-0.7,7.7l-25,9.7c-0.9-2.1-1.6-4.3-2.2-6.6v0L295.5,299.3z
				 M267,307.9c-0.5-2.5-0.8-5-0.9-7.7l28.4-11c0.5,2.5,0.8,5,0.9,7.7L267,307.9z M266.1,297.9c0-2.8,0.3-5.6,0.9-8.3l24.7-9.5
				c1,2.3,1.8,4.6,2.4,7L266.1,297.9z M267.5,287c0.8-3.3,2-6.4,3.5-9.3l15.9-6.1c1.5,2,2.7,4.2,3.9,6.5L267.5,287z M280.8,264.5
				c1.7,1.6,3.3,3.4,4.7,5.2l-12.9,5C274.9,270.9,277.6,267.5,280.8,264.5z M248.5,345.6c-25.9,0-47-21.1-47-47
				c0-25.9,21.1-47,47-47c8.9,0,17.2,2.5,24.3,6.8c-10.3,10.3-16.7,24.5-16.7,40.2c0,15.7,6.4,29.9,16.7,40.2
				C265.7,343.1,257.4,345.6,248.5,345.6z M270.6,318.7l23.6-9.1c-0.7,3.1-1.8,6-3.1,8.8l-16.9,6.5
				C272.8,323,271.6,320.9,270.6,318.7z M280.8,332.7c-1.9-1.8-3.7-3.8-5.3-5.9l14.1-5.4C287.2,325.6,284.2,329.4,280.8,332.7z
				 M360,298.6c0,25.9-21.1,47-47,47c-8.9,0-17.2-2.5-24.3-6.8c10.3-10.3,16.7-24.5,16.7-40.2c0-15.7-6.4-29.9-16.7-40.2
				c7.1-4.3,15.4-6.8,24.3-6.8C339,251.6,360,272.7,360,298.6z"/>
			<path class="st21" d="M243.7,350.1c-5-0.4-9.8-1.5-14.3-3.2 M198.2,313.6c0.6,1.9,1.3,3.8,2.1,5.7 M200.3,319.3
				c5.5,12.7,16,22.7,29.1,27.7"/>
			<path class="st21" d="M276.9,260.3c3-2.9,6.2-5.3,9.7-7.3 M332.1,249.8c-1.9-0.8-3.8-1.4-5.7-2 M326.3,247.8
				c-13.4-3.7-27.8-1.9-39.8,5.2"/>
			<path class="st21" d="M220.9,376.9c0.5,0.1,1,0.1,1.7,0.1c5-0.1,17.9,0,17.9,0"/>
			<path class="st21" d="M356.9,223.8c0.4,0,0.8,0.1,1.3,0.1c5-0.1,17.9,0,17.9,0"/>
		</g>
		<circle class="st22" cx="297.6" cy="297.6" r="146.2"/>
	</g>
</g>
</svg>
