<?xml version="1.0" encoding="utf-8"?>
<!-- Generator: Adobe Illustrator 25.2.1, SVG Export Plug-In . SVG Version: 6.00 Build 0)  -->
<svg version="1.1" xmlns="http://www.w3.org/2000/svg" xmlns:xlink="http://www.w3.org/1999/xlink" x="0px" y="0px"
	 viewBox="0 0 595.3 595.3" style="enable-background:new 0 0 595.3 595.3;" xml:space="preserve">
<style type="text/css">
	.st0{display:none;}
	.st1{display:inline;fill:none;stroke:#222221;stroke-width:7;stroke-miterlimit:10;}
	.st2{display:inline;fill-rule:evenodd;clip-rule:evenodd;}
	.st3{display:inline;}
	
		.st4{fill-rule:evenodd;clip-rule:evenodd;fill:none;stroke:#000000;stroke-width:7;stroke-linecap:round;stroke-linejoin:round;stroke-miterlimit:10;}
	.st5{fill-rule:evenodd;clip-rule:evenodd;}
	.st6{fill:#5A287F;}
	.st7{fill:#5A287F;stroke:#5A287F;stroke-miterlimit:10;}
	.st8{fill:#5A287F;stroke:#5A287F;stroke-width:2;stroke-miterlimit:10;}
	.st9{fill:#FFFFFF;}
	.st10{fill:#FFFFFF;stroke:#FFFFFF;stroke-width:12;stroke-miterlimit:10;}
	.st11{fill:#FFFFFF;stroke:#FFFFFF;stroke-width:11;stroke-miterlimit:10;}
	.st12{fill:none;stroke:#5A287F;stroke-width:4;stroke-miterlimit:10;}
	.st13{fill:none;stroke:#5A287F;stroke-width:4;stroke-linecap:round;stroke-miterlimit:10;}
	.st14{fill:none;stroke:#5A287F;stroke-width:6;stroke-linejoin:round;stroke-miterlimit:10;}
	.st15{fill:none;stroke:#5A287F;stroke-width:4;stroke-linecap:round;stroke-linejoin:round;stroke-miterlimit:10;}
	.st16{fill:none;stroke:#FFFFFF;stroke-width:3;stroke-linecap:round;stroke-miterlimit:10;}
	.st17{fill:none;stroke:#FFFFFF;stroke-width:3;stroke-linecap:round;stroke-linejoin:round;stroke-miterlimit:10;}
	.st18{fill:none;stroke:#FFFFFF;stroke-width:2;stroke-linecap:round;stroke-linejoin:round;stroke-miterlimit:10;}
	.st19{fill:none;stroke:#FFFFFF;stroke-linecap:round;stroke-linejoin:round;stroke-miterlimit:10;}
	.st20{fill:none;stroke:#5A287F;stroke-width:5;stroke-miterlimit:10;}
	.st21{fill:none;stroke:#FFFFFF;stroke-width:4;stroke-linecap:round;stroke-linejoin:round;stroke-miterlimit:10;}
	.st22{fill:none;stroke:#5A287F;stroke-width:7;stroke-miterlimit:10;}
	.st23{fill:none;stroke:#FFFFFF;stroke-width:4;stroke-linecap:round;stroke-miterlimit:10;}
	.st24{fill:#5A287F;stroke:#5A287F;stroke-width:3;stroke-miterlimit:10;}
	.st25{fill:#5A287F;stroke:#5A287F;stroke-width:0.75;stroke-miterlimit:10;}
	.st26{fill:none;stroke:#FFFFFF;stroke-width:5;stroke-linecap:round;stroke-linejoin:round;stroke-miterlimit:10;}
	.st27{fill:none;stroke:#5A287F;stroke-width:3;stroke-linecap:round;stroke-linejoin:round;stroke-miterlimit:10;}
	.st28{fill:#FFFFFF;stroke:#FFFFFF;stroke-width:10;stroke-miterlimit:10;}
	.st29{fill:#5A287F;stroke:#FFFFFF;stroke-width:2;stroke-miterlimit:10;}
	.st30{fill:#5A287F;stroke:#FFFFFF;stroke-miterlimit:10;}
	.st31{fill:#FFFFFF;stroke:#5A287F;stroke-width:5;stroke-miterlimit:10;}
	.st32{fill:none;stroke:#5A287F;stroke-width:5;stroke-linecap:round;stroke-linejoin:round;stroke-miterlimit:10;}
	.st33{fill:none;stroke:#5A287F;stroke-width:6;stroke-linecap:round;stroke-linejoin:round;stroke-miterlimit:10;}
	.st34{fill:#FFFFFF;stroke:#5A287F;stroke-width:5;stroke-linecap:round;stroke-linejoin:round;stroke-miterlimit:10;}
	.st35{fill:#5A287F;stroke:#5A287F;stroke-width:3;stroke-linecap:round;stroke-linejoin:round;stroke-miterlimit:10;}
	.st36{fill:#FFFFFF;stroke:#5A287F;stroke-width:6;stroke-miterlimit:10;}
	.st37{fill:#FFFFFF;stroke:#5A287F;stroke-width:6;stroke-linecap:round;stroke-linejoin:round;stroke-miterlimit:10;}
	.st38{fill:#FFFFFF;stroke:#5A287F;stroke-width:4;stroke-linecap:round;stroke-linejoin:round;stroke-miterlimit:10;}
	.st39{fill:none;stroke:#5A287F;stroke-width:7;stroke-linecap:round;stroke-linejoin:round;stroke-miterlimit:10;}
	.st40{fill:#5A287F;stroke:#FFFFFF;stroke-width:3;stroke-miterlimit:10;}
	.st41{fill:#5A287F;stroke:#5A287F;stroke-width:4;stroke-linecap:round;stroke-linejoin:round;stroke-miterlimit:10;}
	.st42{fill:none;}
</style>
<g id="Layer_3" class="st0">
</g>
<g id="icone_sport" class="st0">
</g>
<g id="base_immagini">
</g>
<g id="ICONE_CAUSE">
	<g>
		<circle class="st22" cx="297.6" cy="297.6" r="146.2"/>
		<g>
			<circle class="st30" cx="296.7" cy="265.5" r="35"/>
			<path class="st21" d="M269.8,265.5c0-14.8,12-26.9,26.9-26.9"/>
			<g>
				<path class="st6" d="M336.8,231.9c1.5-5.5,5.2-6.7,8.7-7.7c3-1,5.7-1.8,6.6-5.3c1.1-4-1-7-4.9-8.1c-3.7-1-7.3,0.5-8.5,4.5
					l-0.1,0.5l-5.3-1.5l0.2-0.7c1.9-7,8.3-10,15.3-8.1c7.1,2,11,7.7,9,14.8c-1.7,6.2-5.8,7.3-9.4,8.3c-2.9,0.8-5.5,1.5-6.4,4.7
					l-0.2,0.7l-5.2-1.4L336.8,231.9z M333.1,240.4c0.6-2.3,2.7-3.5,5-2.8c2.3,0.6,3.5,2.7,2.8,5c-0.6,2.3-2.7,3.5-5,2.8
					C333.7,244.7,332.5,242.6,333.1,240.4z"/>
			</g>
			<g>
				<path class="st6" d="M246,234.2c-1.9-5.4,0.4-8.4,2.6-11.3c1.8-2.5,3.6-4.7,2.4-8.1c-1.4-3.9-4.8-5.2-8.7-3.8
					c-3.6,1.3-5.7,4.6-4.3,8.6l0.2,0.5l-5.1,1.8l-0.2-0.6c-2.4-6.8,1-12.9,7.8-15.4c6.9-2.5,13.3,0,15.8,6.9
					c2.2,6.1-0.5,9.2-2.9,12.1c-1.9,2.3-3.6,4.4-2.5,7.5l0.2,0.7l-5.1,1.8L246,234.2z M247.9,243.2c-0.8-2.2,0.3-4.4,2.4-5.2
					c2.2-0.8,4.4,0.3,5.2,2.4c0.8,2.2-0.3,4.4-2.4,5.2C250.9,246.4,248.7,245.4,247.9,243.2z"/>
			</g>
			<g>
				<path class="st6" d="M292.1,210.6c0-5.7,3.3-7.8,6.3-9.8c2.6-1.7,5-3.3,5-6.9c0-4.1-2.8-6.5-6.9-6.5c-3.9,0-7,2.4-7,6.6v0.5H284
					v-0.7c0-7.3,5.4-11.9,12.6-11.9c7.3,0,12.6,4.5,12.6,11.9c0,6.5-3.6,8.6-6.8,10.5c-2.6,1.5-4.9,3-4.9,6.3v0.7h-5.4V210.6z
					 M290.9,219.8c0-2.3,1.7-4.1,4.1-4.1c2.3,0,4.1,1.7,4.1,4.1c0,2.3-1.7,4.1-4.1,4.1C292.6,223.8,290.9,222.1,290.9,219.8z"/>
			</g>
			<g>
				<path class="st6" d="M233.8,306.6l-3.9-2.3l-1-0.6c-1-0.6-1.3-1.8-0.7-2.7c0.6-0.9,1.8-1.3,2.7-0.7l3.8,2.2l-1.1,0.8
					c-0.9,0.7-1,1.9-0.4,2.8C233.4,306.4,233.6,306.5,233.8,306.6z"/>
				<path class="st34" d="M306.5,413.3h-17.9L229.9,379v-77 M295.6,413.3 M365.2,379l-58.7,34.3v-77"/>
				<line class="st32" x1="288.6" y1="336.3" x2="288.6" y2="413.3"/>
				<line class="st15" x1="239.4" y1="321" x2="239.4" y2="374"/>
				<path class="st6" d="M297.1,333.2c-0.2,0-0.3-0.1-0.5-0.2C296.8,333.1,297,333.1,297.1,333.2z"/>
				<path class="st6" d="M366.1,300.3c-0.6-0.4-1.4-0.4-2,0l-3.3,1.9l-6.1-4c-0.6-0.4-1.4-0.4-2.1-0.1l-55,30.7l-54.7-31.1
					c-0.7-0.4-1.6-0.3-2.2,0.2l-6,4.6l-1.1,0.8c-0.9,0.7-1,1.9-0.4,2.8c0.1,0.2,0.3,0.3,0.5,0.5c0,0,0,0,0.1,0l53.7,31.4
					c0.3,0.2,0.7,0.3,1,0.3h17.9c0.2,0,0.4,0,0.5-0.1c0.2,0,0.4-0.1,0.5-0.2l55.7-32.5V379c0,0.4,0.1,0.7,0.3,1c0.3,0.6,1,1,1.7,1
					c1.1,0,2-0.9,2-2v-77C367.1,301.3,366.8,300.7,366.1,300.3z M305.9,334.3h-16.8l-50.7-29.6l3.7-2.8l54.5,31c0,0,0,0,0.1,0
					c0.2,0.1,0.3,0.2,0.5,0.2c0.2,0,0.3,0.1,0.5,0.1c0.3,0,0.7-0.1,1-0.3l0,0l55-30.7l3.4,2.2L305.9,334.3z"/>
				<path class="st6" d="M357,304.5l-51.1,29.8h-16.8l-50.7-29.6l3.7-2.8l54.5,31c0,0,0,0,0.1,0c0.2,0.1,0.3,0.2,0.5,0.2
					c0.2,0,0.3,0.1,0.5,0.1c0.3,0,0.7-0.1,1-0.3l0,0l55-30.7L357,304.5z"/>
			</g>
			<path class="st35" d="M270.1,306.7c0,0,23.1-7.6,55.8,0L298,323.9L270.1,306.7z"/>
			<g>
				<path class="st6" d="M225.7,320.4l-23.2,8.3c-4.6,1.7-7.1,6.8-5.4,11.5h0c1.7,4.6,6.8,7.1,11.5,5.4l17.6-6.3"/>
				<path class="st6" d="M227.9,362.2l-25.7-11.5c-6-2.7-8.7-9.8-6-15.8l0-0.1c2.7-6,9.7-8.6,15.7-6l16,7.1"/>
				<g>
					<path class="st29" d="M227.7,335l16.9,7.6c6.4,2.9,9.3,10.5,6.5,16.9l0,0c-2.9,6.4-10.5,9.3-16.9,6.5l-6.4-2.9"/>
					<polyline class="st9" points="228.2,362.4 227,361.9 227.2,363.7 228.6,363.5 228.5,362.6 					"/>
				</g>
			</g>
			<g>
				<path class="st6" d="M369.6,320.4l23.2,8.3c4.6,1.7,7.1,6.8,5.4,11.5l0,0c-1.7,4.6-6.8,7.1-11.5,5.4l-17.6-6.3"/>
				<path class="st6" d="M367.4,362.2l25.7-11.5c6-2.7,8.7-9.8,6-15.8l0-0.1c-2.7-6-9.7-8.6-15.7-6l-16,7.1"/>
				<g>
					<path class="st29" d="M367.6,335l-16.9,7.6c-6.4,2.9-9.3,10.5-6.5,16.9l0,0c2.9,6.4,10.5,9.3,16.9,6.5l6.4-2.9"/>
					<polyline class="st9" points="367.1,362.4 368.3,361.9 368.1,363.7 366.7,363.5 366.8,362.6 					"/>
				</g>
			</g>
		</g>
	</g>
</g>
</svg>
