<?xml version="1.0" encoding="utf-8"?>
<!-- Generator: Adobe Illustrator 25.2.1, SVG Export Plug-In . SVG Version: 6.00 Build 0)  -->
<svg version="1.1" xmlns="http://www.w3.org/2000/svg" xmlns:xlink="http://www.w3.org/1999/xlink" x="0px" y="0px"
	 viewBox="0 0 595.3 595.3" style="enable-background:new 0 0 595.3 595.3;" xml:space="preserve">
<style type="text/css">
	.st0{display:none;}
	.st1{display:inline;fill:none;stroke:#222221;stroke-width:7;stroke-miterlimit:10;}
	.st2{display:inline;fill-rule:evenodd;clip-rule:evenodd;}
	.st3{display:inline;}
	
		.st4{fill-rule:evenodd;clip-rule:evenodd;fill:none;stroke:#000000;stroke-width:7;stroke-linecap:round;stroke-linejoin:round;stroke-miterlimit:10;}
	.st5{fill-rule:evenodd;clip-rule:evenodd;}
	.st6{fill:#5A287F;}
	.st7{fill:#5A287F;stroke:#5A287F;stroke-miterlimit:10;}
	.st8{fill:#5A287F;stroke:#5A287F;stroke-width:2;stroke-miterlimit:10;}
	.st9{fill:#FFFFFF;}
	.st10{fill:#FFFFFF;stroke:#FFFFFF;stroke-width:12;stroke-miterlimit:10;}
	.st11{fill:#FFFFFF;stroke:#FFFFFF;stroke-width:11;stroke-miterlimit:10;}
	.st12{fill:none;stroke:#5A287F;stroke-width:4;stroke-miterlimit:10;}
	.st13{fill:none;stroke:#5A287F;stroke-width:4;stroke-linecap:round;stroke-miterlimit:10;}
	.st14{fill:none;stroke:#5A287F;stroke-width:6;stroke-linejoin:round;stroke-miterlimit:10;}
	.st15{fill:none;stroke:#5A287F;stroke-width:4;stroke-linecap:round;stroke-linejoin:round;stroke-miterlimit:10;}
	.st16{fill:none;stroke:#FFFFFF;stroke-width:3;stroke-linecap:round;stroke-miterlimit:10;}
	.st17{fill:none;stroke:#FFFFFF;stroke-width:3;stroke-linecap:round;stroke-linejoin:round;stroke-miterlimit:10;}
	.st18{fill:none;stroke:#FFFFFF;stroke-width:2;stroke-linecap:round;stroke-linejoin:round;stroke-miterlimit:10;}
	.st19{fill:none;stroke:#FFFFFF;stroke-linecap:round;stroke-linejoin:round;stroke-miterlimit:10;}
	.st20{fill:none;stroke:#5A287F;stroke-width:5;stroke-miterlimit:10;}
	.st21{fill:none;stroke:#FFFFFF;stroke-width:4;stroke-linecap:round;stroke-linejoin:round;stroke-miterlimit:10;}
	.st22{fill:none;stroke:#5A287F;stroke-width:7;stroke-miterlimit:10;}
	.st23{fill:none;stroke:#FFFFFF;stroke-width:4;stroke-linecap:round;stroke-miterlimit:10;}
	.st24{fill:#5A287F;stroke:#5A287F;stroke-width:3;stroke-miterlimit:10;}
	.st25{fill:#5A287F;stroke:#5A287F;stroke-width:0.75;stroke-miterlimit:10;}
	.st26{fill:none;stroke:#FFFFFF;stroke-width:5;stroke-linecap:round;stroke-linejoin:round;stroke-miterlimit:10;}
	.st27{fill:none;stroke:#5A287F;stroke-width:3;stroke-linecap:round;stroke-linejoin:round;stroke-miterlimit:10;}
	.st28{fill:#FFFFFF;stroke:#FFFFFF;stroke-width:10;stroke-miterlimit:10;}
	.st29{fill:#5A287F;stroke:#FFFFFF;stroke-width:2;stroke-miterlimit:10;}
	.st30{fill:#5A287F;stroke:#FFFFFF;stroke-miterlimit:10;}
	.st31{fill:#FFFFFF;stroke:#5A287F;stroke-width:5;stroke-miterlimit:10;}
	.st32{fill:none;stroke:#5A287F;stroke-width:5;stroke-linecap:round;stroke-linejoin:round;stroke-miterlimit:10;}
	.st33{fill:none;stroke:#5A287F;stroke-width:6;stroke-linecap:round;stroke-linejoin:round;stroke-miterlimit:10;}
	.st34{fill:#FFFFFF;stroke:#5A287F;stroke-width:5;stroke-linecap:round;stroke-linejoin:round;stroke-miterlimit:10;}
	.st35{fill:#5A287F;stroke:#5A287F;stroke-width:3;stroke-linecap:round;stroke-linejoin:round;stroke-miterlimit:10;}
	.st36{fill:#FFFFFF;stroke:#5A287F;stroke-width:6;stroke-miterlimit:10;}
	.st37{fill:#FFFFFF;stroke:#5A287F;stroke-width:6;stroke-linecap:round;stroke-linejoin:round;stroke-miterlimit:10;}
	.st38{fill:#FFFFFF;stroke:#5A287F;stroke-width:4;stroke-linecap:round;stroke-linejoin:round;stroke-miterlimit:10;}
	.st39{fill:none;stroke:#5A287F;stroke-width:7;stroke-linecap:round;stroke-linejoin:round;stroke-miterlimit:10;}
	.st40{fill:#5A287F;stroke:#FFFFFF;stroke-width:3;stroke-miterlimit:10;}
	.st41{fill:#5A287F;stroke:#5A287F;stroke-width:4;stroke-linecap:round;stroke-linejoin:round;stroke-miterlimit:10;}
	.st42{fill:none;}
</style>
<g id="Layer_3" class="st0">
</g>
<g id="icone_sport" class="st0">
</g>
<g id="base_immagini">
</g>
<g id="ICONE_CAUSE">
	<g>
		<circle class="st22" cx="297.6" cy="297.6" r="146.2"/>
		<g>
			<g>
				<line class="st15" x1="310.5" y1="260.8" x2="324" y2="269.7"/>
				<line class="st15" x1="305" y1="269.1" x2="318.5" y2="278"/>
				<line class="st15" x1="299.5" y1="277.5" x2="313" y2="286.4"/>
				<line class="st15" x1="294" y1="285.8" x2="307.4" y2="294.8"/>
				<line class="st15" x1="288.4" y1="294.2" x2="301.9" y2="303.1"/>
				<line class="st15" x1="282.9" y1="302.6" x2="296.4" y2="311.5"/>
				<line class="st15" x1="277.4" y1="310.9" x2="290.9" y2="319.8"/>
				<line class="st15" x1="271.9" y1="319.3" x2="285.4" y2="328.2"/>
				<line class="st15" x1="266.4" y1="327.6" x2="279.9" y2="336.5"/>
				<g>
					<line class="st42" x1="352.2" y1="239.7" x2="378.5" y2="199.9"/>
					<path class="st6" d="M366,252.3L365,254c-0.9,1.3-2.7,1.7-4.1,0.8l-25.6-16.9c-1.3-0.9-1.7-2.7-0.8-4.1l1.1-1.6
						c0.9-1.3,2.7-1.7,4.1-0.8l11.4,7.5l26.3-39.8c0.5-0.7,1.4-0.9,2.1-0.4c0.7,0.5,0.9,1.4,0.4,2.1l-26.3,39.8l11.7,7.7
						C366.5,249.2,366.9,251,366,252.3z"/>
				</g>
				<path class="st15" d="M280.6,370.4L260.3,357c-5.5-3.6-7-11.1-3.4-16.6l61.3-92.9c3.6-5.5,11.1-7,16.6-3.4l20.3,13.4
					c5.5,3.6,7,11.1,3.4,16.6L297.2,367C293.6,372.5,286.1,374,280.6,370.4z"/>
				<g>
					<line class="st42" x1="249.5" y1="395.4" x2="268.7" y2="366.3"/>
					<path class="st6" d="M270.9,365.8l-18,27.2l11.7,7.7c1.3,0.9,1.7,2.7,0.8,4.1l-1.1,1.6c-0.9,1.3-2.7,1.7-4.1,0.8l-25.6-16.9
						c-1.3-0.9-1.7-2.7-0.8-4.1l1.1-1.6c0.9-1.3,2.7-1.7,4.1-0.8l11.4,7.5l18-27.2c0.4-0.7,1.4-0.9,2-0.4l0.1,0.1
						C271.2,364.2,271.4,365.1,270.9,365.8z"/>
				</g>
			</g>
			<g>
				<polygon class="st9" points="291.5,294.9 290.1,296 290.1,296 				"/>
				<g>
					<polygon class="st9" points="291.5,294.9 290.1,296 290.1,296 					"/>
					<path class="st9" d="M290.1,296L290.1,296l1.4-1.1L290.1,296z"/>
					<path class="st9" d="M312,319.5l-18-24.3l-1-1.4l-18.3-24.7c-5.6-7.5-13.8-12.4-23.1-13.8c-9.3-1.4-18.6,0.9-26.1,6.5
						c-15.6,11.6-18.8,33.7-7.3,49.2l18.7,25.2l1.1,1.4l17.7,23.8c5.6,7.5,13.8,12.4,23.1,13.8c3.1,0.5,6.2,0.5,9.3,0.2
						c6-0.7,11.8-3,16.8-6.7C320.4,357.2,323.6,335.1,312,319.5z M291.5,294.9l-1.4,1.1l0,0L291.5,294.9z"/>
				</g>
			</g>
			<g>
				<polygon class="st6" points="291.5,294.9 290.1,296 290.1,296 				"/>
				<g>
					<polygon class="st6" points="291.5,294.9 290.1,296 290.1,296 					"/>
					<path class="st6" d="M290.1,296L290.1,296l1.4-1.1L290.1,296z"/>
					<path class="st6" d="M312,319.5l-18-24.3l-1-1.4l-18.3-24.7c-5.6-7.5-13.8-12.4-23.1-13.8c-9.3-1.4-18.6,0.9-26.1,6.5
						c-15.6,11.6-18.8,33.7-7.3,49.2l18.7,25.2l1.1,1.4l17.7,23.8c5.6,7.5,13.8,12.4,23.1,13.8c3.1,0.5,6.2,0.5,9.3,0.2
						c6-0.7,11.8-3,16.8-6.7C320.4,357.2,323.6,335.1,312,319.5z M291.5,294.9l-1.4,1.1l0,0L291.5,294.9z M302.7,365.9
						c-6.8,5-15.1,7.1-23.5,5.9c-8.4-1.2-15.8-5.6-20.8-12.4l-17.7-23.8l50.5-38.2l18,24.3C319.6,335.7,316.7,355.5,302.7,365.9z"/>
				</g>
			</g>
			<path class="st26" d="M227.6,271.8c0,0-14.8,11.9-5.4,30.8"/>
			<g>
				<g>
					<path class="st6" d="M279.4,243.1c12.5-1.1,21.8-12.2,20.7-24.7c-1.1-12.5-12.2-21.8-24.7-20.7c-12.5,1.1-21.8,12.2-20.7,24.7
						C255.8,234.9,266.9,244.2,279.4,243.1z M275.6,200c11.2-1,21.2,7.3,22.2,18.5l-40.7,3.6C256.1,211,264.4,201,275.6,200z"/>
				</g>
				<path class="st27" d="M261.2,217.1c1.1-5.5,5-10.2,10.6-12.3c0.9-0.3,1.8-0.6,2.7-0.7"/>
			</g>
			<g>
				<g>
					<path class="st6" d="M368.4,371.8c11.3-6.7,15-21.3,8.3-32.6c-6.7-11.3-21.3-15-32.6-8.3c-11.3,6.7-15,21.3-8.3,32.6
						C342.5,374.8,357.1,378.5,368.4,371.8z M345.4,333c10.1-6,23.2-2.6,29.2,7.5L338,362.2C332,352.1,335.3,339,345.4,333z"/>
				</g>
				<path class="st27" d="M339.5,355.5c-1.4-5.7,0.1-11.9,4.5-16.3c0.7-0.7,1.4-1.3,2.2-1.9"/>
			</g>
		</g>
	</g>
</g>
</svg>
