<?xml version="1.0" encoding="utf-8"?>
<!-- Generator: Adobe Illustrator 25.2.1, SVG Export Plug-In . SVG Version: 6.00 Build 0)  -->
<svg version="1.1" xmlns="http://www.w3.org/2000/svg" xmlns:xlink="http://www.w3.org/1999/xlink" x="0px" y="0px"
	 viewBox="0 0 595.3 595.3" style="enable-background:new 0 0 595.3 595.3;" xml:space="preserve">
<style type="text/css">
	.st0{display:none;}
	.st1{display:inline;fill:none;stroke:#222221;stroke-width:7;stroke-miterlimit:10;}
	.st2{display:inline;fill-rule:evenodd;clip-rule:evenodd;}
	.st3{display:inline;}
	
		.st4{fill-rule:evenodd;clip-rule:evenodd;fill:none;stroke:#000000;stroke-width:7;stroke-linecap:round;stroke-linejoin:round;stroke-miterlimit:10;}
	.st5{fill-rule:evenodd;clip-rule:evenodd;}
	.st6{fill:#5A287F;}
	.st7{fill:#5A287F;stroke:#5A287F;stroke-miterlimit:10;}
	.st8{fill:#5A287F;stroke:#5A287F;stroke-width:2;stroke-miterlimit:10;}
	.st9{fill:#FFFFFF;}
	.st10{fill:#FFFFFF;stroke:#FFFFFF;stroke-width:12;stroke-miterlimit:10;}
	.st11{fill:#FFFFFF;stroke:#FFFFFF;stroke-width:11;stroke-miterlimit:10;}
	.st12{fill:none;stroke:#5A287F;stroke-width:4;stroke-miterlimit:10;}
	.st13{fill:none;stroke:#5A287F;stroke-width:4;stroke-linecap:round;stroke-miterlimit:10;}
	.st14{fill:none;stroke:#5A287F;stroke-width:6;stroke-linejoin:round;stroke-miterlimit:10;}
	.st15{fill:none;stroke:#5A287F;stroke-width:4;stroke-linecap:round;stroke-linejoin:round;stroke-miterlimit:10;}
	.st16{fill:none;stroke:#FFFFFF;stroke-width:3;stroke-linecap:round;stroke-miterlimit:10;}
	.st17{fill:none;stroke:#FFFFFF;stroke-width:3;stroke-linecap:round;stroke-linejoin:round;stroke-miterlimit:10;}
	.st18{fill:none;stroke:#FFFFFF;stroke-width:2;stroke-linecap:round;stroke-linejoin:round;stroke-miterlimit:10;}
	.st19{fill:none;stroke:#FFFFFF;stroke-linecap:round;stroke-linejoin:round;stroke-miterlimit:10;}
	.st20{fill:none;stroke:#5A287F;stroke-width:5;stroke-miterlimit:10;}
	.st21{fill:none;stroke:#FFFFFF;stroke-width:4;stroke-linecap:round;stroke-linejoin:round;stroke-miterlimit:10;}
	.st22{fill:none;stroke:#5A287F;stroke-width:7;stroke-miterlimit:10;}
	.st23{fill:none;stroke:#FFFFFF;stroke-width:4;stroke-linecap:round;stroke-miterlimit:10;}
	.st24{fill:#5A287F;stroke:#5A287F;stroke-width:3;stroke-miterlimit:10;}
	.st25{fill:#5A287F;stroke:#5A287F;stroke-width:0.75;stroke-miterlimit:10;}
	.st26{fill:none;stroke:#FFFFFF;stroke-width:5;stroke-linecap:round;stroke-linejoin:round;stroke-miterlimit:10;}
	.st27{fill:none;stroke:#5A287F;stroke-width:3;stroke-linecap:round;stroke-linejoin:round;stroke-miterlimit:10;}
	.st28{fill:#FFFFFF;stroke:#FFFFFF;stroke-width:10;stroke-miterlimit:10;}
	.st29{fill:#5A287F;stroke:#FFFFFF;stroke-width:2;stroke-miterlimit:10;}
	.st30{fill:#5A287F;stroke:#FFFFFF;stroke-miterlimit:10;}
	.st31{fill:#FFFFFF;stroke:#5A287F;stroke-width:5;stroke-miterlimit:10;}
	.st32{fill:none;stroke:#5A287F;stroke-width:5;stroke-linecap:round;stroke-linejoin:round;stroke-miterlimit:10;}
	.st33{fill:none;stroke:#5A287F;stroke-width:6;stroke-linecap:round;stroke-linejoin:round;stroke-miterlimit:10;}
	.st34{fill:#FFFFFF;stroke:#5A287F;stroke-width:5;stroke-linecap:round;stroke-linejoin:round;stroke-miterlimit:10;}
	.st35{fill:#5A287F;stroke:#5A287F;stroke-width:3;stroke-linecap:round;stroke-linejoin:round;stroke-miterlimit:10;}
	.st36{fill:#FFFFFF;stroke:#5A287F;stroke-width:6;stroke-miterlimit:10;}
	.st37{fill:#FFFFFF;stroke:#5A287F;stroke-width:6;stroke-linecap:round;stroke-linejoin:round;stroke-miterlimit:10;}
	.st38{fill:#FFFFFF;stroke:#5A287F;stroke-width:4;stroke-linecap:round;stroke-linejoin:round;stroke-miterlimit:10;}
	.st39{fill:none;stroke:#5A287F;stroke-width:7;stroke-linecap:round;stroke-linejoin:round;stroke-miterlimit:10;}
	.st40{fill:#5A287F;stroke:#FFFFFF;stroke-width:3;stroke-miterlimit:10;}
	.st41{fill:#5A287F;stroke:#5A287F;stroke-width:4;stroke-linecap:round;stroke-linejoin:round;stroke-miterlimit:10;}
	.st42{fill:none;}
</style>
<g id="Layer_3" class="st0">
</g>
<g id="icone_sport" class="st0">
</g>
<g id="base_immagini">
</g>
<g id="ICONE_CAUSE">
	<g>
		<circle class="st22" cx="297.6" cy="297.6" r="146.2"/>
		<g>
			<path class="st36" d="M403.7,293.5c-1.8,10.8-12,18.1-22.8,16.4c-1.8-0.3-3.5-0.8-5.1-1.5c-1.6,9.3-10.3,15.5-19.6,14
				c-5-0.8-9.1-3.7-11.6-7.7c-2.7,3.8-7.5,5.9-12.4,5.1c-5.2-0.9-9.2-4.8-10.3-9.6c-2.3,0.4-4.7,0.4-7.2,0
				c-11.8-1.9-19.8-13.1-17.8-24.8c1.9-11.8,13.1-19.8,24.8-17.8c0.5,0.1,1,0.2,1.4,0.3c4.1-10.8,15.3-17.5,27.1-15.6
				c5.7,0.9,10.6,3.7,14.2,7.7c2.6-1.7,5.7-2.4,9-1.9c6.2,1,10.6,6.4,10.6,12.5c1.1,0,2.1,0.1,3.2,0.3
				C398.2,272.5,405.5,282.7,403.7,293.5z"/>
			<path class="st37" d="M307.3,277.2c2.7-2.6,6.4-4.2,10.5-4.2"/>
			<path class="st37" d="M329.5,266.5c3.4-6,9.8-10,17.2-10c0.4,0,0.9,0,1.3,0"/>
		</g>
		<g>
			<g>
				<path class="st9" d="M317.6,311c0,0-1.8,27.8-6.7,44.6c-4.9,16.8-12.3,41.2-12.3,41.2h78.3c0,0-11.9-39.6-12.8-42.9
					c-0.8-3.2-6.7-34-6.2-42.9H317.6z"/>
				<path class="st6" d="M376.9,399.1h-78.3c-0.8,0-1.5-0.4-1.9-1c-0.4-0.6-0.6-1.4-0.4-2.1c0.1-0.2,7.4-24.6,12.3-41.1
					c4.8-16.3,6.6-43.8,6.6-44c0.1-1.3,1.1-2.2,2.4-2.2h40.3c0.7,0,1.3,0.3,1.7,0.7c0.4,0.5,0.7,1.1,0.6,1.8
					c-0.5,8.5,5.3,39,6.1,42.1c0.8,3.2,12.6,42.4,12.8,42.8c0.2,0.7,0.1,1.5-0.4,2.1C378.3,398.8,377.6,399.1,376.9,399.1z
					 M301.8,394.4h71.9c-2.8-9.4-11.2-37.1-11.9-39.9c-0.8-3.2-5.9-29.7-6.3-41.1h-35.8c-0.5,7-2.4,28.6-6.6,42.9
					C309.3,369.3,303.9,387.3,301.8,394.4z"/>
			</g>
			<polygon class="st6" points="362.9,347.8 312.8,347.8 315.2,334.2 360.4,334.2 			"/>
			<polygon class="st6" points="369.9,373.5 305.6,373.5 309.6,359.8 365.8,359.8 			"/>
		</g>
		<path class="st36" d="M385.9,253.1c-2.8,17.3-19.2,29.1-36.5,26.2c-2.9-0.5-5.6-1.3-8.1-2.5c-2.5,14.8-16.5,24.9-31.4,22.4
			c-8-1.3-14.6-6-18.6-12.3c-4.4,6-11.9,9.4-19.8,8.1c-8.3-1.4-14.7-7.6-16.6-15.4c-3.7,0.6-7.6,0.7-11.5,0
			c-18.9-3.1-31.7-20.9-28.6-39.8c3.1-18.9,20.9-31.7,39.8-28.6c0.8,0.1,1.6,0.3,2.3,0.5c6.5-17.2,24.5-28.1,43.4-25
			c9.1,1.5,17,6,22.8,12.3c4.1-2.7,9.2-3.9,14.4-3.1c10,1.6,17,10.3,17,20c1.7,0,3.4,0.1,5.1,0.4C377,219.4,388.7,235.8,385.9,253.1
			z"/>
		<path class="st38" d="M238.9,270.2c-9-3.6-15.3-12.4-15.3-22.7c0-2.4,0.3-4.7,1-6.9"/>
		<g>
			<g>
				<path class="st9" d="M235.8,279.3c0,0-2.4,38.1-9.2,61.1s-16.8,56.4-16.8,56.4H317c0,0-16.4-54.3-17.5-58.7
					c-1.1-4.4-9.2-46.5-8.5-58.7H235.8z"/>
				<path class="st6" d="M317,399.1H209.8c-0.8,0-1.5-0.4-1.9-1c-0.4-0.6-0.6-1.4-0.4-2.1c0.1-0.3,10.1-33.7,16.8-56.4
					c6.6-22.5,9.1-60.2,9.1-60.5c0.1-1.3,1.1-2.2,2.4-2.2H291c0.7,0,1.3,0.3,1.7,0.7c0.4,0.5,0.7,1.1,0.6,1.8
					c-0.7,11.7,7.3,53.7,8.4,58c1.1,4.3,17.3,58.1,17.5,58.6c0.2,0.7,0.1,1.5-0.4,2.1C318.5,398.8,317.8,399.1,317,399.1z
					 M213,394.4h100.9c-3.5-11.6-15.6-51.9-16.6-55.8c-1.1-4.5-8.3-42-8.6-56.9H238c-0.6,8.6-3.2,39.3-9.1,59.4
					C223.4,359.7,215.6,385.6,213,394.4z"/>
			</g>
			<polygon class="st6" points="293.6,313.2 233.9,313.2 233.9,294.5 291.9,294.5 			"/>
			<polygon class="st6" points="301,348.4 225.4,348.4 229.4,329.7 296.5,329.7 			"/>
			<polygon class="st6" points="312.6,383.5 214,383.5 219.3,364.8 307.1,364.8 			"/>
		</g>
	</g>
</g>
</svg>
