<?xml version="1.0" encoding="utf-8"?>
<!-- Generator: Adobe Illustrator 25.2.1, SVG Export Plug-In . SVG Version: 6.00 Build 0)  -->
<svg version="1.1" xmlns="http://www.w3.org/2000/svg" xmlns:xlink="http://www.w3.org/1999/xlink" x="0px" y="0px"
	 viewBox="0 0 595.3 595.3" style="enable-background:new 0 0 595.3 595.3;" xml:space="preserve">
<style type="text/css">
	.st0{display:none;}
	.st1{display:inline;fill:none;stroke:#222221;stroke-width:7;stroke-miterlimit:10;}
	.st2{display:inline;fill-rule:evenodd;clip-rule:evenodd;}
	.st3{display:inline;}
	
		.st4{fill-rule:evenodd;clip-rule:evenodd;fill:none;stroke:#000000;stroke-width:7;stroke-linecap:round;stroke-linejoin:round;stroke-miterlimit:10;}
	.st5{fill-rule:evenodd;clip-rule:evenodd;}
	.st6{fill:#5A287F;}
	.st7{fill:#5A287F;stroke:#5A287F;stroke-miterlimit:10;}
	.st8{fill:#5A287F;stroke:#5A287F;stroke-width:2;stroke-miterlimit:10;}
	.st9{fill:#FFFFFF;}
	.st10{fill:#FFFFFF;stroke:#FFFFFF;stroke-width:12;stroke-miterlimit:10;}
	.st11{fill:#FFFFFF;stroke:#FFFFFF;stroke-width:11;stroke-miterlimit:10;}
	.st12{fill:none;stroke:#5A287F;stroke-width:4;stroke-miterlimit:10;}
	.st13{fill:none;stroke:#5A287F;stroke-width:4;stroke-linecap:round;stroke-miterlimit:10;}
	.st14{fill:none;stroke:#5A287F;stroke-width:6;stroke-linejoin:round;stroke-miterlimit:10;}
	.st15{fill:none;stroke:#5A287F;stroke-width:4;stroke-linecap:round;stroke-linejoin:round;stroke-miterlimit:10;}
	.st16{fill:none;stroke:#FFFFFF;stroke-width:3;stroke-linecap:round;stroke-miterlimit:10;}
	.st17{fill:none;stroke:#FFFFFF;stroke-width:3;stroke-linecap:round;stroke-linejoin:round;stroke-miterlimit:10;}
	.st18{fill:none;stroke:#FFFFFF;stroke-width:2;stroke-linecap:round;stroke-linejoin:round;stroke-miterlimit:10;}
	.st19{fill:none;stroke:#FFFFFF;stroke-linecap:round;stroke-linejoin:round;stroke-miterlimit:10;}
	.st20{fill:none;stroke:#5A287F;stroke-width:5;stroke-miterlimit:10;}
	.st21{fill:none;stroke:#FFFFFF;stroke-width:4;stroke-linecap:round;stroke-linejoin:round;stroke-miterlimit:10;}
	.st22{fill:none;stroke:#5A287F;stroke-width:7;stroke-miterlimit:10;}
	.st23{fill:none;stroke:#FFFFFF;stroke-width:4;stroke-linecap:round;stroke-miterlimit:10;}
	.st24{fill:#5A287F;stroke:#5A287F;stroke-width:3;stroke-miterlimit:10;}
	.st25{fill:#5A287F;stroke:#5A287F;stroke-width:0.75;stroke-miterlimit:10;}
	.st26{fill:none;stroke:#FFFFFF;stroke-width:5;stroke-linecap:round;stroke-linejoin:round;stroke-miterlimit:10;}
	.st27{fill:none;stroke:#5A287F;stroke-width:3;stroke-linecap:round;stroke-linejoin:round;stroke-miterlimit:10;}
	.st28{fill:#FFFFFF;stroke:#FFFFFF;stroke-width:10;stroke-miterlimit:10;}
	.st29{fill:#5A287F;stroke:#FFFFFF;stroke-width:2;stroke-miterlimit:10;}
	.st30{fill:#5A287F;stroke:#FFFFFF;stroke-miterlimit:10;}
	.st31{fill:#FFFFFF;stroke:#5A287F;stroke-width:5;stroke-miterlimit:10;}
	.st32{fill:none;stroke:#5A287F;stroke-width:5;stroke-linecap:round;stroke-linejoin:round;stroke-miterlimit:10;}
	.st33{fill:none;stroke:#5A287F;stroke-width:6;stroke-linecap:round;stroke-linejoin:round;stroke-miterlimit:10;}
	.st34{fill:#FFFFFF;stroke:#5A287F;stroke-width:5;stroke-linecap:round;stroke-linejoin:round;stroke-miterlimit:10;}
	.st35{fill:#5A287F;stroke:#5A287F;stroke-width:3;stroke-linecap:round;stroke-linejoin:round;stroke-miterlimit:10;}
	.st36{fill:#FFFFFF;stroke:#5A287F;stroke-width:6;stroke-miterlimit:10;}
	.st37{fill:#FFFFFF;stroke:#5A287F;stroke-width:6;stroke-linecap:round;stroke-linejoin:round;stroke-miterlimit:10;}
	.st38{fill:#FFFFFF;stroke:#5A287F;stroke-width:4;stroke-linecap:round;stroke-linejoin:round;stroke-miterlimit:10;}
	.st39{fill:none;stroke:#5A287F;stroke-width:7;stroke-linecap:round;stroke-linejoin:round;stroke-miterlimit:10;}
	.st40{fill:#5A287F;stroke:#FFFFFF;stroke-width:3;stroke-miterlimit:10;}
	.st41{fill:#5A287F;stroke:#5A287F;stroke-width:4;stroke-linecap:round;stroke-linejoin:round;stroke-miterlimit:10;}
	.st42{fill:none;}
</style>
<g id="Layer_3" class="st0">
</g>
<g id="icone_sport" class="st0">
</g>
<g id="base_immagini">
</g>
<g id="ICONE_CAUSE">
	<g>
		<g>
			<g>
				<path class="st29" d="M271.9,409.1c-1.3-0.1-2.7-0.1-4-0.2c-3-0.2-6.1-0.3-9.1-0.5c-0.9,0-1.2-0.4-1.1-1.3
					c0.7-6.2,1.3-12.4,2.1-18.6c0.8-6.4,1.7-12.7,2.6-19.1c1-7.2,2-14.4,3.3-21.6c0.6-3.5-0.1-6.5-2.1-9.3
					c-5.4-8-10.8-15.9-16.2-23.9c-8.4-12.5-16.8-24.9-25.2-37.4c-0.7-1.1-1.3-2.3-2-3.5c-1.2-2.2-1-4.3,0.4-6.3c2-3,4.1-6,6.2-9
					c8-11.5,16-22.9,24.1-34.4c1.1-1.6,2.5-3,3.9-4.4c0.6-0.7,1.4-0.8,2.3-0.4c4.8,2,9.6,3.7,14.3,5.9c10.2,4.6,20.3,9.5,30.4,14.2
					c0.9,0.4,1.8,1,2.7,1.5c1.3,0.7,1.9,1.8,1.8,3.2c-0.1,4.2-0.6,8.4-2,12.3c-0.2,0.5-0.7,1-1.2,1.1c-4,0.8-8,1.6-12,2.3
					c-2.4,0.4-4.8,0.5-7.2,1c-4.1,0.7-7.5-0.5-10.5-3c-2.3-1.9-4.4-4.1-6.6-6.1c-0.8-0.8-1.8-1.4-2.8-2.2c-0.4,1.8-0.1,3.1,0.4,4.4
					c0.7,1.7,1.4,3.4,2.1,5.1c1.5,3.4,0.7,5-3,5.7c-1.2,0.3-2.5,0.4-3.7,0.7c-0.8,0.2-1.6,0.8-2.3,1.1c0,0.2,0,0.3,0,0.5
					c2.3,1.1,4.6,2.2,7,3.2c2.7,1.1,5.5,2.2,8.3,3.1c4.7,1.6,8,4.5,10.5,8.8c8.1,14.2,16.3,28.4,24.5,42.6c1,1.7,1.7,3.6,2.6,5.4
					c0.6,1.2,0.3,2.4-0.6,3.3c-1.3,1.3-2.6,2.4-4,3.6c-1,0.9-2.1,1.7-2.3,3.4c1.2-0.1,2.4-0.1,3.6-0.3c2.3-0.3,3.4,0.5,3.3,2.8
					c-0.1,3.9-0.4,7.7-0.7,11.6c-0.4,4.8-0.8,9.7-1.2,14.5c-0.5,6-1,12.1-1.5,18.1c-0.4,4.4-0.7,8.7-1.2,13.1
					c-0.3,2.3-0.7,4.6-1.1,6.9c-0.1,0.6-0.4,0.9-1,0.9c-5.8,0.2-11.7,0.5-17.5,0.7c-0.7,0-1.5,0.1-2.2,0.1
					C279.8,409.1,275.9,409.1,271.9,409.1z"/>
				<path class="st29" d="M318.5,409.1c-2-0.1-4.1-0.3-6.1-0.4c-3-0.2-3.4-0.4-3.2-3.4c0.2-4.5,0.6-9,1-13.6
					c0.5-5.6,1-11.2,1.5-16.8c0.5-5.2,1-10.4,1.5-15.6c0.5-4.6,0.9-9.2,1.4-13.7c0.1-1.1,0.3-2.3,0.5-3.4c0.1-0.7,0.4-0.9,1.1-0.9
					c2.1,0.1,4.2,0,6.6,0c-0.4-0.8-0.7-1.5-1.1-2.1c-10.5-17.8-21-35.7-31.5-53.5c-1.1-1.9-2-3.9-3-5.8c-0.6-1.3-0.4-1.8,1-1.8
					c1.9,0,3.8,0.1,5.6,0.6c9.6,2.4,18.6,6.1,27,11.2c3.1,1.9,5.6,4.7,8.3,7.2c1.9,1.8,3.7,3.7,5.5,5.5c2.3,2.2,3.8,2.4,6.5,0.7
					c3.1-2.1,6.1-4.4,9.1-6.5c3.6-2.6,7.1-5.1,10.7-7.6c0.7-0.5,1.5-0.8,2.6-1.4c0,2,0.2,3.6,0,5.2c-1.5,11.6-4,23-7.7,34.1
					c-2.4,7.3-6.7,13.4-11.7,19.2c-1.1,1.3-2.3,2.6-3.5,3.8c-0.8,0.8-1.1,1.6-1.1,2.7c0.1,10.7,0.3,21.4,0.3,32.1
					c0,6.9-0.1,13.8-0.2,20.7c-0.1,3.1-0.5,3.5-3.6,3.7c-1,0.1-1.9,0.2-2.9,0.2C328.3,409.1,323.4,409.1,318.5,409.1z"/>
				<path class="st29" d="M285.7,186.1c6,3.4,11.4,7.8,16.3,12.7c3,3,3.1,3.6,0.8,7.1c-4.4,6.7-9,13.4-13.5,20.1
					c-0.9,1.4-2.1,1.8-3.6,1.2c-3.5-1.3-7-2.7-10.4-4.1c-3-1.3-6-2.6-8.9-4c-1-0.5-1.9-1-2.7-1.7c-1.1-1-1.3-2.2-0.7-3.5
					c0.4-0.8,0.9-1.5,1.4-2.2c5.2-7,10.4-14.1,15.7-21.1c1.2-1.6,2.4-3.3,4.2-4.3C284.9,186.1,285.3,186.1,285.7,186.1z"/>
				<path class="st29" d="M321.7,286.2c-1-0.3-1.8-0.5-2.6-0.8c-4.9-2.2-9.9-4.4-14.8-6.7c-1-0.4-1.8-1.1-2.7-1.8
					c-0.8-0.6-1-1.4-0.5-2.3c1.1-1.8,2.1-3.7,3.3-5.4c7.7-10.2,15.4-20.5,23.1-30.7c2.4-3.2,4.9-6.3,7.5-9.4
					c1.3-1.5,1.9-1.6,3.4-0.4c2.4,1.9,4.7,3.9,6.9,6c3.4,3.3,6.6,6.8,9.9,10.3c1.3,1.4,1.3,1.7,0.1,3.2c-9.6,11.1-19.3,22.3-29,33.4
					c-1.1,1.2-2.1,2.5-3.3,3.6C322.7,285.7,322.1,285.9,321.7,286.2z"/>
				<path class="st29" d="M338.2,302c-3.5-3.7-7.2-7.3-10.5-11.1c-2.3-2.7-2.1-2.1-0.2-4.5c3.1-3.9,6.4-7.6,9.7-11.3
					c6.5-7.3,13.1-14.4,19.7-21.6c0.7-0.8,1.6-1.4,2.4-2.1c0.9-0.7,1.6-0.7,2.4,0.2c2.1,2.5,4.3,4.9,6.3,7.3
					c1.8,2.1,3.6,4.2,5.2,6.4c0.9,1.2,1.5,2.6,2.3,3.9c0.4,0.7,0.3,1.1-0.3,1.6c-3.3,3-6.6,6.2-10,9c-8.6,7.2-17.3,14.2-26,21.3
					C339.1,301.3,338.8,301.6,338.2,302z"/>
				<path class="st29" d="M308.8,255.2c-0.1-4.5-0.2-9.1-0.1-13.6c0-1.9-0.5-2.9-2.3-3.8c-4-1.9-7.8-4.1-11.6-6.3
					c-2-1.2-2.1-1.4-1-3.4c1.6-3,3.4-5.9,5.3-8.8c3.1-4.6,6.3-9,9.4-13.5c1.5-2.2,2.5-2.4,4.9-0.7c1.8,1.3,3.5,2.9,5.1,4.5
					c4.5,4.6,8.9,9.2,13.4,13.8c0.8,0.8,0.8,1.5,0.1,2.4c-3.1,4.2-6,8.5-9.2,12.6c-3.9,5-7.8,10-11.8,14.9c-0.6,0.7-1.2,1.3-1.9,2
					C309.1,255.3,308.9,255.3,308.8,255.2z"/>
				<path class="st29" d="M270.4,265.3c0.6-1.2,1.6-1.3,2.6-1.3c1.3,0,2.5,0.2,3.8,0.4c3.3,0.6,6.5,0,9.7-0.6
					c4.1-0.7,8.1-1.4,12.2-2c0.9-0.1,1.8-0.2,2.7-0.1c1.6,0.1,2.1,1,1.4,2.4c-1.7,3.8-4.5,6.7-7.5,9.5c-0.6,0.5-1.8,0.6-2.6,0.4
					c-3.8-1.1-7.5-2.4-11.3-3.7c-2.5-0.8-5-1.7-7.5-2.6C272.1,267.1,271.2,266.5,270.4,265.3z"/>
			</g>
			<polyline class="st21" points="233.7,274.1 275.8,336.7 272.5,365.4 			"/>
			<line class="st21" x1="271" y1="381.2" x2="269.4" y2="394.9"/>
		</g>
		<circle class="st22" cx="297.6" cy="297.6" r="146.2"/>
	</g>
</g>
</svg>
