<?xml version="1.0" encoding="utf-8"?>
<!-- Generator: Adobe Illustrator 25.2.1, SVG Export Plug-In . SVG Version: 6.00 Build 0)  -->
<svg version="1.1" xmlns="http://www.w3.org/2000/svg" xmlns:xlink="http://www.w3.org/1999/xlink" x="0px" y="0px"
	 viewBox="0 0 595.3 595.3" style="enable-background:new 0 0 595.3 595.3;" xml:space="preserve">
<style type="text/css">
	.st0{display:none;}
	.st1{display:inline;fill:none;stroke:#222221;stroke-width:7;stroke-miterlimit:10;}
	.st2{display:inline;fill-rule:evenodd;clip-rule:evenodd;}
	.st3{display:inline;}
	
		.st4{fill-rule:evenodd;clip-rule:evenodd;fill:none;stroke:#000000;stroke-width:7;stroke-linecap:round;stroke-linejoin:round;stroke-miterlimit:10;}
	.st5{fill-rule:evenodd;clip-rule:evenodd;}
	.st6{fill:#5A287F;}
	.st7{fill:#5A287F;stroke:#5A287F;stroke-miterlimit:10;}
	.st8{fill:#5A287F;stroke:#5A287F;stroke-width:2;stroke-miterlimit:10;}
	.st9{fill:#FFFFFF;}
	.st10{fill:#FFFFFF;stroke:#FFFFFF;stroke-width:12;stroke-miterlimit:10;}
	.st11{fill:#FFFFFF;stroke:#FFFFFF;stroke-width:11;stroke-miterlimit:10;}
	.st12{fill:none;stroke:#5A287F;stroke-width:4;stroke-miterlimit:10;}
	.st13{fill:none;stroke:#5A287F;stroke-width:4;stroke-linecap:round;stroke-miterlimit:10;}
	.st14{fill:none;stroke:#5A287F;stroke-width:6;stroke-linejoin:round;stroke-miterlimit:10;}
	.st15{fill:none;stroke:#5A287F;stroke-width:4;stroke-linecap:round;stroke-linejoin:round;stroke-miterlimit:10;}
	.st16{fill:none;stroke:#FFFFFF;stroke-width:3;stroke-linecap:round;stroke-miterlimit:10;}
	.st17{fill:none;stroke:#FFFFFF;stroke-width:3;stroke-linecap:round;stroke-linejoin:round;stroke-miterlimit:10;}
	.st18{fill:none;stroke:#FFFFFF;stroke-width:2;stroke-linecap:round;stroke-linejoin:round;stroke-miterlimit:10;}
	.st19{fill:none;stroke:#FFFFFF;stroke-linecap:round;stroke-linejoin:round;stroke-miterlimit:10;}
	.st20{fill:none;stroke:#5A287F;stroke-width:5;stroke-miterlimit:10;}
	.st21{fill:none;stroke:#FFFFFF;stroke-width:4;stroke-linecap:round;stroke-linejoin:round;stroke-miterlimit:10;}
	.st22{fill:none;stroke:#5A287F;stroke-width:7;stroke-miterlimit:10;}
	.st23{fill:none;stroke:#FFFFFF;stroke-width:4;stroke-linecap:round;stroke-miterlimit:10;}
	.st24{fill:#5A287F;stroke:#5A287F;stroke-width:3;stroke-miterlimit:10;}
	.st25{fill:#5A287F;stroke:#5A287F;stroke-width:0.75;stroke-miterlimit:10;}
	.st26{fill:none;stroke:#FFFFFF;stroke-width:5;stroke-linecap:round;stroke-linejoin:round;stroke-miterlimit:10;}
	.st27{fill:none;stroke:#5A287F;stroke-width:3;stroke-linecap:round;stroke-linejoin:round;stroke-miterlimit:10;}
	.st28{fill:#FFFFFF;stroke:#FFFFFF;stroke-width:10;stroke-miterlimit:10;}
	.st29{fill:#5A287F;stroke:#FFFFFF;stroke-width:2;stroke-miterlimit:10;}
	.st30{fill:#5A287F;stroke:#FFFFFF;stroke-miterlimit:10;}
	.st31{fill:#FFFFFF;stroke:#5A287F;stroke-width:5;stroke-miterlimit:10;}
	.st32{fill:none;stroke:#5A287F;stroke-width:5;stroke-linecap:round;stroke-linejoin:round;stroke-miterlimit:10;}
	.st33{fill:none;stroke:#5A287F;stroke-width:6;stroke-linecap:round;stroke-linejoin:round;stroke-miterlimit:10;}
	.st34{fill:#FFFFFF;stroke:#5A287F;stroke-width:5;stroke-linecap:round;stroke-linejoin:round;stroke-miterlimit:10;}
	.st35{fill:#5A287F;stroke:#5A287F;stroke-width:3;stroke-linecap:round;stroke-linejoin:round;stroke-miterlimit:10;}
	.st36{fill:#FFFFFF;stroke:#5A287F;stroke-width:6;stroke-miterlimit:10;}
	.st37{fill:#FFFFFF;stroke:#5A287F;stroke-width:6;stroke-linecap:round;stroke-linejoin:round;stroke-miterlimit:10;}
	.st38{fill:#FFFFFF;stroke:#5A287F;stroke-width:4;stroke-linecap:round;stroke-linejoin:round;stroke-miterlimit:10;}
	.st39{fill:none;stroke:#5A287F;stroke-width:7;stroke-linecap:round;stroke-linejoin:round;stroke-miterlimit:10;}
	.st40{fill:#5A287F;stroke:#FFFFFF;stroke-width:3;stroke-miterlimit:10;}
	.st41{fill:#5A287F;stroke:#5A287F;stroke-width:4;stroke-linecap:round;stroke-linejoin:round;stroke-miterlimit:10;}
	.st42{fill:none;}
</style>
<g id="Layer_3" class="st0">
</g>
<g id="icone_sport" class="st0">
</g>
<g id="base_immagini">
</g>
<g id="ICONE_CAUSE">
	<g>
		<g>
			<path class="st6" d="M297.6,142.6c-85.5,0-155,69.5-155,155c0,85.5,69.5,155,155,155s155-69.5,155-155
				C452.6,212.2,383.1,142.6,297.6,142.6z M150.1,318.2c-0.9-6.7-1.4-13.6-1.4-20.6c0-82.2,66.8-149,149-149
				c82.2,0,149,66.8,149,149c0,7-0.5,13.8-1.4,20.6H150.1z"/>
			<polygon class="st9" points="202.8,396.3 199.9,395.3 207.9,370.7 185.6,349.7 213.9,316.2 216.2,318.3 189.8,349.5 211.4,369.8 
							"/>
			<polygon class="st9" points="213.8,348.2 202.9,331 205.4,329.3 216.3,346.5 			"/>
			<polygon class="st9" points="161.9,336.3 159.5,334.3 173.8,316.3 176.1,318.2 			"/>
			<polygon class="st9" points="177.5,342.5 167.6,325.8 170.1,324.2 180.1,340.9 			"/>
			<polygon class="st9" points="172.4,366.5 170.3,364.2 186.6,348.7 188.6,351 			"/>
			<polygon class="st9" points="221.1,406.2 205.3,380.7 207.8,379 223.6,404.5 			"/>
			<polygon class="st9" points="384.9,395.8 376.3,369.2 397.9,348.9 371.5,317.7 373.8,315.7 402.1,349.2 379.8,370.2 387.7,394.8 
							"/>
			<polygon class="st9" points="426.5,336.6 411.6,317.7 413.9,315.7 428.8,334.6 			"/>
			<polygon class="st9" points="410.2,342 407.6,340.4 417.5,323.6 420.1,325.2 			"/>
			<polygon class="st9" points="416.1,366.7 399.1,350.4 401.1,348.1 418.1,364.4 			"/>
			<polygon class="st9" points="366.6,405.6 364,403.9 379.9,378.5 382.4,380.2 			"/>
			<polygon class="st9" points="254.2,425.6 251.4,424.4 258.8,405.4 241.1,369.6 267.7,344.8 250,318.1 252.4,316.4 271.6,345.2 
				244.8,370.3 262.1,405.2 			"/>
			<polygon class="st9" points="287.3,384.1 260.2,353.8 262.4,351.7 289.5,382 			"/>
			<polygon class="st9" points="274,397.4 271,396.8 276.3,370.8 279.2,371.4 			"/>
			<polygon class="st9" points="240.1,353.6 237.5,352 254.6,323.5 257.1,325.1 			"/>
			<polygon class="st9" points="242.4,401.9 239.6,400.8 247.1,380.6 249.9,381.7 			"/>
			<polygon class="st9" points="270.3,440.2 255.6,415.2 258.2,413.6 272.9,438.6 			"/>
			<polygon class="st9" points="308.7,443.5 305.7,443.1 309.2,413.6 333.1,392.4 303.6,356.9 315.3,316.8 318.1,317.7 306.9,356.2 
				337.3,392.8 312.1,415.2 			"/>
			<polygon class="st9" points="295.4,347.2 293.5,344.8 312,329 313.9,331.4 			"/>
			<polygon class="st9" points="336.6,371.7 333.8,370.6 342.6,346.5 314.4,323.1 316.3,320.7 346.2,345.5 			"/>
			<polygon class="st9" points="353.8,388.5 340.5,353.3 343.3,352.2 356.6,387.4 			"/>
			<polygon class="st9" points="305,402.1 302.4,400.6 317.7,372.4 320.3,373.9 			"/>
			<polygon class="st9" points="338.2,425.5 328.5,397.8 331.3,396.8 341,424.5 			"/>
			<polygon class="st9" points="325.2,429.9 322.9,427.9 334.7,413.4 337,415.4 			"/>
			<polygon class="st9" points="325.5,361.1 322.6,360.4 328.4,333.6 331.3,334.3 			"/>
			<polygon class="st9" points="364.6,349.2 362.1,347.4 377.8,323.4 380.3,325.1 			"/>
			<polygon class="st9" points="376.5,356.4 370.6,334.4 373.4,333.5 379.4,355.6 			"/>
			<path class="st6" d="M269,224.9v27.4l-19.1,19.8v45.2c0,6.6-5.4,12-12,12h-9.6c-6.6,0-12-5.4-12-12V296l-19.6-20.3v-17.4
				c0-3.8,3.2-6.9,7-6.9s7,3.1,7,6.9v12.2l5.5,5.5v-70.1c0-9.3,7.7-17,17-17c9.1,0,16.6,7.4,16.6,16.6v46.7l5-5v-22.2
				c0-3.8,3.1-6.9,7-6.9S269,221.1,269,224.9z"/>
			<path class="st6" d="M327.8,266.9v15.7l11,11.4v25.9c0,3.8,3.1,6.9,6.9,6.9h5.5c3.8,0,6.9-3.1,6.9-6.9v-12.2l11.2-11.7v-10
				c0-2.2-1.8-4-4-4s-4,1.8-4,4v7l-3.2,3.2V256c0-5.4-4.4-9.7-9.8-9.7c-5.2,0-9.5,4.3-9.5,9.5v26.8l-2.9-2.9v-12.8c0-2.2-1.8-4-4-4
				C329.6,262.9,327.8,264.7,327.8,266.9z"/>
			<path class="st17" d="M221.5,223c0,14.9,0,51,0,51"/>
			<path class="st17" d="M232.1,194.7c0,0-10.6,1.6-10.6,11.2c0,1.9,0,5,0,8.8"/>
			<path class="st18" d="M203.4,254.6c0,0-3.4,0.2-3.4,3.9"/>
			<line class="st18" x1="200" y1="262.8" x2="200" y2="273.9"/>
			<path class="st18" d="M261.4,221.6c0,0-3.4,0.2-3.4,3.9"/>
			<line class="st18" x1="258" y1="229.8" x2="258" y2="243.8"/>
			<line class="st19" x1="329.6" y1="270.3" x2="329.6" y2="281.7"/>
			<line class="st19" x1="362.7" y1="288.1" x2="362.7" y2="292.3"/>
			<line class="st19" x1="341.2" y1="258.8" x2="341.2" y2="282.4"/>
		</g>
		<path class="st19" d="M329.6,267.6c0,0-0.3-2.6,2.2-2.7"/>
		<path class="st19" d="M362.7,286.4c0,0-0.3-2.6,2.2-2.7"/>
		<path class="st19" d="M341.2,255.8c0,0,0.1-6.8,6.1-6.9"/>
	</g>
</g>
</svg>
