<?xml version="1.0" encoding="utf-8"?>
<!-- Generator: Adobe Illustrator 25.2.1, SVG Export Plug-In . SVG Version: 6.00 Build 0)  -->
<svg version="1.1" xmlns="http://www.w3.org/2000/svg" xmlns:xlink="http://www.w3.org/1999/xlink" x="0px" y="0px"
	 viewBox="0 0 595.3 595.3" style="enable-background:new 0 0 595.3 595.3;" xml:space="preserve">
<style type="text/css">
	.st0{display:none;}
	.st1{display:inline;fill:none;stroke:#222221;stroke-width:7;stroke-miterlimit:10;}
	.st2{display:inline;fill-rule:evenodd;clip-rule:evenodd;}
	.st3{display:inline;}
	
		.st4{fill-rule:evenodd;clip-rule:evenodd;fill:none;stroke:#000000;stroke-width:7;stroke-linecap:round;stroke-linejoin:round;stroke-miterlimit:10;}
	.st5{fill-rule:evenodd;clip-rule:evenodd;}
	.st6{fill:#5A287F;}
	.st7{fill:#5A287F;stroke:#5A287F;stroke-miterlimit:10;}
	.st8{fill:#5A287F;stroke:#5A287F;stroke-width:2;stroke-miterlimit:10;}
	.st9{fill:#FFFFFF;}
	.st10{fill:#FFFFFF;stroke:#FFFFFF;stroke-width:12;stroke-miterlimit:10;}
	.st11{fill:#FFFFFF;stroke:#FFFFFF;stroke-width:11;stroke-miterlimit:10;}
	.st12{fill:none;stroke:#5A287F;stroke-width:4;stroke-miterlimit:10;}
	.st13{fill:none;stroke:#5A287F;stroke-width:4;stroke-linecap:round;stroke-miterlimit:10;}
	.st14{fill:none;stroke:#5A287F;stroke-width:6;stroke-linejoin:round;stroke-miterlimit:10;}
	.st15{fill:none;stroke:#5A287F;stroke-width:4;stroke-linecap:round;stroke-linejoin:round;stroke-miterlimit:10;}
	.st16{fill:none;stroke:#FFFFFF;stroke-width:3;stroke-linecap:round;stroke-miterlimit:10;}
	.st17{fill:none;stroke:#FFFFFF;stroke-width:3;stroke-linecap:round;stroke-linejoin:round;stroke-miterlimit:10;}
	.st18{fill:none;stroke:#FFFFFF;stroke-width:2;stroke-linecap:round;stroke-linejoin:round;stroke-miterlimit:10;}
	.st19{fill:none;stroke:#FFFFFF;stroke-linecap:round;stroke-linejoin:round;stroke-miterlimit:10;}
	.st20{fill:none;stroke:#5A287F;stroke-width:5;stroke-miterlimit:10;}
	.st21{fill:none;stroke:#FFFFFF;stroke-width:4;stroke-linecap:round;stroke-linejoin:round;stroke-miterlimit:10;}
	.st22{fill:none;stroke:#5A287F;stroke-width:7;stroke-miterlimit:10;}
	.st23{fill:none;stroke:#FFFFFF;stroke-width:4;stroke-linecap:round;stroke-miterlimit:10;}
	.st24{fill:#5A287F;stroke:#5A287F;stroke-width:3;stroke-miterlimit:10;}
	.st25{fill:#5A287F;stroke:#5A287F;stroke-width:0.75;stroke-miterlimit:10;}
	.st26{fill:none;stroke:#FFFFFF;stroke-width:5;stroke-linecap:round;stroke-linejoin:round;stroke-miterlimit:10;}
	.st27{fill:none;stroke:#5A287F;stroke-width:3;stroke-linecap:round;stroke-linejoin:round;stroke-miterlimit:10;}
	.st28{fill:#FFFFFF;stroke:#FFFFFF;stroke-width:10;stroke-miterlimit:10;}
	.st29{fill:#5A287F;stroke:#FFFFFF;stroke-width:2;stroke-miterlimit:10;}
	.st30{fill:#5A287F;stroke:#FFFFFF;stroke-miterlimit:10;}
	.st31{fill:#FFFFFF;stroke:#5A287F;stroke-width:5;stroke-miterlimit:10;}
	.st32{fill:none;stroke:#5A287F;stroke-width:5;stroke-linecap:round;stroke-linejoin:round;stroke-miterlimit:10;}
	.st33{fill:none;stroke:#5A287F;stroke-width:6;stroke-linecap:round;stroke-linejoin:round;stroke-miterlimit:10;}
	.st34{fill:#FFFFFF;stroke:#5A287F;stroke-width:5;stroke-linecap:round;stroke-linejoin:round;stroke-miterlimit:10;}
	.st35{fill:#5A287F;stroke:#5A287F;stroke-width:3;stroke-linecap:round;stroke-linejoin:round;stroke-miterlimit:10;}
	.st36{fill:#FFFFFF;stroke:#5A287F;stroke-width:6;stroke-miterlimit:10;}
	.st37{fill:#FFFFFF;stroke:#5A287F;stroke-width:6;stroke-linecap:round;stroke-linejoin:round;stroke-miterlimit:10;}
	.st38{fill:#FFFFFF;stroke:#5A287F;stroke-width:4;stroke-linecap:round;stroke-linejoin:round;stroke-miterlimit:10;}
	.st39{fill:none;stroke:#5A287F;stroke-width:7;stroke-linecap:round;stroke-linejoin:round;stroke-miterlimit:10;}
	.st40{fill:#5A287F;stroke:#FFFFFF;stroke-width:3;stroke-miterlimit:10;}
	.st41{fill:#5A287F;stroke:#5A287F;stroke-width:4;stroke-linecap:round;stroke-linejoin:round;stroke-miterlimit:10;}
	.st42{fill:none;}
</style>
<g id="Layer_3" class="st0">
</g>
<g id="icone_sport" class="st0">
	<g class="st3">
		<path class="st4" d="M482.3,334l-134.8,21l-19.4-34l-29.2,8.2 M367.9,280.1l31,140.3l73.5,8.1l-3.2-91.8 M430.4,243.6
			c0,0-66.2-140.1-205-92c-133,46.1-140.5,188.9-67.8,280.9c0,0,58.1-18.6,98.5,7.3c40.4,25.8,128.3-23.4,103.3-86.4
			s17-78.3,17-78.3l58.9-19.4c0,0,10.8-1.8,6.1-10.7C438.4,239.5,430.4,243.6,430.4,243.6l-108.2,34.7l-36.8,78l73.5,42.1
			l127.2-19.3"/>
		<circle class="st5" cx="297" cy="270.4" r="9.7"/>
		<circle class="st5" cx="317.2" cy="408" r="9.7"/>
		<circle class="st5" cx="285.7" cy="418" r="9.7"/>
	</g>
</g>
<g id="base_immagini">
</g>
<g id="ICONE_CAUSE">
	<g>
		<g>
			<g>
				<path class="st6" d="M329,321.7c-3-2.4-5.3-5.5-6.6-9.2c-1.4-3.7-3.2-7.2-5.3-10.4c-4.5-6.7-10.9-10.1-16.8-10.2
					c-10.8-0.2-17.6,3.4-22.6,10.5l-6.2,13.8c-2.9,2.7-5.8,5.5-8.6,8.4c-10.7,11.5-6.1,29.6,8.6,33.3c5.9,1.5,11.3,0,16.5-2.5
					c6.3-3.1,12.6-3,18.9,0c1.4,0.7,2.8,1.3,4.2,1.8c7.5,2.7,14.6,1.5,20.5-3.8c5.9-5.3,7-12.2,5.3-19.7
					C336,328.7,333,324.8,329,321.7z M290.8,302.8c-5.4,1.7-6.4,6.5-6.4,6.5c0,0.3-1.5,8.8-10.6,16.3c-4.9,4-7.5,8.2-7.8,12.4
					c-0.3,5,2.9,8.4,2.9,8.4c0.7,0.7,0.6,1.7,0,2.4c-0.3,0.3-0.8,0.5-1.2,0.5c-0.4,0-0.9-0.2-1.2-0.5c-0.2-0.2-4.3-4.5-3.9-11
					c0.3-5.2,3.3-10.2,9-14.9c8.1-6.6,9.4-14.2,9.4-14.2c0.1-0.3,1.4-6.9,8.7-9.2c0.9-0.3,1.8,0.2,2.1,1.1
					C292.2,301.6,291.7,302.6,290.8,302.8z"/>
				<path class="st6" d="M271.5,286.8c7.1,4,15.2,2,19-5.3c1.6-3.1,2.2-6.7,2.8-8.6c-0.6-10.4-3.6-17.9-11.5-22.4
					c-6.8-3.9-14.5-1.7-18.5,5.1C257.3,265.5,261.4,281.1,271.5,286.8z M266.9,275.7c-6.2-10.7,1-21.2,1.3-21.6
					c0.5-0.8,1.6-0.9,2.4-0.4c0.8,0.5,0.9,1.6,0.4,2.4c-0.3,0.4-6.3,9.2-1.2,18c0.5,0.8,0.2,1.9-0.6,2.3c-0.3,0.2-0.6,0.2-0.9,0.2
					C267.7,276.5,267.2,276.2,266.9,275.7z"/>
				<path class="st6" d="M323,287.1c10.7-5.5,15.1-21.8,8.6-32c-3.9-6.1-10.8-8.3-17.4-5c-8.5,4.3-11.7,11.9-12.5,22.6
					c0.7,2.1,1.4,5.9,3.1,9.2C308.6,288.7,316.2,290.6,323,287.1z M318.8,252.6c0.9-0.2,1.8,0.3,2,1.3c0.2,0.9-0.3,1.8-1.3,2
					c-0.4,0.1-9.9,2.6-9.9,15.1c0,0.9-0.8,1.7-1.7,1.7c-0.9,0-1.7-0.8-1.7-1.7C306.3,255.7,318.7,252.6,318.8,252.6z"/>
				<path class="st6" d="M266.4,302.9c0-9.2-6.6-18.6-15-21.1c-7.8-2.3-15.2,2.1-16.7,10.1c-1.7,8.6,3.2,18.8,11.1,23.1
					C255.9,320.7,266.4,314.5,266.4,302.9z M243.8,288.1c-0.3,0.3-6.9,5.9-1.2,15.6c0.5,0.8,0.2,1.8-0.6,2.3
					c-0.3,0.2-0.6,0.2-0.9,0.2c-0.6,0-1.1-0.3-1.5-0.8c-5.9-9.8-1.3-17.4,1.9-20c0.7-0.6,1.8-0.5,2.4,0.2
					C244.6,286.5,244.5,287.5,243.8,288.1z"/>
				<path class="st6" d="M360.9,294.2c-1-11.1-11.1-16.5-20.8-10.8c-6.5,3.7-10.8,10.4-11.3,17.9c-0.1,11.8,8.4,18.3,18,14.9
					C355.2,313.2,361.7,303,360.9,294.2z M346.3,288.7c-0.4,0-7.9,0.3-10.7,11.6c-0.2,0.8-0.9,1.3-1.6,1.3c-0.1,0-0.3,0-0.4,0
					c-0.9-0.2-1.5-1.1-1.2-2.1c3.4-14,13.5-14.2,14-14.2c0.9,0,1.7,0.8,1.7,1.7C347.9,287.9,347.2,288.7,346.3,288.7z"/>
			</g>
			<path class="st6" d="M296.8,200.9c-0.6,0.1-1.2,0.2-1.8,0.4c-22.3,8.9-45.9,17.8-86.1,19.1c-3.8,0.1-6.8,3.2-6.8,7
				c0,7.8,0,51.6,0,58.7c0,39.7,12.1,68,30.1,87.6c18,19.6,41.3,30.3,63.4,36.5c1.2,0.3,2.5,0.3,3.8,0c22.1-6.2,45.5-16.9,63.4-36.5
				c18-19.6,30.1-47.9,30.1-87.6c0-7.2,0-50.9,0-58.7c0-3.8-3-6.9-6.8-7c-40.2-1.3-63.8-10.1-86.1-19.1
				C299.2,200.9,298,200.8,296.8,200.9z M297.6,208c22.3,8.9,48.8,17.7,88.2,19.9c0,14.1,0,49.7,0,56.6c0,39.9-11.7,66.2-28.6,84.6
				c-16.4,17.8-38,28.1-59.6,34.4c-21.6-6.3-43.2-16.6-59.6-34.4c-16.9-18.4-28.6-44.6-28.6-84.6c0-6.9,0-42.5,0-56.6
				C248.9,225.7,275.3,216.9,297.6,208L297.6,208z"/>
			<path class="st15" d="M301,391.4c0,0,22.3-4.6,39.8-20.8"/>
			<path class="st15" d="M374.8,240.4c0,0,1.4,35.4-0.5,47.5"/>
		</g>
		<circle class="st22" cx="297.6" cy="297.6" r="146.2"/>
	</g>
</g>
</svg>
