<?xml version="1.0" encoding="utf-8"?>
<!-- Generator: Adobe Illustrator 25.2.1, SVG Export Plug-In . SVG Version: 6.00 Build 0)  -->
<svg version="1.1" xmlns="http://www.w3.org/2000/svg" xmlns:xlink="http://www.w3.org/1999/xlink" x="0px" y="0px"
	 viewBox="0 0 595.3 595.3" style="enable-background:new 0 0 595.3 595.3;" xml:space="preserve">
<style type="text/css">
	.st0{display:none;}
	.st1{display:inline;fill:none;stroke:#222221;stroke-width:7;stroke-miterlimit:10;}
	.st2{display:inline;fill-rule:evenodd;clip-rule:evenodd;}
	.st3{display:inline;}
	
		.st4{fill-rule:evenodd;clip-rule:evenodd;fill:none;stroke:#000000;stroke-width:7;stroke-linecap:round;stroke-linejoin:round;stroke-miterlimit:10;}
	.st5{fill-rule:evenodd;clip-rule:evenodd;}
	.st6{fill:#5A287F;}
	.st7{fill:#5A287F;stroke:#5A287F;stroke-miterlimit:10;}
	.st8{fill:#5A287F;stroke:#5A287F;stroke-width:2;stroke-miterlimit:10;}
	.st9{fill:#FFFFFF;}
	.st10{fill:#FFFFFF;stroke:#FFFFFF;stroke-width:12;stroke-miterlimit:10;}
	.st11{fill:#FFFFFF;stroke:#FFFFFF;stroke-width:11;stroke-miterlimit:10;}
	.st12{fill:none;stroke:#5A287F;stroke-width:4;stroke-miterlimit:10;}
	.st13{fill:none;stroke:#5A287F;stroke-width:4;stroke-linecap:round;stroke-miterlimit:10;}
	.st14{fill:none;stroke:#5A287F;stroke-width:6;stroke-linejoin:round;stroke-miterlimit:10;}
	.st15{fill:none;stroke:#5A287F;stroke-width:4;stroke-linecap:round;stroke-linejoin:round;stroke-miterlimit:10;}
	.st16{fill:none;stroke:#FFFFFF;stroke-width:3;stroke-linecap:round;stroke-miterlimit:10;}
	.st17{fill:none;stroke:#FFFFFF;stroke-width:3;stroke-linecap:round;stroke-linejoin:round;stroke-miterlimit:10;}
	.st18{fill:none;stroke:#FFFFFF;stroke-width:2;stroke-linecap:round;stroke-linejoin:round;stroke-miterlimit:10;}
	.st19{fill:none;stroke:#FFFFFF;stroke-linecap:round;stroke-linejoin:round;stroke-miterlimit:10;}
	.st20{fill:none;stroke:#5A287F;stroke-width:5;stroke-miterlimit:10;}
	.st21{fill:none;stroke:#FFFFFF;stroke-width:4;stroke-linecap:round;stroke-linejoin:round;stroke-miterlimit:10;}
	.st22{fill:none;stroke:#5A287F;stroke-width:7;stroke-miterlimit:10;}
	.st23{fill:none;stroke:#FFFFFF;stroke-width:4;stroke-linecap:round;stroke-miterlimit:10;}
	.st24{fill:#5A287F;stroke:#5A287F;stroke-width:3;stroke-miterlimit:10;}
	.st25{fill:#5A287F;stroke:#5A287F;stroke-width:0.75;stroke-miterlimit:10;}
	.st26{fill:none;stroke:#FFFFFF;stroke-width:5;stroke-linecap:round;stroke-linejoin:round;stroke-miterlimit:10;}
	.st27{fill:none;stroke:#5A287F;stroke-width:3;stroke-linecap:round;stroke-linejoin:round;stroke-miterlimit:10;}
	.st28{fill:#FFFFFF;stroke:#FFFFFF;stroke-width:10;stroke-miterlimit:10;}
	.st29{fill:#5A287F;stroke:#FFFFFF;stroke-width:2;stroke-miterlimit:10;}
	.st30{fill:#5A287F;stroke:#FFFFFF;stroke-miterlimit:10;}
	.st31{fill:#FFFFFF;stroke:#5A287F;stroke-width:5;stroke-miterlimit:10;}
	.st32{fill:none;stroke:#5A287F;stroke-width:5;stroke-linecap:round;stroke-linejoin:round;stroke-miterlimit:10;}
	.st33{fill:none;stroke:#5A287F;stroke-width:6;stroke-linecap:round;stroke-linejoin:round;stroke-miterlimit:10;}
	.st34{fill:#FFFFFF;stroke:#5A287F;stroke-width:5;stroke-linecap:round;stroke-linejoin:round;stroke-miterlimit:10;}
	.st35{fill:#5A287F;stroke:#5A287F;stroke-width:3;stroke-linecap:round;stroke-linejoin:round;stroke-miterlimit:10;}
	.st36{fill:#FFFFFF;stroke:#5A287F;stroke-width:6;stroke-miterlimit:10;}
	.st37{fill:#FFFFFF;stroke:#5A287F;stroke-width:6;stroke-linecap:round;stroke-linejoin:round;stroke-miterlimit:10;}
	.st38{fill:#FFFFFF;stroke:#5A287F;stroke-width:4;stroke-linecap:round;stroke-linejoin:round;stroke-miterlimit:10;}
	.st39{fill:none;stroke:#5A287F;stroke-width:7;stroke-linecap:round;stroke-linejoin:round;stroke-miterlimit:10;}
	.st40{fill:#5A287F;stroke:#FFFFFF;stroke-width:3;stroke-miterlimit:10;}
	.st41{fill:#5A287F;stroke:#5A287F;stroke-width:4;stroke-linecap:round;stroke-linejoin:round;stroke-miterlimit:10;}
	.st42{fill:none;}
</style>
<g id="Layer_3" class="st0">
</g>
<g id="icone_sport" class="st0">
</g>
<g id="base_immagini">
</g>
<g id="ICONE_CAUSE">
	<g>
		<circle class="st30" cx="223.6" cy="264.4" r="21.6"/>
		<path class="st6" d="M257,356.8c-2.4,5.6-7.1,7.4-8.4,7.8c-0.7,1.2-2.1,2-3.6,2H202c-1.5,0-2.8-0.8-3.6-1.9c0,0-6-1.3-8.8-7.9
			c-2.7-6.3,7.8-44.2,8.8-47.6c0,0,0,0,0,0c2.6-11.4,12.9-19.9,25.1-19.9c13.2,0,24.1,10,25.6,22.9
			C251.7,321.9,259.3,351.3,257,356.8z"/>
		<path class="st21" d="M208.1,265.4c0-9.1,7.4-16.5,16.5-16.5"/>
		<circle class="st22" cx="297.6" cy="297.6" r="146.2"/>
		<path class="st40" d="M211.5,372.8L211.5,372.8c-5,0-9-4-9-9v-46.3c0-5,4-9,9-9h0c5,0,9,4,9,9v46.3
			C220.5,368.8,216.4,372.8,211.5,372.8z"/>
		<path class="st40" d="M234.2,372.8L234.2,372.8c-5,0-9-4-9-9v-46.3c0-5,4-9,9-9h0c5,0,9,4,9,9v46.3
			C243.2,368.8,239.1,372.8,234.2,372.8z"/>
		<path class="st17" d="M206.4,304c2.4-3.9,6.2-7.5,12.2-8.7"/>
		<g>
			<path class="st6" d="M429.1,327.9c-55.4,0-110,0-165.4,0c-0.5,0-0.9,0-1.4,0c-1.9,0.1-2.8,1.1-2.8,3c0,1.6,0,3.2,0,4.8
				c0,3.1,0.7,3.8,3.7,3.8c35.6,0,71.2,0,106.8,0c18.5,0,36.3,0,54.8,0C424.9,339.6,427.1,335.3,429.1,327.9z"/>
			<path class="st6" d="M429.9,324.8c-19.9,0-39.8,0-59.7,0c-35.6,0-71.1,0-106.7,0c-3.5,0-4.6-1.4-3.8-5c0.8-3.9,4-6.6,7.8-6.7
				c0.6,0,1.2,0,1.8,0c54.4,0,108.7,0,163.1,0C432.4,313.1,432.4,317.3,429.9,324.8z"/>
			<path class="st6" d="M269.6,341.9c3.9,0,7.7,0,11.5,0c0,0.6,0.1,1.1,0.1,1.6c0,6.8,0,13.5,0,20.3c0,2.7-0.9,3.6-3.5,3.6
				c-1.8,0-3.6,0-5.4,0c-1.5,0-2.6-1-2.6-2.5C269.5,357.3,269.6,349.7,269.6,341.9z"/>
			<path class="st6" d="M295.7,294.6c0,5.5,0,10.7,0,16.1c-3.8,0-7.6,0-11.5,0c0-3,0-6,0-8.9c0-2,0-4,0-6.1c0-0.4,0.5-1,0.7-1.1
				C288.5,294.6,292.1,294.6,295.7,294.6z"/>
			<path class="st6" d="M284.3,247.4c-0.5-3.6,0.4-4.7,3.8-4.7c1.2,0,2.5,0,3.7,0c3.4,0,4.2,1,3.9,4.7
				C291.9,247.4,288.2,247.4,284.3,247.4z"/>
			<path class="st6" d="M432.4,292.3H284.1c-6.6,0-12-5.4-12-12v-19.4c0-6.6,5.4-12,12-12H424C424,248.9,430.8,265.3,432.4,292.3z"
				/>
		</g>
		<path class="st21" d="M278,274.9c0,3.7,0,6.6,0,6.6"/>
		<path class="st21" d="M287.1,254.9c0,0-9.1-1.6-9.1,6.4c0,2.2,0,4.8,0,7.5"/>
	</g>
</g>
</svg>
