<?xml version="1.0" encoding="utf-8"?>
<!-- Generator: Adobe Illustrator 25.2.1, SVG Export Plug-In . SVG Version: 6.00 Build 0)  -->
<svg version="1.1" xmlns="http://www.w3.org/2000/svg" xmlns:xlink="http://www.w3.org/1999/xlink" x="0px" y="0px"
	 viewBox="0 0 595.3 595.3" style="enable-background:new 0 0 595.3 595.3;" xml:space="preserve">
<style type="text/css">
	.st0{display:none;}
	.st1{display:inline;fill:none;stroke:#222221;stroke-width:7;stroke-miterlimit:10;}
	.st2{display:inline;fill-rule:evenodd;clip-rule:evenodd;}
	.st3{display:inline;}
	
		.st4{fill-rule:evenodd;clip-rule:evenodd;fill:none;stroke:#000000;stroke-width:7;stroke-linecap:round;stroke-linejoin:round;stroke-miterlimit:10;}
	.st5{fill-rule:evenodd;clip-rule:evenodd;}
	.st6{fill:#5A287F;}
	.st7{fill:#5A287F;stroke:#5A287F;stroke-miterlimit:10;}
	.st8{fill:#5A287F;stroke:#5A287F;stroke-width:2;stroke-miterlimit:10;}
	.st9{fill:#FFFFFF;}
	.st10{fill:#FFFFFF;stroke:#FFFFFF;stroke-width:12;stroke-miterlimit:10;}
	.st11{fill:#FFFFFF;stroke:#FFFFFF;stroke-width:11;stroke-miterlimit:10;}
	.st12{fill:none;stroke:#5A287F;stroke-width:4;stroke-miterlimit:10;}
	.st13{fill:none;stroke:#5A287F;stroke-width:4;stroke-linecap:round;stroke-miterlimit:10;}
	.st14{fill:none;stroke:#5A287F;stroke-width:6;stroke-linejoin:round;stroke-miterlimit:10;}
	.st15{fill:none;stroke:#5A287F;stroke-width:4;stroke-linecap:round;stroke-linejoin:round;stroke-miterlimit:10;}
	.st16{fill:none;stroke:#FFFFFF;stroke-width:3;stroke-linecap:round;stroke-miterlimit:10;}
	.st17{fill:none;stroke:#FFFFFF;stroke-width:3;stroke-linecap:round;stroke-linejoin:round;stroke-miterlimit:10;}
	.st18{fill:none;stroke:#FFFFFF;stroke-width:2;stroke-linecap:round;stroke-linejoin:round;stroke-miterlimit:10;}
	.st19{fill:none;stroke:#FFFFFF;stroke-linecap:round;stroke-linejoin:round;stroke-miterlimit:10;}
	.st20{fill:none;stroke:#5A287F;stroke-width:5;stroke-miterlimit:10;}
	.st21{fill:none;stroke:#FFFFFF;stroke-width:4;stroke-linecap:round;stroke-linejoin:round;stroke-miterlimit:10;}
	.st22{fill:none;stroke:#5A287F;stroke-width:7;stroke-miterlimit:10;}
	.st23{fill:none;stroke:#FFFFFF;stroke-width:4;stroke-linecap:round;stroke-miterlimit:10;}
	.st24{fill:#5A287F;stroke:#5A287F;stroke-width:3;stroke-miterlimit:10;}
	.st25{fill:#5A287F;stroke:#5A287F;stroke-width:0.75;stroke-miterlimit:10;}
	.st26{fill:none;stroke:#FFFFFF;stroke-width:5;stroke-linecap:round;stroke-linejoin:round;stroke-miterlimit:10;}
	.st27{fill:none;stroke:#5A287F;stroke-width:3;stroke-linecap:round;stroke-linejoin:round;stroke-miterlimit:10;}
	.st28{fill:#FFFFFF;stroke:#FFFFFF;stroke-width:10;stroke-miterlimit:10;}
	.st29{fill:#5A287F;stroke:#FFFFFF;stroke-width:2;stroke-miterlimit:10;}
	.st30{fill:#5A287F;stroke:#FFFFFF;stroke-miterlimit:10;}
	.st31{fill:#FFFFFF;stroke:#5A287F;stroke-width:5;stroke-miterlimit:10;}
	.st32{fill:none;stroke:#5A287F;stroke-width:5;stroke-linecap:round;stroke-linejoin:round;stroke-miterlimit:10;}
	.st33{fill:none;stroke:#5A287F;stroke-width:6;stroke-linecap:round;stroke-linejoin:round;stroke-miterlimit:10;}
	.st34{fill:#FFFFFF;stroke:#5A287F;stroke-width:5;stroke-linecap:round;stroke-linejoin:round;stroke-miterlimit:10;}
	.st35{fill:#5A287F;stroke:#5A287F;stroke-width:3;stroke-linecap:round;stroke-linejoin:round;stroke-miterlimit:10;}
	.st36{fill:#FFFFFF;stroke:#5A287F;stroke-width:6;stroke-miterlimit:10;}
	.st37{fill:#FFFFFF;stroke:#5A287F;stroke-width:6;stroke-linecap:round;stroke-linejoin:round;stroke-miterlimit:10;}
	.st38{fill:#FFFFFF;stroke:#5A287F;stroke-width:4;stroke-linecap:round;stroke-linejoin:round;stroke-miterlimit:10;}
	.st39{fill:none;stroke:#5A287F;stroke-width:7;stroke-linecap:round;stroke-linejoin:round;stroke-miterlimit:10;}
	.st40{fill:#5A287F;stroke:#FFFFFF;stroke-width:3;stroke-miterlimit:10;}
	.st41{fill:#5A287F;stroke:#5A287F;stroke-width:4;stroke-linecap:round;stroke-linejoin:round;stroke-miterlimit:10;}
	.st42{fill:none;}
</style>
<g id="Layer_3" class="st0">
</g>
<g id="icone_sport" class="st0">
	<path class="st1" d="M406.2,412.9c-23,21.9-52.5,37-85.3,42c0,0-103-153.7,13.9-245.4C426.4,288.7,406.2,412.9,406.2,412.9z
		 M334.8,209.5c-12.3-10.7-26.7-20.5-43.4-29.1c-133.1,81.1-113.2,223.7-113.2,223.7c29.1,32.4,71.3,52.7,118.3,52.7
		c8.3,0,16.4-0.6,24.3-1.8C320.9,454.9,217.9,301.2,334.8,209.5z M291.4,180.4c-10.9-5.6-22.8-10.7-35.8-15.2
		c-27.8,36-87.4,38.4-87.4,38.4c-19.3,26.4-30.8,58.9-30.8,94c0,40.9,15.5,78.2,40.8,106.4C178.2,404.1,158.3,261.5,291.4,180.4z
		 M223.6,156.1c-22,11.3-41,27.7-55.5,47.5c0,0,59.7-2.4,87.4-38.4C245.6,161.8,234.9,158.8,223.6,156.1z M444.7,239.5
		c-14-35.5-40.3-64.8-73.8-82.6c0,0,0,0,0,0c-22.2-11.8-47.5-18.4-74.4-18.4c-10.7,0-21.1,1-31.2,3.1c-14.7,2.9-28.8,7.9-41.7,14.6
		c11.3,2.6,21.9,5.7,31.9,9.1c13,4.5,24.9,9.5,35.8,15.2c16.7,8.6,31.1,18.4,43.4,29.1c91.7,79.2,71.4,203.4,71.4,203.4
		c30.5-29,49.5-69.9,49.5-115.3C455.7,277.1,451.8,257.5,444.7,239.5z M444.7,239.5c0,0-52.4-70.4-109.6-30.3
		c-0.1,0.1-0.2,0.2-0.4,0.3 M265.3,141.6c0,0.1,0,7.4-7.9,21.1c-0.6,0.9-1.3,1.8-1.9,2.6 M291.4,180.4c0.7-0.4,1.4-0.9,2.2-1.3
		c46.8-28,76.2-22.4,77.4-22.2c0,0,0,0,0,0"/>
</g>
<g id="base_immagini">
</g>
<g id="ICONE_CAUSE">
	<g>
		<g>
			<path class="st6" d="M409.8,274.8c-6-4.1-12-8.1-18.1-12.1c-1.2-0.7-1.9-2-1.8-3.3c0.1-9.8,0-19.6,0-29.3c0-6.6-2.9-9.5-9.4-9.5
				c-3,0-6-0.3-8.9,0.1c-2,0.3-3.9,1.2-5.5,2.4c-1.9,1.4-2.4,3.8-2.4,6.2v14.7c-1-0.6-1.7-1-2.4-1.5c-18.6-12.4-37.2-24.8-55.9-37.2
				c-5.6-3.7-10.1-3.7-15.7,0.1c-17.6,11.7-35.2,23.4-52.8,35.2l-14.4,9.6c-11.4,7.6-22.8,15.3-34.3,22.8c-3.8,2.4-6.7,5.3-7.9,9.6
				v4.6c0.1,0.2,0.3,0.4,0.4,0.6c2.9,8.9,11.5,11.9,19.4,6.8c1.6-1.1,3.3-2.2,5.3-3.5v3.2c0,29,0,57.9,0.1,86.9
				c0,2.3,0.4,4.5,1.4,6.6c2.1,4.1,5.9,5.3,10.4,5.3c40.2,0,80.4,0,120.6,0H354c8.3,0,16.7,0,25,0c2.8,0.1,5.5-0.9,7.6-2.7
				c2.6-2.4,3.4-5.4,3.4-8.9c0-29,0-58.1,0-87.1v-3.2c2.3,1.5,4.2,2.8,6.1,4c3,2,6.7,2.6,10.1,1.5c4.9-1.4,7.8-4.7,8.7-9.6
				C415.7,281.9,413.9,277.6,409.8,274.8z M372.7,227.3c2.8,0.1,5.6,0,8.5,0c1.2,0,1.9,0.4,1.9,1.7c0,9,0,18-0.1,27
				c0,0.1-0.2,0.2-0.4,0.5c-3.8-2.5-7.5-5-11.3-7.5c-0.4-0.3-0.6-1.2-0.6-1.8c0-5.9,0-11.7,0-17.6
				C370.6,228.1,371.1,227.3,372.7,227.3z M383,381.2c0,3.6-1,4.6-4.7,4.6H217.6c-4.6,0-5.3-0.8-5.3-5.3c0-30.6,0-61.1-0.1-91.7
				c-0.1-1.7,0.7-3.2,2.2-4c27.2-18.1,54.4-36.2,81.6-54.3c1.3-0.9,2.1-0.8,3.4,0c27.3,18.2,54.6,36.4,82,54.6
				c1.1,0.6,1.8,1.8,1.7,3.1C383,319.2,383,350.2,383,381.2z"/>
			<path class="st9" d="M382.6,256.6c-3.8-2.5-7.6-5-11.3-7.6c-0.4-0.3-0.6-1.2-0.6-1.8c0-5.9,0-11.7,0-17.6c0-1.5,0.4-2.3,2.1-2.2
				c2.8,0.1,5.6,0,8.5,0c1.2,0,1.9,0.4,1.9,1.7c0,9,0,18-0.1,27C383,256.1,382.8,256.3,382.6,256.6z"/>
			<path class="st23" d="M233.8,250.8l-43.5,28.9c0,0-5.5,3-2,8.4"/>
			<line class="st23" x1="247.1" y1="241.9" x2="284" y2="217.4"/>
			<g>
				<path class="st6" d="M325.8,336.4c-2.7-2.1-4.8-5-5.9-8.2c-1.2-3.3-2.8-6.4-4.8-9.3c-4-6-9.7-9.1-15.1-9.1
					c-9.7-0.2-15.8,3-20.2,9.4l-5.5,12.4c-2.6,2.5-5.2,4.9-7.7,7.5c-9.6,10.4-5.4,26.5,7.7,29.9c5.3,1.4,10.1,0,14.8-2.3
					c5.7-2.8,11.3-2.7,17,0c1.2,0.6,2.5,1.1,3.8,1.6c6.7,2.4,13.1,1.4,18.4-3.4c5.3-4.8,6.3-10.9,4.7-17.6
					C332,342.7,329.3,339.2,325.8,336.4z M291.5,319.4c-4.8,1.5-5.7,5.8-5.7,5.9c0,0.3-1.3,7.9-9.5,14.6c-4.4,3.6-6.7,7.4-7,11.2
					c-0.3,4.5,2.6,7.5,2.6,7.5c0.6,0.6,0.6,1.6,0,2.2c-0.3,0.3-0.7,0.4-1.1,0.4c-0.4,0-0.8-0.2-1.1-0.5c-0.2-0.2-3.8-4-3.5-9.8
					c0.3-4.7,3-9.2,8.1-13.3c7.2-5.9,8.4-12.7,8.4-12.8c0.1-0.3,1.3-6.2,7.8-8.2c0.8-0.3,1.7,0.2,1.9,1
					C292.8,318.3,292.3,319.2,291.5,319.4z"/>
				<path class="st6" d="M274.2,305.1c6.4,3.6,13.7,1.8,17.1-4.7c1.4-2.8,2-6,2.5-7.7c-0.5-9.3-3.2-16-10.3-20.1
					c-6.1-3.5-13-1.5-16.6,4.5C261.5,286,265.1,300,274.2,305.1z M270,295.1c-5.6-9.6,0.9-19,1.2-19.4c0.5-0.7,1.4-0.9,2.1-0.4
					c0.7,0.5,0.9,1.4,0.4,2.1c-0.2,0.3-5.6,8.2-1,16.1c0.4,0.7,0.2,1.7-0.6,2.1c-0.2,0.1-0.5,0.2-0.8,0.2
					C270.8,295.9,270.3,295.6,270,295.1z"/>
				<path class="st6" d="M320.4,305.4c9.6-4.9,13.6-19.5,7.7-28.7c-3.5-5.5-9.7-7.4-15.6-4.5c-7.7,3.8-10.5,10.6-11.2,20.3
					c0.6,1.9,1.2,5.3,2.8,8.2C307.4,306.7,314.2,308.5,320.4,305.4z M316.6,274.4c0.8-0.2,1.6,0.3,1.8,1.1c0.2,0.8-0.3,1.6-1.1,1.8
					c-0.4,0.1-8.9,2.3-8.9,13.5c0,0.8-0.7,1.5-1.5,1.5s-1.5-0.7-1.5-1.5C305.4,277.2,316.5,274.4,316.6,274.4z"/>
				<path class="st6" d="M269.6,319.5c0-8.3-5.9-16.6-13.5-18.9c-7-2.1-13.6,1.9-15,9.1c-1.5,7.7,2.9,16.8,10,20.7
					C260.2,335.4,269.6,329.9,269.6,319.5z M249.3,306.3c-0.3,0.2-6.2,5.3-1.1,14c0.4,0.7,0.2,1.7-0.5,2.1c-0.2,0.1-0.5,0.2-0.8,0.2
					c-0.5,0-1-0.3-1.3-0.7c-5.3-8.8-1.2-15.6,1.7-17.9c0.7-0.5,1.6-0.4,2.1,0.2C250.1,304.8,250,305.7,249.3,306.3z"/>
				<path class="st6" d="M354.3,311.7c-0.9-10-10-14.8-18.6-9.7c-5.8,3.3-9.6,9.4-10.1,16.1c-0.1,10.6,7.5,16.4,16.1,13.3
					C349.2,328.7,355,319.6,354.3,311.7z M341.2,306.8c-0.3,0-7.1,0.3-9.6,10.4c-0.2,0.7-0.8,1.2-1.5,1.2c-0.1,0-0.2,0-0.4,0
					c-0.8-0.2-1.3-1-1.1-1.8c3.1-12.6,12.1-12.7,12.5-12.7c0.8,0,1.5,0.7,1.5,1.5C342.7,306.1,342,306.8,341.2,306.8z"/>
			</g>
		</g>
		<circle class="st22" cx="297.6" cy="297.6" r="146.2"/>
	</g>
</g>
</svg>
