<?xml version="1.0" encoding="utf-8"?>
<!-- Generator: Adobe Illustrator 25.2.1, SVG Export Plug-In . SVG Version: 6.00 Build 0)  -->
<svg version="1.1" xmlns="http://www.w3.org/2000/svg" xmlns:xlink="http://www.w3.org/1999/xlink" x="0px" y="0px"
	 viewBox="0 0 595.3 595.3" style="enable-background:new 0 0 595.3 595.3;" xml:space="preserve">
<style type="text/css">
	.st0{display:none;}
	.st1{display:inline;fill:none;stroke:#222221;stroke-width:7;stroke-miterlimit:10;}
	.st2{display:inline;fill-rule:evenodd;clip-rule:evenodd;}
	.st3{display:inline;}
	
		.st4{fill-rule:evenodd;clip-rule:evenodd;fill:none;stroke:#000000;stroke-width:7;stroke-linecap:round;stroke-linejoin:round;stroke-miterlimit:10;}
	.st5{fill-rule:evenodd;clip-rule:evenodd;}
	.st6{fill:#5A287F;}
	.st7{fill:#5A287F;stroke:#5A287F;stroke-miterlimit:10;}
	.st8{fill:#5A287F;stroke:#5A287F;stroke-width:2;stroke-miterlimit:10;}
	.st9{fill:#FFFFFF;}
	.st10{fill:#FFFFFF;stroke:#FFFFFF;stroke-width:12;stroke-miterlimit:10;}
	.st11{fill:#FFFFFF;stroke:#FFFFFF;stroke-width:11;stroke-miterlimit:10;}
	.st12{fill:none;stroke:#5A287F;stroke-width:4;stroke-miterlimit:10;}
	.st13{fill:none;stroke:#5A287F;stroke-width:4;stroke-linecap:round;stroke-miterlimit:10;}
	.st14{fill:none;stroke:#5A287F;stroke-width:6;stroke-linejoin:round;stroke-miterlimit:10;}
	.st15{fill:none;stroke:#5A287F;stroke-width:4;stroke-linecap:round;stroke-linejoin:round;stroke-miterlimit:10;}
	.st16{fill:none;stroke:#FFFFFF;stroke-width:3;stroke-linecap:round;stroke-miterlimit:10;}
	.st17{fill:none;stroke:#FFFFFF;stroke-width:3;stroke-linecap:round;stroke-linejoin:round;stroke-miterlimit:10;}
	.st18{fill:none;stroke:#FFFFFF;stroke-width:2;stroke-linecap:round;stroke-linejoin:round;stroke-miterlimit:10;}
	.st19{fill:none;stroke:#FFFFFF;stroke-linecap:round;stroke-linejoin:round;stroke-miterlimit:10;}
	.st20{fill:none;stroke:#5A287F;stroke-width:5;stroke-miterlimit:10;}
	.st21{fill:none;stroke:#FFFFFF;stroke-width:4;stroke-linecap:round;stroke-linejoin:round;stroke-miterlimit:10;}
	.st22{fill:none;stroke:#5A287F;stroke-width:7;stroke-miterlimit:10;}
	.st23{fill:none;stroke:#FFFFFF;stroke-width:4;stroke-linecap:round;stroke-miterlimit:10;}
	.st24{fill:#5A287F;stroke:#5A287F;stroke-width:3;stroke-miterlimit:10;}
	.st25{fill:#5A287F;stroke:#5A287F;stroke-width:0.75;stroke-miterlimit:10;}
	.st26{fill:none;stroke:#FFFFFF;stroke-width:5;stroke-linecap:round;stroke-linejoin:round;stroke-miterlimit:10;}
	.st27{fill:none;stroke:#5A287F;stroke-width:3;stroke-linecap:round;stroke-linejoin:round;stroke-miterlimit:10;}
	.st28{fill:#FFFFFF;stroke:#FFFFFF;stroke-width:10;stroke-miterlimit:10;}
	.st29{fill:#5A287F;stroke:#FFFFFF;stroke-width:2;stroke-miterlimit:10;}
	.st30{fill:#5A287F;stroke:#FFFFFF;stroke-miterlimit:10;}
	.st31{fill:#FFFFFF;stroke:#5A287F;stroke-width:5;stroke-miterlimit:10;}
	.st32{fill:none;stroke:#5A287F;stroke-width:5;stroke-linecap:round;stroke-linejoin:round;stroke-miterlimit:10;}
	.st33{fill:none;stroke:#5A287F;stroke-width:6;stroke-linecap:round;stroke-linejoin:round;stroke-miterlimit:10;}
	.st34{fill:#FFFFFF;stroke:#5A287F;stroke-width:5;stroke-linecap:round;stroke-linejoin:round;stroke-miterlimit:10;}
	.st35{fill:#5A287F;stroke:#5A287F;stroke-width:3;stroke-linecap:round;stroke-linejoin:round;stroke-miterlimit:10;}
	.st36{fill:#FFFFFF;stroke:#5A287F;stroke-width:6;stroke-miterlimit:10;}
	.st37{fill:#FFFFFF;stroke:#5A287F;stroke-width:6;stroke-linecap:round;stroke-linejoin:round;stroke-miterlimit:10;}
	.st38{fill:#FFFFFF;stroke:#5A287F;stroke-width:4;stroke-linecap:round;stroke-linejoin:round;stroke-miterlimit:10;}
	.st39{fill:none;stroke:#5A287F;stroke-width:7;stroke-linecap:round;stroke-linejoin:round;stroke-miterlimit:10;}
	.st40{fill:#5A287F;stroke:#FFFFFF;stroke-width:3;stroke-miterlimit:10;}
	.st41{fill:#5A287F;stroke:#5A287F;stroke-width:4;stroke-linecap:round;stroke-linejoin:round;stroke-miterlimit:10;}
	.st42{fill:none;}
</style>
<g id="Layer_3" class="st0">
</g>
<g id="icone_sport" class="st0">
</g>
<g id="base_immagini">
</g>
<g id="ICONE_CAUSE">
	<g>
		<circle class="st22" cx="297.6" cy="297.6" r="146.2"/>
		<path class="st39" d="M371.6,250.4c0,0,25.9,39.3-13.5,49.8c-39.4,10.5-30.9-22.2-78.2-21.6s-55.2,12.4-60.4,21.6
			c0,0-20.4-59.1,28.3-84.8c0,0,16.4-26.9,57.2-26.3c28.9,0.7,66.4,17.1,67.7,49.9s-26.9,26.9-37.4,23.7
			c-10.5-3.3-27.5-24.1-44.6-18"/>
		<path class="st6" d="M282.6,294.2c0,0-9.9-8.7-24.7,0c-14.7,8.7-16.9,6.5-20.8,4.8c0,0,3,9.9,20.3,5.2c17.3-4.8,24.2-1.5,25.1-1.8
			C283.4,302,288.2,299.8,282.6,294.2z"/>
		<path class="st6" d="M342.7,341.2l-4.7,2.1c-0.6,0.2-8.5,3.6-18.8,3.6c-7.1,0-15.3-1.6-22.9-7c-7.6,5.4-15.8,7-22.9,7
			c-10.3,0-18.2-3.4-18.8-3.6l-4.7-2.1l5-1c4.7-0.9,12.1-7.6,18.1-13c4.7-4.2,8.7-7.8,11.5-9c3-1.3,6.2-1,9.3,0.9
			c1,0.6,1.8,1.2,2.4,1.8c0,0,0,0,0,0c0.6-0.6,1.4-1.2,2.4-1.8c3.1-1.8,6.3-2.1,9.3-0.9c2.8,1.2,6.8,4.8,11.5,9
			c6,5.4,13.5,12,18.1,13L342.7,341.2z"/>
		<path class="st6" d="M370.1,319.1c-4.3,20.1-44.4,42.9-59.9,35c-15.5-7.9-16.6-3-27.9-1c-45.2,8.5-60.8-37.9-60.8-37.9
			s-1.5,52.3,25.9,71.6c0,0-1.9-8.5-1.2-12.4c0,0,12.4,32.1,50.1,31.7s45.9-34.1,45.9-34.1s2.3,8.5-0.8,14.3c0,0,17.8-12,24.8-34.8
			C372.3,332.1,370.5,321.8,370.1,319.1z"/>
		<path class="st15" d="M240.5,234.9c3.4-3.7,7.8-7,13.4-9.3c0,0,7.2-20,37.5-25.8"/>
		<path class="st15" d="M229.1,275.1c0,0-1.4-11,2.1-23.1"/>
		<path class="st15" d="M366,268.3c0,0,5.7,19.4-16.4,20.8"/>
		<path class="st21" d="M232,348.9c0,0,2,11.6,7.2,18.1"/>
		<path class="st21" d="M253.1,367c0,0,8.8,26.9,40.2,31.7"/>
	</g>
</g>
</svg>
