<?xml version="1.0" encoding="utf-8"?>
<!-- Generator: Adobe Illustrator 25.2.1, SVG Export Plug-In . SVG Version: 6.00 Build 0)  -->
<svg version="1.1" xmlns="http://www.w3.org/2000/svg" xmlns:xlink="http://www.w3.org/1999/xlink" x="0px" y="0px"
	 viewBox="0 0 595.3 595.3" style="enable-background:new 0 0 595.3 595.3;" xml:space="preserve">
<style type="text/css">
	.st0{display:none;}
	.st1{display:inline;fill:none;stroke:#222221;stroke-width:7;stroke-miterlimit:10;}
	.st2{display:inline;fill-rule:evenodd;clip-rule:evenodd;}
	.st3{display:inline;}
	
		.st4{fill-rule:evenodd;clip-rule:evenodd;fill:none;stroke:#000000;stroke-width:7;stroke-linecap:round;stroke-linejoin:round;stroke-miterlimit:10;}
	.st5{fill-rule:evenodd;clip-rule:evenodd;}
	.st6{fill:#5A287F;}
	.st7{fill:#5A287F;stroke:#5A287F;stroke-miterlimit:10;}
	.st8{fill:#5A287F;stroke:#5A287F;stroke-width:2;stroke-miterlimit:10;}
	.st9{fill:#FFFFFF;}
	.st10{fill:#FFFFFF;stroke:#FFFFFF;stroke-width:12;stroke-miterlimit:10;}
	.st11{fill:#FFFFFF;stroke:#FFFFFF;stroke-width:11;stroke-miterlimit:10;}
	.st12{fill:none;stroke:#5A287F;stroke-width:4;stroke-miterlimit:10;}
	.st13{fill:none;stroke:#5A287F;stroke-width:4;stroke-linecap:round;stroke-miterlimit:10;}
	.st14{fill:none;stroke:#5A287F;stroke-width:6;stroke-linejoin:round;stroke-miterlimit:10;}
	.st15{fill:none;stroke:#5A287F;stroke-width:4;stroke-linecap:round;stroke-linejoin:round;stroke-miterlimit:10;}
	.st16{fill:none;stroke:#FFFFFF;stroke-width:3;stroke-linecap:round;stroke-miterlimit:10;}
	.st17{fill:none;stroke:#FFFFFF;stroke-width:3;stroke-linecap:round;stroke-linejoin:round;stroke-miterlimit:10;}
	.st18{fill:none;stroke:#FFFFFF;stroke-width:2;stroke-linecap:round;stroke-linejoin:round;stroke-miterlimit:10;}
	.st19{fill:none;stroke:#FFFFFF;stroke-linecap:round;stroke-linejoin:round;stroke-miterlimit:10;}
	.st20{fill:none;stroke:#5A287F;stroke-width:5;stroke-miterlimit:10;}
	.st21{fill:none;stroke:#FFFFFF;stroke-width:4;stroke-linecap:round;stroke-linejoin:round;stroke-miterlimit:10;}
	.st22{fill:none;stroke:#5A287F;stroke-width:7;stroke-miterlimit:10;}
	.st23{fill:none;stroke:#FFFFFF;stroke-width:4;stroke-linecap:round;stroke-miterlimit:10;}
	.st24{fill:#5A287F;stroke:#5A287F;stroke-width:3;stroke-miterlimit:10;}
	.st25{fill:#5A287F;stroke:#5A287F;stroke-width:0.75;stroke-miterlimit:10;}
	.st26{fill:none;stroke:#FFFFFF;stroke-width:5;stroke-linecap:round;stroke-linejoin:round;stroke-miterlimit:10;}
	.st27{fill:none;stroke:#5A287F;stroke-width:3;stroke-linecap:round;stroke-linejoin:round;stroke-miterlimit:10;}
	.st28{fill:#FFFFFF;stroke:#FFFFFF;stroke-width:10;stroke-miterlimit:10;}
	.st29{fill:#5A287F;stroke:#FFFFFF;stroke-width:2;stroke-miterlimit:10;}
	.st30{fill:#5A287F;stroke:#FFFFFF;stroke-miterlimit:10;}
	.st31{fill:#FFFFFF;stroke:#5A287F;stroke-width:5;stroke-miterlimit:10;}
	.st32{fill:none;stroke:#5A287F;stroke-width:5;stroke-linecap:round;stroke-linejoin:round;stroke-miterlimit:10;}
	.st33{fill:none;stroke:#5A287F;stroke-width:6;stroke-linecap:round;stroke-linejoin:round;stroke-miterlimit:10;}
	.st34{fill:#FFFFFF;stroke:#5A287F;stroke-width:5;stroke-linecap:round;stroke-linejoin:round;stroke-miterlimit:10;}
	.st35{fill:#5A287F;stroke:#5A287F;stroke-width:3;stroke-linecap:round;stroke-linejoin:round;stroke-miterlimit:10;}
	.st36{fill:#FFFFFF;stroke:#5A287F;stroke-width:6;stroke-miterlimit:10;}
	.st37{fill:#FFFFFF;stroke:#5A287F;stroke-width:6;stroke-linecap:round;stroke-linejoin:round;stroke-miterlimit:10;}
	.st38{fill:#FFFFFF;stroke:#5A287F;stroke-width:4;stroke-linecap:round;stroke-linejoin:round;stroke-miterlimit:10;}
	.st39{fill:none;stroke:#5A287F;stroke-width:7;stroke-linecap:round;stroke-linejoin:round;stroke-miterlimit:10;}
	.st40{fill:#5A287F;stroke:#FFFFFF;stroke-width:3;stroke-miterlimit:10;}
	.st41{fill:#5A287F;stroke:#5A287F;stroke-width:4;stroke-linecap:round;stroke-linejoin:round;stroke-miterlimit:10;}
	.st42{fill:none;}
</style>
<g id="Layer_3" class="st0">
</g>
<g id="icone_sport" class="st0">
	<path class="st2" d="M267.8,456.2c87.7,0,158.8-71.1,158.8-158.8s-71.1-158.4-158.8-158.4s-158.4,70.7-158.4,158.4
		S180.1,456.2,267.8,456.2z M408.4,360.2c-9.5,20.9-22.5,38.3-39.5,53.3c-7.5,4.3-26.5,9.1-40.7,10.7c-4.7-11.8-8.7-23.7-12.6-35.5
		c15-18.6,28.4-37.5,39.1-59.2c15.8-2.8,31.2-6.3,46.6-11.1C405.6,332.2,408.4,345.6,408.4,360.2z M414.7,251.2
		c-2.4,0.4-4.3,0.8-6.3,1.2c-9.5-19.7-19.4-37.9-35.5-52.9c-3.2-7.9-6.3-15.4-9.9-22.9C388.7,198.7,403.7,218.8,414.7,251.2z
		 M278.9,144.2c-6.3,7.5-11.1,14.6-15.4,23.3c-22.5,5.5-44.6,12.6-64.8,23.7c-12.2-3.6-23.3-5.1-35.9-5.9
		C196.7,155.3,233,142.2,278.9,144.2z M119.7,256.4c2.8,12.6,5.1,21.7,12.6,33.2c-0.4,23.3,1.2,45.8,4.7,68.7
		c-2.8,2-5.1,3.9-7.9,5.9C112.2,327.1,111,295.9,119.7,256.4z M213.3,441.2c-7.5-13-13.4-26.5-17.4-41.1
		c15.4-7.5,30.4-16.2,45.4-24.5c22.9,6.3,46.2,11.5,69.5,15c4.3,11.8,8.3,23.7,12.6,35.2c-13.8,9.9-35.2,21.3-51.3,25.7
		C251.6,451.5,232.6,448.7,213.3,441.2z M187.2,255.6c2-19.7,4.3-41.9,13.4-59.6c20.1-11.1,41.9-18.2,64-23.7
		c19.4,9.9,36.7,22.9,52.9,36.7c-2.4,20.1-5.5,40.3-10.7,59.6c-23.3,8.7-46.6,17.4-69.5,26.5C219.6,282.8,202.2,271,187.2,255.6z
		 M322.3,210.2c15.8-4.7,31.6-6.7,47.8-6.7c15.8,15,25.3,32.8,34.4,52.5c1.2,19.4-0.4,38.3-3.6,57.7c-15.4,4.7-31.2,7.9-47,11.1
		c-12.6-19-26.9-37.1-42.3-54.1C316.8,250.4,319.9,230.7,322.3,210.2z M137.1,289.9c15.4-10.7,30.4-21.3,47-30.4
		c15.4,15.4,32.8,27.3,50.6,39.5c1.6,24.1,2.8,48.6,3.9,72.7c-15,8.3-29.6,17-45.4,24.1c-18.6-11.1-35.5-22.9-51.3-37.5
		C138.3,335.8,137.1,312.8,137.1,289.9z"/>
</g>
<g id="base_immagini">
</g>
<g id="ICONE_CAUSE">
	<g>
		<g>
			<ellipse class="st6" cx="278" cy="205.5" rx="20.7" ry="20.7"/>
			<path class="st6" d="M374.6,382.5l-13.5-67.3c-1.1-5.4-5.8-9.3-11.3-9.3h-24.7c6.6,6.5,11.8,14.3,15.1,23.2h0l0,0.3
				c2.3,6.1,3.6,12.7,3.9,19.5L352,387c1.1,5.5,5.9,9.3,11.3,9.3c0.8,0,1.5-0.1,2.3-0.2C371.8,394.9,375.9,388.7,374.6,382.5z"/>
			<path class="st6" d="M300.1,316.6c-6.1-3.6-13.1-5.7-20.7-5.7c-1.1,0-2.1,0-3.2,0.1c-4.1,0.3-8.1,1.3-11.8,2.8
				c1.6,8.8,9.2,15.2,18.2,15.2c0.5,0,1,0,1.5-0.1c0,0,0.1,0,0.1,0c0.5,0.1,1.1,0.1,1.7,0.1h27.3
				C309.8,323.9,305.3,319.7,300.1,316.6z"/>
			<path class="st6" d="M276.5,232.5c-10.2,0.8-17.8,9.7-17,19.9l2.9,37.6c4.4-1.2,8.9-2,13.6-2.2c1.1-0.1,2.2-0.1,3.3-0.1
				c7.1,0,13.9,1.2,20.3,3.3c4.8,1.6,9.3,3.8,13.4,6.4h33.1c4.5,0,8.1-3.6,8.1-8.1c0-4.5-3.6-8.1-8.1-8.1h-47.4l-2.5-31.7
				C295.6,239.3,286.7,231.7,276.5,232.5z"/>
			<path class="st20" d="M316.9,305.8c-4.1-3.4-8.7-6.2-13.6-8.4c-1.1-0.5-2.2-0.9-3.2-1.3c-6.4-2.4-13.4-3.8-20.7-3.8
				c-1,0-1.9,0-2.8,0.1c-4.7,0.2-9.3,1-13.7,2.3c-24.5,7.2-42.4,29.9-42.4,56.7c0,32.6,26.5,59.1,59,59.1c32.5,0,59-26.5,59-59.1
				c0-7.9-1.6-15.5-4.4-22.4C330.3,319.9,324.4,312,316.9,305.8z M279.4,396.6c-24.9,0-45.1-20.3-45.1-45.2
				c0-19.5,12.4-36.1,29.7-42.5c4.8-1.8,10-2.7,15.4-2.7c1,0,2.1,0,3.1,0.1c6.7,0.5,13,2.4,18.6,5.5c7.3,4,13.3,10,17.5,17.2
				c3.8,6.6,5.9,14.3,5.9,22.4C324.5,376.3,304.3,396.6,279.4,396.6z"/>
		</g>
		<path class="st21" d="M267.5,276.1c0,0-1.9-20.7-2-23.9c-0.5-8.7,7.1-13.3,11.7-13.8"/>
		<path class="st21" d="M263.4,206.9c0-8.7,7-15.7,15.7-15.7"/>
		<path class="st15" d="M231.7,331.2c5.8-13.7,17.3-24.4,31.5-29.2"/>
		<line class="st21" x1="350.7" y1="351.8" x2="357.6" y2="386.2"/>
		<circle class="st22" cx="297.6" cy="297.6" r="146.2"/>
	</g>
</g>
</svg>
