<?xml version="1.0" encoding="utf-8"?>
<!-- Generator: Adobe Illustrator 25.2.1, SVG Export Plug-In . SVG Version: 6.00 Build 0)  -->
<svg version="1.1" xmlns="http://www.w3.org/2000/svg" xmlns:xlink="http://www.w3.org/1999/xlink" x="0px" y="0px"
	 viewBox="0 0 595.3 595.3" style="enable-background:new 0 0 595.3 595.3;" xml:space="preserve">
<style type="text/css">
	.st0{display:none;}
	.st1{display:inline;fill:none;stroke:#222221;stroke-width:7;stroke-miterlimit:10;}
	.st2{display:inline;fill-rule:evenodd;clip-rule:evenodd;}
	.st3{display:inline;}
	
		.st4{fill-rule:evenodd;clip-rule:evenodd;fill:none;stroke:#000000;stroke-width:7;stroke-linecap:round;stroke-linejoin:round;stroke-miterlimit:10;}
	.st5{fill-rule:evenodd;clip-rule:evenodd;}
	.st6{fill:#5A287F;}
	.st7{fill:#5A287F;stroke:#5A287F;stroke-miterlimit:10;}
	.st8{fill:#5A287F;stroke:#5A287F;stroke-width:2;stroke-miterlimit:10;}
	.st9{fill:#FFFFFF;}
	.st10{fill:#FFFFFF;stroke:#FFFFFF;stroke-width:12;stroke-miterlimit:10;}
	.st11{fill:#FFFFFF;stroke:#FFFFFF;stroke-width:11;stroke-miterlimit:10;}
	.st12{fill:none;stroke:#5A287F;stroke-width:4;stroke-miterlimit:10;}
	.st13{fill:none;stroke:#5A287F;stroke-width:4;stroke-linecap:round;stroke-miterlimit:10;}
	.st14{fill:none;stroke:#5A287F;stroke-width:6;stroke-linejoin:round;stroke-miterlimit:10;}
	.st15{fill:none;stroke:#5A287F;stroke-width:4;stroke-linecap:round;stroke-linejoin:round;stroke-miterlimit:10;}
	.st16{fill:none;stroke:#FFFFFF;stroke-width:3;stroke-linecap:round;stroke-miterlimit:10;}
	.st17{fill:none;stroke:#FFFFFF;stroke-width:3;stroke-linecap:round;stroke-linejoin:round;stroke-miterlimit:10;}
	.st18{fill:none;stroke:#FFFFFF;stroke-width:2;stroke-linecap:round;stroke-linejoin:round;stroke-miterlimit:10;}
	.st19{fill:none;stroke:#FFFFFF;stroke-linecap:round;stroke-linejoin:round;stroke-miterlimit:10;}
	.st20{fill:none;stroke:#5A287F;stroke-width:5;stroke-miterlimit:10;}
	.st21{fill:none;stroke:#FFFFFF;stroke-width:4;stroke-linecap:round;stroke-linejoin:round;stroke-miterlimit:10;}
	.st22{fill:none;stroke:#5A287F;stroke-width:7;stroke-miterlimit:10;}
	.st23{fill:none;stroke:#FFFFFF;stroke-width:4;stroke-linecap:round;stroke-miterlimit:10;}
	.st24{fill:#5A287F;stroke:#5A287F;stroke-width:3;stroke-miterlimit:10;}
	.st25{fill:#5A287F;stroke:#5A287F;stroke-width:0.75;stroke-miterlimit:10;}
	.st26{fill:none;stroke:#FFFFFF;stroke-width:5;stroke-linecap:round;stroke-linejoin:round;stroke-miterlimit:10;}
	.st27{fill:none;stroke:#5A287F;stroke-width:3;stroke-linecap:round;stroke-linejoin:round;stroke-miterlimit:10;}
	.st28{fill:#FFFFFF;stroke:#FFFFFF;stroke-width:10;stroke-miterlimit:10;}
	.st29{fill:#5A287F;stroke:#FFFFFF;stroke-width:2;stroke-miterlimit:10;}
	.st30{fill:#5A287F;stroke:#FFFFFF;stroke-miterlimit:10;}
	.st31{fill:#FFFFFF;stroke:#5A287F;stroke-width:5;stroke-miterlimit:10;}
	.st32{fill:none;stroke:#5A287F;stroke-width:5;stroke-linecap:round;stroke-linejoin:round;stroke-miterlimit:10;}
	.st33{fill:none;stroke:#5A287F;stroke-width:6;stroke-linecap:round;stroke-linejoin:round;stroke-miterlimit:10;}
	.st34{fill:#FFFFFF;stroke:#5A287F;stroke-width:5;stroke-linecap:round;stroke-linejoin:round;stroke-miterlimit:10;}
	.st35{fill:#5A287F;stroke:#5A287F;stroke-width:3;stroke-linecap:round;stroke-linejoin:round;stroke-miterlimit:10;}
	.st36{fill:#FFFFFF;stroke:#5A287F;stroke-width:6;stroke-miterlimit:10;}
	.st37{fill:#FFFFFF;stroke:#5A287F;stroke-width:6;stroke-linecap:round;stroke-linejoin:round;stroke-miterlimit:10;}
	.st38{fill:#FFFFFF;stroke:#5A287F;stroke-width:4;stroke-linecap:round;stroke-linejoin:round;stroke-miterlimit:10;}
	.st39{fill:none;stroke:#5A287F;stroke-width:7;stroke-linecap:round;stroke-linejoin:round;stroke-miterlimit:10;}
	.st40{fill:#5A287F;stroke:#FFFFFF;stroke-width:3;stroke-miterlimit:10;}
	.st41{fill:#5A287F;stroke:#5A287F;stroke-width:4;stroke-linecap:round;stroke-linejoin:round;stroke-miterlimit:10;}
	.st42{fill:none;}
</style>
<g id="Layer_3" class="st0">
</g>
<g id="icone_sport" class="st0">
</g>
<g id="base_immagini">
</g>
<g id="ICONE_CAUSE">
	<g>
		<circle class="st22" cx="297.6" cy="297.6" r="146.2"/>
		<g>
			<path class="st6" d="M375.5,233.8l-7.2-0.1V213c0-4.3-3.1-7.4-7.4-7.4H243.3c-14.7,0-26.3,11.5-26.3,26.3v141.1
				c0,0.2,0,0.3,0,0.5c0.3,9.2,7.6,16.4,16.8,16.4h141.6c1.5,0,2.7-1.2,2.7-2.7V236.5C378.2,235,377,233.8,375.5,233.8z
				 M222.5,231.8c0-11.7,9.1-20.8,20.8-20.8h117.6c1.3,0,2,0.7,2,2v141.1c0,1.3-0.7,2-2,2h-127c-4.4,0-8.4,1.6-11.4,4.4V231.8z
				 M372.8,384.3H233.9c-6.5,0-11.4-4.9-11.4-11.4c0-6.5,4.9-11.4,11.4-11.4h127c4.3,0,7.4-3.1,7.4-7.4V239.1l4.4,0V384.3z"/>
			<path class="st6" d="M372.8,239.2v145.1H233.9c-6.5,0-11.4-4.9-11.4-11.4c0-6.5,4.9-11.4,11.4-11.4h127c4.3,0,7.4-3.1,7.4-7.4
				V239.1L372.8,239.2z"/>
			<line class="st26" x1="236.3" y1="367" x2="355.9" y2="367"/>
			<line class="st26" x1="236.3" y1="378.7" x2="355.9" y2="378.7"/>
			<g>
				<path class="st6" d="M289.8,290.3c0-9.9,5.6-13.5,10.8-16.9c4.5-3,8.6-5.6,8.6-11.9c0-7.1-4.9-11.2-11.9-11.2
					c-6.7,0-12,4.1-12,11.4v0.8h-9.4v-1.2c0-12.5,9.2-20.5,21.7-20.5c12.6,0,21.7,7.7,21.7,20.5c0,11.1-6.3,14.7-11.8,18
					c-4.5,2.6-8.5,5.1-8.5,10.8v1.3h-9.3V290.3z M287.7,306.1c0-4,3-7,7-7c4,0,7,3,7,7c0,4-3,7-7,7
					C290.6,313.1,287.7,310.1,287.7,306.1z"/>
			</g>
			<path class="st33" d="M232.1,258c0,27,0,66.2,0,66.2"/>
			<path class="st33" d="M246.9,222.3c0,0-14.8-1.5-14.8,13.4c0,1.3,0,3,0,5"/>
		</g>
	</g>
</g>
</svg>
